<svg width="238" height="139" viewBox="0 0 238 139" fill="none" xmlns="http://www.w3.org/2000/svg">
<ellipse cx="116.5" cy="65" rx="116.5" ry="65" transform="matrix(-1 0 0 1 233 0)" fill="#484848"/>
<path d="M222.054 130.947L221.035 91.9004L193.415 104.386L222.054 130.947Z" fill="#484848"/>
<path d="M77.4347 41.0909V60H75.1449V43.1222H65.6165V60H63.3267V41.0909H77.4347ZM87.5194 60.2955C86.2391 60.2955 85.1157 59.9908 84.1493 59.3814C83.1891 58.772 82.4382 57.9195 81.8965 56.8239C81.361 55.7282 81.0932 54.4479 81.0932 52.983C81.0932 51.5057 81.361 50.2161 81.8965 49.1143C82.4382 48.0125 83.1891 47.157 84.1493 46.5476C85.1157 45.9382 86.2391 45.6335 87.5194 45.6335C88.7997 45.6335 89.9199 45.9382 90.8801 46.5476C91.8465 47.157 92.5975 48.0125 93.133 49.1143C93.6747 50.2161 93.9455 51.5057 93.9455 52.983C93.9455 54.4479 93.6747 55.7282 93.133 56.8239C92.5975 57.9195 91.8465 58.772 90.8801 59.3814C89.9199 59.9908 88.7997 60.2955 87.5194 60.2955ZM87.5194 58.3381C88.4919 58.3381 89.2921 58.0888 89.9199 57.5902C90.5478 57.0916 91.0125 56.4361 91.3141 55.6236C91.6157 54.8111 91.7665 53.9309 91.7665 52.983C91.7665 52.035 91.6157 51.1518 91.3141 50.3331C91.0125 49.5144 90.5478 48.8527 89.9199 48.348C89.2921 47.8433 88.4919 47.5909 87.5194 47.5909C86.5468 47.5909 85.7466 47.8433 85.1188 48.348C84.4909 48.8527 84.0262 49.5144 83.7246 50.3331C83.423 51.1518 83.2722 52.035 83.2722 52.983C83.2722 53.9309 83.423 54.8111 83.7246 55.6236C84.0262 56.4361 84.4909 57.0916 85.1188 57.5902C85.7466 58.0888 86.5468 58.3381 87.5194 58.3381ZM95.7575 64.0625V57.9688H96.9393C97.2286 57.6671 97.4779 57.3409 97.6871 56.9901C97.8964 56.6392 98.078 56.2237 98.2319 55.7436C98.3919 55.2573 98.5273 54.6664 98.6381 53.9709C98.7489 53.2692 98.8474 52.4228 98.9336 51.4318L99.4137 45.8182H108.425V57.9688H110.604V64.0625H108.425V60H97.9364V64.0625H95.7575ZM99.4137 57.9688H106.246V47.8494H101.445L101.076 51.4318C100.922 52.9152 100.731 54.2109 100.503 55.3189C100.275 56.4268 99.9123 57.3101 99.4137 57.9688ZM113.496 60V45.8182H119.295C120.821 45.8182 122.034 46.1629 122.932 46.8523C123.831 47.5417 124.28 48.4527 124.28 49.5852C124.28 50.447 124.025 51.1148 123.514 51.5888C123.003 52.0566 122.348 52.3736 121.547 52.5398C122.071 52.6136 122.578 52.7983 123.071 53.0938C123.569 53.3892 123.982 53.7955 124.308 54.3125C124.634 54.8234 124.797 55.4512 124.797 56.196C124.797 56.9223 124.613 57.5717 124.243 58.1442C123.874 58.7166 123.345 59.169 122.655 59.5014C121.966 59.8338 121.141 60 120.181 60H113.496ZM115.564 58.0057H120.181C120.932 58.0057 121.52 57.8272 121.944 57.4702C122.369 57.1132 122.581 56.6269 122.581 56.0114C122.581 55.2789 122.369 54.7034 121.944 54.2848C121.52 53.8601 120.932 53.6477 120.181 53.6477H115.564V58.0057ZM115.564 51.7642H119.295C119.879 51.7642 120.381 51.6842 120.8 51.5241C121.218 51.358 121.538 51.1241 121.76 50.8224C121.988 50.5147 122.101 50.1515 122.101 49.733C122.101 49.1359 121.852 48.6681 121.354 48.3295C120.855 47.9848 120.169 47.8125 119.295 47.8125H115.564V51.7642ZM130.275 56.7869L137.107 45.8182H139.619V60H137.44V49.0312L130.644 60H128.096V45.8182H130.275V56.7869ZM153.101 51.9119V53.9432H145.271V51.9119H153.101ZM145.789 45.8182V60H143.61V45.8182H145.789ZM154.763 45.8182V60H152.584V45.8182H154.763ZM160.626 50.9517H164.688C166.35 50.9517 167.621 51.3733 168.502 52.2166C169.382 53.0599 169.822 54.1278 169.822 55.4205C169.822 56.2699 169.625 57.0424 169.231 57.7379C168.837 58.4273 168.258 58.9782 167.495 59.3906C166.732 59.7969 165.796 60 164.688 60H158.742V45.8182H160.921V57.9688H164.688C165.55 57.9688 166.258 57.741 166.812 57.2855C167.366 56.83 167.643 56.2453 167.643 55.5312C167.643 54.7803 167.366 54.1679 166.812 53.6939C166.258 53.2199 165.55 52.983 164.688 52.983H160.626V50.9517ZM62.9943 91V76.8182H65.1733V82.9858H66.6136L71.7102 76.8182H74.517L68.7926 83.6506L74.5909 91H71.7841L67.1307 85.017H65.1733V91H62.9943ZM81.1325 91.3324C80.2338 91.3324 79.4182 91.1631 78.6857 90.8246C77.9532 90.4799 77.3716 89.9844 76.9407 89.3381C76.5098 88.6856 76.2944 87.8977 76.2944 86.9744C76.2944 86.1619 76.4544 85.5033 76.7745 84.9986C77.0946 84.4877 77.5224 84.0876 78.0579 83.7983C78.5934 83.509 79.1843 83.2936 79.8306 83.152C80.4831 83.0043 81.1386 82.8873 81.7972 82.8011C82.659 82.6903 83.3576 82.6072 83.8931 82.5518C84.4348 82.4903 84.8287 82.3887 85.0749 82.2472C85.3273 82.1056 85.4535 81.8594 85.4535 81.5085V81.4347C85.4535 80.5237 85.2042 79.8158 84.7056 79.3111C84.2132 78.8063 83.4653 78.554 82.462 78.554C81.4218 78.554 80.6062 78.7817 80.0153 79.2372C79.4244 79.6927 79.0089 80.179 78.7688 80.696L76.7006 79.9574C77.07 79.0956 77.5624 78.4247 78.1779 77.9446C78.7996 77.4583 79.4767 77.1198 80.2092 76.929C80.9478 76.732 81.6741 76.6335 82.3881 76.6335C82.8436 76.6335 83.3668 76.6889 83.9577 76.7997C84.5548 76.9044 85.1303 77.1229 85.6843 77.4553C86.2444 77.7876 86.7092 78.2893 87.0785 78.9602C87.4478 79.6312 87.6325 80.5298 87.6325 81.6562V91H85.4535V89.0795H85.3427C85.195 89.3873 84.9487 89.7166 84.604 90.0675C84.2594 90.4183 83.8008 90.7169 83.2283 90.9631C82.6559 91.2093 81.9573 91.3324 81.1325 91.3324ZM81.4648 89.375C82.3266 89.375 83.0529 89.2057 83.6438 88.8672C84.2409 88.5286 84.6902 88.0916 84.9918 87.5561C85.2996 87.0206 85.4535 86.4574 85.4535 85.8665V83.8722C85.3612 83.983 85.158 84.0845 84.8441 84.1768C84.5363 84.263 84.1793 84.34 83.7731 84.4077C83.373 84.4692 82.9821 84.5246 82.6005 84.5739C82.225 84.617 81.9203 84.6539 81.6864 84.6847C81.1201 84.7585 80.5908 84.8786 80.0984 85.0447C79.6121 85.2048 79.2182 85.4479 78.9165 85.7741C78.6211 86.0942 78.4734 86.5312 78.4734 87.0852C78.4734 87.8423 78.7534 88.4148 79.3136 88.8026C79.8799 89.1842 80.5969 89.375 81.4648 89.375ZM99.3652 88.0455L104.314 76.8182H106.382L100.252 91H98.4789L92.459 76.8182H94.4902L99.3652 88.0455ZM93.7885 76.8182V91H91.6096V76.8182H93.7885ZM104.942 91V76.8182H107.121V91H104.942ZM117.056 91.2955C115.689 91.2955 114.51 90.9938 113.519 90.3906C112.535 89.7812 111.774 88.9318 111.239 87.8423C110.709 86.7467 110.445 85.4725 110.445 84.0199C110.445 82.5672 110.709 81.2869 111.239 80.179C111.774 79.0649 112.519 78.197 113.473 77.5753C114.433 76.9474 115.554 76.6335 116.834 76.6335C117.573 76.6335 118.302 76.7566 119.022 77.0028C119.742 77.2491 120.398 77.6491 120.989 78.2031C121.58 78.7509 122.051 79.4773 122.401 80.3821C122.752 81.2869 122.928 82.401 122.928 83.7244V84.6477H111.996V82.7642H120.712C120.712 81.964 120.552 81.25 120.232 80.6222C119.918 79.9943 119.468 79.4988 118.884 79.1357C118.305 78.7725 117.622 78.5909 116.834 78.5909C115.966 78.5909 115.215 78.8063 114.581 79.2372C113.953 79.6619 113.47 80.2159 113.132 80.8991C112.793 81.5824 112.624 82.3149 112.624 83.0966V84.3523C112.624 85.4233 112.808 86.3312 113.178 87.076C113.553 87.8146 114.073 88.3778 114.738 88.7656C115.403 89.1473 116.175 89.3381 117.056 89.3381C117.628 89.3381 118.145 89.258 118.607 89.098C119.075 88.9318 119.478 88.6856 119.816 88.3594C120.155 88.027 120.416 87.6146 120.601 87.1222L122.706 87.7131C122.485 88.4271 122.112 89.0549 121.589 89.5966C121.066 90.1321 120.419 90.5507 119.65 90.8523C118.881 91.1477 118.016 91.2955 117.056 91.2955ZM135.734 82.9119V84.9432H127.904V82.9119H135.734ZM128.421 76.8182V91H126.242V76.8182H128.421ZM137.396 76.8182V91H135.217V76.8182H137.396ZM143.259 81.9517H147.321C148.983 81.9517 150.254 82.3733 151.134 83.2166C152.015 84.0599 152.455 85.1278 152.455 86.4205C152.455 87.2699 152.258 88.0424 151.864 88.7379C151.47 89.4273 150.891 89.9782 150.128 90.3906C149.365 90.7969 148.429 91 147.321 91H141.375V76.8182H143.554V88.9688H147.321C148.183 88.9688 148.891 88.741 149.445 88.2855C149.999 87.83 150.276 87.2453 150.276 86.5312C150.276 85.7803 149.999 85.1679 149.445 84.6939C148.891 84.2199 148.183 83.983 147.321 83.983H143.259V81.9517Z" fill="white"/>
</svg>
