<svg width="233" height="181" viewBox="0 0 233 181" fill="none" xmlns="http://www.w3.org/2000/svg">
<ellipse cx="116.5" cy="88" rx="116.5" ry="88" fill="#484848"/>
<path d="M15.9463 172.947L16.9654 133.9L44.5853 146.386L15.9463 172.947Z" fill="#484848"/>
<path d="M90.3778 61H88.088C87.9526 60.3414 87.7156 59.7628 87.377 59.2642C87.0447 58.7656 86.6384 58.3471 86.1583 58.0085C85.6843 57.6638 85.1581 57.4053 84.5795 57.233C84.0009 57.0606 83.3976 56.9744 82.7698 56.9744C81.6249 56.9744 80.5877 57.2637 79.6583 57.8423C78.735 58.4209 77.9994 59.2734 77.4516 60.3999C76.9099 61.5263 76.6391 62.9081 76.6391 64.5455C76.6391 66.1828 76.9099 67.5646 77.4516 68.6911C77.9994 69.8175 78.735 70.67 79.6583 71.2486C80.5877 71.8272 81.6249 72.1165 82.7698 72.1165C83.3976 72.1165 84.0009 72.0303 84.5795 71.858C85.1581 71.6856 85.6843 71.4302 86.1583 71.0916C86.6384 70.7469 87.0447 70.3253 87.377 69.8267C87.7156 69.322 87.9526 68.7434 88.088 68.0909H90.3778C90.2054 69.0573 89.8915 69.9221 89.436 70.6854C88.9805 71.4486 88.4142 72.098 87.7371 72.6335C87.06 73.1629 86.2999 73.5661 85.4566 73.843C84.6195 74.12 83.7239 74.2585 82.7698 74.2585C81.1571 74.2585 79.7229 73.8646 78.4672 73.0767C77.2116 72.2888 76.2236 71.1686 75.5035 69.7159C74.7833 68.2633 74.4232 66.5398 74.4232 64.5455C74.4232 62.5511 74.7833 60.8277 75.5035 59.375C76.2236 57.9223 77.2116 56.8021 78.4672 56.0142C79.7229 55.2263 81.1571 54.8324 82.7698 54.8324C83.7239 54.8324 84.6195 54.9709 85.4566 55.2479C86.2999 55.5249 87.06 55.9311 87.7371 56.4666C88.4142 56.996 88.9805 57.6423 89.436 58.4055C89.8915 59.1626 90.2054 60.0275 90.3778 61ZM99.5438 74.2955C98.2635 74.2955 97.1401 73.9908 96.1737 73.3814C95.2135 72.772 94.4626 71.9195 93.9209 70.8239C93.3854 69.7282 93.1176 68.4479 93.1176 66.983C93.1176 65.5057 93.3854 64.2161 93.9209 63.1143C94.4626 62.0125 95.2135 61.157 96.1737 60.5476C97.1401 59.9382 98.2635 59.6335 99.5438 59.6335C100.824 59.6335 101.944 59.9382 102.905 60.5476C103.871 61.157 104.622 62.0125 105.157 63.1143C105.699 64.2161 105.97 65.5057 105.97 66.983C105.97 68.4479 105.699 69.7282 105.157 70.8239C104.622 71.9195 103.871 72.772 102.905 73.3814C101.944 73.9908 100.824 74.2955 99.5438 74.2955ZM99.5438 72.3381C100.516 72.3381 101.316 72.0888 101.944 71.5902C102.572 71.0916 103.037 70.4361 103.339 69.6236C103.64 68.8111 103.791 67.9309 103.791 66.983C103.791 66.035 103.64 65.1518 103.339 64.3331C103.037 63.5144 102.572 62.8527 101.944 62.348C101.316 61.8433 100.516 61.5909 99.5438 61.5909C98.5712 61.5909 97.771 61.8433 97.1432 62.348C96.5154 62.8527 96.0506 63.5144 95.749 64.3331C95.4474 65.1518 95.2966 66.035 95.2966 66.983C95.2966 67.9309 95.4474 68.8111 95.749 69.6236C96.0506 70.4361 96.5154 71.0916 97.1432 71.5902C97.771 72.0888 98.5712 72.3381 99.5438 72.3381ZM119.822 54.5L120.93 55.8295C120.499 56.2481 120 56.5405 119.434 56.7067C118.868 56.8729 118.227 56.9744 117.513 57.0114C116.799 57.0483 116.005 57.0852 115.131 57.1222C114.146 57.1591 113.331 57.3991 112.685 57.8423C112.038 58.2855 111.54 58.9257 111.189 59.7628C110.838 60.5999 110.613 61.6278 110.515 62.8466H110.699C111.18 61.9602 111.844 61.3078 112.694 60.8892C113.543 60.4706 114.454 60.2614 115.427 60.2614C116.535 60.2614 117.532 60.5199 118.418 61.0369C119.305 61.554 120.006 62.3203 120.523 63.3359C121.04 64.3516 121.299 65.6042 121.299 67.0938C121.299 68.5772 121.034 69.8575 120.505 70.9347C119.982 72.0118 119.246 72.8428 118.298 73.4276C117.356 74.0062 116.252 74.2955 114.984 74.2955C113.716 74.2955 112.605 73.9969 111.65 73.3999C110.696 72.7966 109.955 71.9041 109.425 70.7223C108.896 69.5343 108.631 68.0663 108.631 66.3182V64.804C108.631 61.6463 109.167 59.2519 110.238 57.6207C111.315 55.9896 112.934 55.1463 115.094 55.0909C115.858 55.0663 116.538 55.0601 117.135 55.0724C117.732 55.0848 118.252 55.0571 118.695 54.9893C119.138 54.9216 119.514 54.7585 119.822 54.5ZM114.984 72.3381C115.839 72.3381 116.575 72.1226 117.19 71.6918C117.812 71.2609 118.289 70.6546 118.621 69.8729C118.954 69.085 119.12 68.1586 119.12 67.0938C119.12 66.0597 118.951 65.1795 118.612 64.4531C118.28 63.7268 117.803 63.1728 117.181 62.7912C116.559 62.4096 115.815 62.2188 114.947 62.2188C114.313 62.2188 113.743 62.3265 113.239 62.5419C112.734 62.7573 112.303 63.0743 111.946 63.4929C111.589 63.9115 111.312 64.4223 111.115 65.0256C110.924 65.6288 110.823 66.3182 110.81 67.0938C110.81 68.6818 111.183 69.9529 111.927 70.907C112.672 71.861 113.691 72.3381 114.984 72.3381ZM130.578 74.2955C129.212 74.2955 128.033 73.9938 127.042 73.3906C126.057 72.7812 125.297 71.9318 124.761 70.8423C124.232 69.7467 123.967 68.4725 123.967 67.0199C123.967 65.5672 124.232 64.2869 124.761 63.179C125.297 62.0649 126.042 61.197 126.996 60.5753C127.956 59.9474 129.076 59.6335 130.356 59.6335C131.095 59.6335 131.824 59.7566 132.545 60.0028C133.265 60.2491 133.92 60.6491 134.511 61.2031C135.102 61.7509 135.573 62.4773 135.924 63.3821C136.275 64.2869 136.45 65.401 136.45 66.7244V67.6477H125.518V65.7642H134.234C134.234 64.964 134.074 64.25 133.754 63.6222C133.44 62.9943 132.991 62.4988 132.406 62.1357C131.828 61.7725 131.144 61.5909 130.356 61.5909C129.489 61.5909 128.738 61.8063 128.104 62.2372C127.476 62.6619 126.993 63.2159 126.654 63.8991C126.315 64.5824 126.146 65.3149 126.146 66.0966V67.3523C126.146 68.4233 126.331 69.3312 126.7 70.076C127.076 70.8146 127.596 71.3778 128.261 71.7656C128.925 72.1473 129.698 72.3381 130.578 72.3381C131.15 72.3381 131.668 72.258 132.129 72.098C132.597 71.9318 133 71.6856 133.339 71.3594C133.677 71.027 133.939 70.6146 134.123 70.1222L136.229 70.7131C136.007 71.4271 135.635 72.0549 135.111 72.5966C134.588 73.1321 133.942 73.5507 133.172 73.8523C132.403 74.1477 131.538 74.2955 130.578 74.2955ZM139.765 79.3182V59.8182H141.87V62.071H142.128C142.289 61.8248 142.51 61.5109 142.793 61.1293C143.083 60.7415 143.495 60.3968 144.03 60.0952C144.572 59.7874 145.305 59.6335 146.228 59.6335C147.422 59.6335 148.475 59.9321 149.386 60.5291C150.297 61.1262 151.007 61.9725 151.518 63.0682C152.029 64.1638 152.285 65.4564 152.285 66.946C152.285 68.4479 152.029 69.7498 151.518 70.8516C151.007 71.9472 150.3 72.7966 149.395 73.3999C148.49 73.9969 147.447 74.2955 146.265 74.2955C145.354 74.2955 144.624 74.1446 144.077 73.843C143.529 73.5353 143.107 73.1875 142.812 72.7997C142.516 72.4058 142.289 72.0795 142.128 71.821H141.944V79.3182H139.765ZM141.907 66.9091C141.907 67.9801 142.064 68.925 142.378 69.7436C142.692 70.5561 143.15 71.1932 143.753 71.6548C144.357 72.1103 145.095 72.3381 145.969 72.3381C146.88 72.3381 147.641 72.098 148.25 71.6179C148.865 71.1316 149.327 70.4792 149.635 69.6605C149.949 68.8357 150.106 67.9186 150.106 66.9091C150.106 65.9119 149.952 65.0133 149.644 64.2131C149.342 63.4067 148.884 62.7696 148.268 62.3018C147.659 61.8279 146.893 61.5909 145.969 61.5909C145.083 61.5909 144.338 61.8156 143.735 62.2649C143.132 62.7081 142.676 63.3298 142.369 64.13C142.061 64.924 141.907 65.8504 141.907 66.9091ZM157.788 70.7869L164.62 59.8182H167.131V74H164.952V63.0312L158.157 74H155.609V59.8182H157.788V70.7869ZM32.486 105.332C31.5873 105.332 30.7717 105.163 30.0392 104.825C29.3068 104.48 28.7251 103.984 28.2942 103.338C27.8633 102.686 27.6479 101.898 27.6479 100.974C27.6479 100.162 27.8079 99.5033 28.128 98.9986C28.4481 98.4877 28.8759 98.0876 29.4114 97.7983C29.9469 97.509 30.5378 97.2936 31.1841 97.152C31.8366 97.0043 32.4921 96.8873 33.1507 96.8011C34.0125 96.6903 34.7111 96.6072 35.2466 96.5518C35.7883 96.4903 36.1822 96.3887 36.4284 96.2472C36.6808 96.1056 36.807 95.8594 36.807 95.5085V95.4347C36.807 94.5237 36.5577 93.8158 36.0591 93.3111C35.5667 92.8063 34.8188 92.554 33.8155 92.554C32.7753 92.554 31.9597 92.7817 31.3688 93.2372C30.7779 93.6927 30.3624 94.179 30.1223 94.696L28.0542 93.9574C28.4235 93.0956 28.9159 92.4247 29.5314 91.9446C30.1531 91.4583 30.8302 91.1198 31.5627 90.929C32.3013 90.732 33.0276 90.6335 33.7417 90.6335C34.1971 90.6335 34.7203 90.6889 35.3113 90.7997C35.9083 90.9044 36.4838 91.1229 37.0378 91.4553C37.598 91.7876 38.0627 92.2893 38.432 92.9602C38.8013 93.6312 38.986 94.5298 38.986 95.6562V105H36.807V103.08H36.6962C36.5485 103.387 36.3023 103.717 35.9576 104.067C35.6129 104.418 35.1543 104.717 34.5819 104.963C34.0094 105.209 33.3108 105.332 32.486 105.332ZM32.8184 103.375C33.6801 103.375 34.4064 103.206 34.9973 102.867C35.5944 102.529 36.0437 102.092 36.3453 101.556C36.6531 101.021 36.807 100.457 36.807 99.8665V97.8722C36.7147 97.983 36.5115 98.0845 36.1976 98.1768C35.8899 98.263 35.5328 98.34 35.1266 98.4077C34.7265 98.4692 34.3356 98.5246 33.954 98.5739C33.5785 98.617 33.2739 98.6539 33.04 98.6847C32.4737 98.7585 31.9443 98.8786 31.4519 99.0447C30.9656 99.2048 30.5717 99.4479 30.2701 99.7741C29.9746 100.094 29.8269 100.531 29.8269 101.085C29.8269 101.842 30.1069 102.415 30.6671 102.803C31.2334 103.184 31.9505 103.375 32.8184 103.375ZM42.9631 105V90.8182H48.7614C50.2879 90.8182 51.5005 91.1629 52.3991 91.8523C53.2978 92.5417 53.7472 93.4527 53.7472 94.5852C53.7472 95.447 53.4917 96.1148 52.9808 96.5888C52.4699 97.0566 51.8144 97.3736 51.0142 97.5398C51.5374 97.6136 52.0452 97.7983 52.5376 98.0938C53.0362 98.3892 53.4486 98.7955 53.7749 99.3125C54.1011 99.8234 54.2642 100.451 54.2642 101.196C54.2642 101.922 54.0795 102.572 53.7102 103.144C53.3409 103.717 52.8116 104.169 52.1222 104.501C51.4328 104.834 50.608 105 49.6477 105H42.9631ZM45.0312 103.006H49.6477C50.3987 103.006 50.9865 102.827 51.4112 102.47C51.8359 102.113 52.0483 101.627 52.0483 101.011C52.0483 100.279 51.8359 99.7034 51.4112 99.2848C50.9865 98.8601 50.3987 98.6477 49.6477 98.6477H45.0312V103.006ZM45.0312 96.7642H48.7614C49.3461 96.7642 49.8478 96.6842 50.2663 96.5241C50.6849 96.358 51.005 96.1241 51.2266 95.8224C51.4543 95.5147 51.5682 95.1515 51.5682 94.733C51.5682 94.1359 51.3189 93.6681 50.8203 93.3295C50.3217 92.9848 49.6354 92.8125 48.7614 92.8125H45.0312V96.7642ZM59.7417 101.787L66.574 90.8182H69.0854V105H66.9064V94.0312L60.111 105H57.5627V90.8182H59.7417V101.787ZM77.2496 105.332C76.351 105.332 75.5354 105.163 74.8029 104.825C74.0704 104.48 73.4888 103.984 73.0579 103.338C72.627 102.686 72.4116 101.898 72.4116 100.974C72.4116 100.162 72.5716 99.5033 72.8917 98.9986C73.2118 98.4877 73.6396 98.0876 74.1751 97.7983C74.7106 97.509 75.3015 97.2936 75.9478 97.152C76.6003 97.0043 77.2558 96.8873 77.9144 96.8011C78.7762 96.6903 79.4748 96.6072 80.0103 96.5518C80.552 96.4903 80.9459 96.3887 81.1921 96.2472C81.4445 96.1056 81.5707 95.8594 81.5707 95.5085V95.4347C81.5707 94.5237 81.3214 93.8158 80.8228 93.3111C80.3304 92.8063 79.5825 92.554 78.5792 92.554C77.5389 92.554 76.7234 92.7817 76.1325 93.2372C75.5415 93.6927 75.1261 94.179 74.886 94.696L72.8178 93.9574C73.1871 93.0956 73.6796 92.4247 74.2951 91.9446C74.9168 91.4583 75.5939 91.1198 76.3263 90.929C77.065 90.732 77.7913 90.6335 78.5053 90.6335C78.9608 90.6335 79.484 90.6889 80.0749 90.7997C80.672 90.9044 81.2475 91.1229 81.8015 91.4553C82.3616 91.7876 82.8263 92.2893 83.1957 92.9602C83.565 93.6312 83.7496 94.5298 83.7496 95.6562V105H81.5707V103.08H81.4599C81.3121 103.387 81.0659 103.717 80.7212 104.067C80.3765 104.418 79.918 104.717 79.3455 104.963C78.7731 105.209 78.0745 105.332 77.2496 105.332ZM77.582 103.375C78.4438 103.375 79.1701 103.206 79.761 102.867C80.3581 102.529 80.8074 102.092 81.109 101.556C81.4168 101.021 81.5707 100.457 81.5707 99.8665V97.8722C81.4783 97.983 81.2752 98.0845 80.9613 98.1768C80.6535 98.263 80.2965 98.34 79.8903 98.4077C79.4902 98.4692 79.0993 98.5246 78.7177 98.5739C78.3422 98.617 78.0375 98.6539 77.8036 98.6847C77.2373 98.7585 76.708 98.8786 76.2156 99.0447C75.7293 99.2048 75.3353 99.4479 75.0337 99.7741C74.7383 100.094 74.5906 100.531 74.5906 101.085C74.5906 101.842 74.8706 102.415 75.4308 102.803C75.997 103.184 76.7141 103.375 77.582 103.375ZM87.7267 105V90.8182H89.9057V96.9858H91.3461L96.4426 90.8182H99.2495L93.525 97.6506L99.3233 105H96.5165L91.8631 99.017H89.9057V105H87.7267ZM106.869 105.295C105.589 105.295 104.465 104.991 103.499 104.381C102.539 103.772 101.788 102.92 101.246 101.824C100.711 100.728 100.443 99.4479 100.443 97.983C100.443 96.5057 100.711 95.2161 101.246 94.1143C101.788 93.0125 102.539 92.157 103.499 91.5476C104.465 90.9382 105.589 90.6335 106.869 90.6335C108.149 90.6335 109.27 90.9382 110.23 91.5476C111.196 92.157 111.947 93.0125 112.483 94.1143C113.024 95.2161 113.295 96.5057 113.295 97.983C113.295 99.4479 113.024 100.728 112.483 101.824C111.947 102.92 111.196 103.772 110.23 104.381C109.27 104.991 108.149 105.295 106.869 105.295ZM106.869 103.338C107.842 103.338 108.642 103.089 109.27 102.59C109.897 102.092 110.362 101.436 110.664 100.624C110.965 99.8111 111.116 98.9309 111.116 97.983C111.116 97.035 110.965 96.1518 110.664 95.3331C110.362 94.5144 109.897 93.8527 109.27 93.348C108.642 92.8433 107.842 92.5909 106.869 92.5909C105.896 92.5909 105.096 92.8433 104.468 93.348C103.841 93.8527 103.376 94.5144 103.074 95.3331C102.773 96.1518 102.622 97.035 102.622 97.983C102.622 98.9309 102.773 99.8111 103.074 100.624C103.376 101.436 103.841 102.092 104.468 102.59C105.096 103.089 105.896 103.338 106.869 103.338ZM124.377 102.045L129.326 90.8182H131.394L125.263 105H123.491L117.471 90.8182H119.502L124.377 102.045ZM118.8 90.8182V105H116.621V90.8182H118.8ZM129.954 105V90.8182H132.133V105H129.954ZM136.121 105V90.8182H147.275V105H145.096V92.8494H138.3V105H136.121ZM155.427 105.332C154.529 105.332 153.713 105.163 152.981 104.825C152.248 104.48 151.666 103.984 151.236 103.338C150.805 102.686 150.589 101.898 150.589 100.974C150.589 100.162 150.749 99.5033 151.069 98.9986C151.39 98.4877 151.817 98.0876 152.353 97.7983C152.888 97.509 153.479 97.2936 154.126 97.152C154.778 97.0043 155.434 96.8873 156.092 96.8011C156.954 96.6903 157.653 96.6072 158.188 96.5518C158.73 96.4903 159.124 96.3887 159.37 96.2472C159.622 96.1056 159.748 95.8594 159.748 95.5085V95.4347C159.748 94.5237 159.499 93.8158 159.001 93.3111C158.508 92.8063 157.76 92.554 156.757 92.554C155.717 92.554 154.901 92.7817 154.31 93.2372C153.719 93.6927 153.304 94.179 153.064 94.696L150.996 93.9574C151.365 93.0956 151.857 92.4247 152.473 91.9446C153.095 91.4583 153.772 91.1198 154.504 90.929C155.243 90.732 155.969 90.6335 156.683 90.6335C157.139 90.6335 157.662 90.6889 158.253 90.7997C158.85 90.9044 159.425 91.1229 159.979 91.4553C160.539 91.7876 161.004 92.2893 161.373 92.9602C161.743 93.6312 161.927 94.5298 161.927 95.6562V105H159.748V103.08H159.638C159.49 103.387 159.244 103.717 158.899 104.067C158.554 104.418 158.096 104.717 157.523 104.963C156.951 105.209 156.252 105.332 155.427 105.332ZM155.76 103.375C156.622 103.375 157.348 103.206 157.939 102.867C158.536 102.529 158.985 102.092 159.287 101.556C159.595 101.021 159.748 100.457 159.748 99.8665V97.8722C159.656 97.983 159.453 98.0845 159.139 98.1768C158.831 98.263 158.474 98.34 158.068 98.4077C157.668 98.4692 157.277 98.5246 156.895 98.5739C156.52 98.617 156.215 98.6539 155.981 98.6847C155.415 98.7585 154.886 98.8786 154.393 99.0447C153.907 99.2048 153.513 99.4479 153.211 99.7741C152.916 100.094 152.768 100.531 152.768 101.085C152.768 101.842 153.048 102.415 153.608 102.803C154.175 103.184 154.892 103.375 155.76 103.375ZM175.396 96.9119V98.9432H167.566V96.9119H175.396ZM168.083 90.8182V105H165.904V90.8182H168.083ZM177.058 90.8182V105H174.879V90.8182H177.058ZM183.216 101.787L190.049 90.8182H192.56V105H190.381V94.0312L183.586 105H181.037V90.8182H183.216V101.787ZM203.346 97.0227V99.054H195.849V97.0227H203.346ZM197.696 90.8182V105H195.517V90.8182H197.696ZM207.704 105.295C206.424 105.295 205.301 104.991 204.334 104.381C203.374 103.772 202.623 102.92 202.081 101.824C201.546 100.728 201.278 99.4479 201.278 97.983C201.278 96.5057 201.546 95.2161 202.081 94.1143C202.623 93.0125 203.374 92.157 204.334 91.5476C205.301 90.9382 206.424 90.6335 207.704 90.6335C208.985 90.6335 210.105 90.9382 211.065 91.5476C212.032 92.157 212.782 93.0125 213.318 94.1143C213.86 95.2161 214.131 96.5057 214.131 97.983C214.131 99.4479 213.86 100.728 213.318 101.824C212.782 102.92 212.032 103.772 211.065 104.381C210.105 104.991 208.985 105.295 207.704 105.295ZM207.704 103.338C208.677 103.338 209.477 103.089 210.105 102.59C210.733 102.092 211.198 101.436 211.499 100.624C211.801 99.8111 211.952 98.9309 211.952 97.983C211.952 97.035 211.801 96.1518 211.499 95.3331C211.198 94.5144 210.733 93.8527 210.105 93.348C209.477 92.8433 208.677 92.5909 207.704 92.5909C206.732 92.5909 205.932 92.8433 205.304 93.348C204.676 93.8527 204.211 94.5144 203.91 95.3331C203.608 96.1518 203.457 97.035 203.457 97.983C203.457 98.9309 203.608 99.8111 203.91 100.624C204.211 101.436 204.676 102.092 205.304 102.59C205.932 103.089 206.732 103.338 207.704 103.338Z" fill="white"/>
</svg>
