<svg width="233" height="181" viewBox="0 0 233 181" fill="none" xmlns="http://www.w3.org/2000/svg">
<ellipse cx="116.5" cy="88" rx="116.5" ry="88" transform="matrix(-1 0 0 1 233 0)" fill="#484848"/>
<path d="M217.054 172.947L216.035 133.9L188.415 146.386L217.054 172.947Z" fill="#484848"/>
<path d="M77.8624 65.0909V84H75.5726V67.1222H66.0442V84H63.7544V65.0909H77.8624ZM87.9471 84.2955C86.6668 84.2955 85.5434 83.9908 84.5771 83.3814C83.6168 82.772 82.8659 81.9195 82.3242 80.8239C81.7887 79.7282 81.521 78.4479 81.521 76.983C81.521 75.5057 81.7887 74.2161 82.3242 73.1143C82.8659 72.0125 83.6168 71.157 84.5771 70.5476C85.5434 69.9382 86.6668 69.6335 87.9471 69.6335C89.2274 69.6335 90.3477 69.9382 91.3079 70.5476C92.2743 71.157 93.0252 72.0125 93.5607 73.1143C94.1024 74.2161 94.3732 75.5057 94.3732 76.983C94.3732 78.4479 94.1024 79.7282 93.5607 80.8239C93.0252 81.9195 92.2743 82.772 91.3079 83.3814C90.3477 83.9908 89.2274 84.2955 87.9471 84.2955ZM87.9471 82.3381C88.9196 82.3381 89.7198 82.0888 90.3477 81.5902C90.9755 81.0916 91.4402 80.4361 91.7418 79.6236C92.0434 78.8111 92.1942 77.9309 92.1942 76.983C92.1942 76.035 92.0434 75.1518 91.7418 74.3331C91.4402 73.5144 90.9755 72.8527 90.3477 72.348C89.7198 71.8433 88.9196 71.5909 87.9471 71.5909C86.9746 71.5909 86.1744 71.8433 85.5465 72.348C84.9187 72.8527 84.454 73.5144 84.1523 74.3331C83.8507 75.1518 83.6999 76.035 83.6999 76.983C83.6999 77.9309 83.8507 78.8111 84.1523 79.6236C84.454 80.4361 84.9187 81.0916 85.5465 81.5902C86.1744 82.0888 86.9746 82.3381 87.9471 82.3381ZM96.1852 88.0625V81.9688H97.367C97.6563 81.6671 97.9056 81.3409 98.1149 80.9901C98.3242 80.6392 98.5057 80.2237 98.6596 79.7436C98.8197 79.2573 98.9551 78.6664 99.0659 77.9709C99.1767 77.2692 99.2752 76.4228 99.3613 75.4318L99.8414 69.8182H108.853V81.9688H111.032V88.0625H108.853V84H98.3642V88.0625H96.1852ZM99.8414 81.9688H106.674V71.8494H101.873L101.503 75.4318C101.349 76.9152 101.159 78.2109 100.931 79.3189C100.703 80.4268 100.34 81.3101 99.8414 81.9688ZM113.924 84V69.8182H119.722C121.249 69.8182 122.461 70.1629 123.36 70.8523C124.259 71.5417 124.708 72.4527 124.708 73.5852C124.708 74.447 124.453 75.1148 123.942 75.5888C123.431 76.0566 122.775 76.3736 121.975 76.5398C122.498 76.6136 123.006 76.7983 123.499 77.0938C123.997 77.3892 124.41 77.7955 124.736 78.3125C125.062 78.8234 125.225 79.4512 125.225 80.196C125.225 80.9223 125.04 81.5717 124.671 82.1442C124.302 82.7166 123.772 83.169 123.083 83.5014C122.394 83.8338 121.569 84 120.609 84H113.924ZM115.992 82.0057H120.609C121.36 82.0057 121.947 81.8272 122.372 81.4702C122.797 81.1132 123.009 80.6269 123.009 80.0114C123.009 79.2789 122.797 78.7034 122.372 78.2848C121.947 77.8601 121.36 77.6477 120.609 77.6477H115.992V82.0057ZM115.992 75.7642H119.722C120.307 75.7642 120.809 75.6842 121.227 75.5241C121.646 75.358 121.966 75.1241 122.188 74.8224C122.415 74.5147 122.529 74.1515 122.529 73.733C122.529 73.1359 122.28 72.6681 121.781 72.3295C121.283 71.9848 120.596 71.8125 119.722 71.8125H115.992V75.7642ZM130.703 80.7869L137.535 69.8182H140.046V84H137.867V73.0312L131.072 84H128.524V69.8182H130.703V80.7869ZM153.529 75.9119V77.9432H145.699V75.9119H153.529ZM146.216 69.8182V84H144.037V69.8182H146.216ZM155.191 69.8182V84H153.012V69.8182H155.191ZM161.054 74.9517H165.116C166.778 74.9517 168.049 75.3733 168.929 76.2166C169.81 77.0599 170.25 78.1278 170.25 79.4205C170.25 80.2699 170.053 81.0424 169.659 81.7379C169.265 82.4273 168.686 82.9782 167.923 83.3906C167.16 83.7969 166.224 84 165.116 84H159.17V69.8182H161.349V81.9688H165.116C165.978 81.9688 166.686 81.741 167.24 81.2855C167.794 80.83 168.071 80.2453 168.071 79.5312C168.071 78.7803 167.794 78.1679 167.24 77.6939C166.686 77.2199 165.978 76.983 165.116 76.983H161.054V74.9517ZM72.1056 115V100.818H74.2846V106.986H75.725L80.8216 100.818H83.6284L77.9039 107.651L83.7022 115H80.8954L76.242 109.017H74.2846V115H72.1056ZM90.2438 115.332C89.3451 115.332 88.5295 115.163 87.7971 114.825C87.0646 114.48 86.4829 113.984 86.052 113.338C85.6212 112.686 85.4057 111.898 85.4057 110.974C85.4057 110.162 85.5658 109.503 85.8858 108.999C86.2059 108.488 86.6337 108.088 87.1692 107.798C87.7047 107.509 88.2956 107.294 88.9419 107.152C89.5944 107.004 90.2499 106.887 90.9086 106.801C91.7703 106.69 92.4689 106.607 93.0044 106.552C93.5461 106.49 93.94 106.389 94.1863 106.247C94.4386 106.106 94.5648 105.859 94.5648 105.509V105.435C94.5648 104.524 94.3155 103.816 93.8169 103.311C93.3245 102.806 92.5766 102.554 91.5733 102.554C90.5331 102.554 89.7175 102.782 89.1266 103.237C88.5357 103.693 88.1202 104.179 87.8801 104.696L85.812 103.957C86.1813 103.096 86.6737 102.425 87.2892 101.945C87.9109 101.458 88.588 101.12 89.3205 100.929C90.0591 100.732 90.7855 100.634 91.4995 100.634C91.955 100.634 92.4782 100.689 93.0691 100.8C93.6661 100.904 94.2417 101.123 94.7956 101.455C95.3558 101.788 95.8205 102.289 96.1898 102.96C96.5591 103.631 96.7438 104.53 96.7438 105.656V115H94.5648V113.08H94.454C94.3063 113.387 94.0601 113.717 93.7154 114.067C93.3707 114.418 92.9121 114.717 92.3397 114.963C91.7672 115.209 91.0686 115.332 90.2438 115.332ZM90.5762 113.375C91.4379 113.375 92.1642 113.206 92.7551 112.867C93.3522 112.529 93.8016 112.092 94.1032 111.556C94.4109 111.021 94.5648 110.457 94.5648 109.866V107.872C94.4725 107.983 94.2694 108.085 93.9554 108.177C93.6477 108.263 93.2907 108.34 92.8844 108.408C92.4843 108.469 92.0935 108.525 91.7118 108.574C91.3364 108.617 91.0317 108.654 90.7978 108.685C90.2315 108.759 89.7021 108.879 89.2097 109.045C88.7234 109.205 88.3295 109.448 88.0279 109.774C87.7324 110.094 87.5847 110.531 87.5847 111.085C87.5847 111.842 87.8648 112.415 88.4249 112.803C88.9912 113.184 89.7083 113.375 90.5762 113.375ZM108.477 112.045L113.425 100.818H115.494L109.363 115H107.59L101.57 100.818H103.602L108.477 112.045ZM102.9 100.818V115H100.721V100.818H102.9ZM114.053 115V100.818H116.232V115H114.053ZM126.167 115.295C124.8 115.295 123.622 114.994 122.631 114.391C121.646 113.781 120.886 112.932 120.35 111.842C119.821 110.747 119.556 109.473 119.556 108.02C119.556 106.567 119.821 105.287 120.35 104.179C120.886 103.065 121.63 102.197 122.585 101.575C123.545 100.947 124.665 100.634 125.945 100.634C126.684 100.634 127.413 100.757 128.134 101.003C128.854 101.249 129.509 101.649 130.1 102.203C130.691 102.751 131.162 103.477 131.513 104.382C131.864 105.287 132.039 106.401 132.039 107.724V108.648H121.107V106.764H129.823C129.823 105.964 129.663 105.25 129.343 104.622C129.029 103.994 128.58 103.499 127.995 103.136C127.416 102.772 126.733 102.591 125.945 102.591C125.077 102.591 124.326 102.806 123.692 103.237C123.065 103.662 122.581 104.216 122.243 104.899C121.904 105.582 121.735 106.315 121.735 107.097V108.352C121.735 109.423 121.92 110.331 122.289 111.076C122.665 111.815 123.185 112.378 123.849 112.766C124.514 113.147 125.287 113.338 126.167 113.338C126.739 113.338 127.256 113.258 127.718 113.098C128.186 112.932 128.589 112.686 128.928 112.359C129.266 112.027 129.528 111.615 129.712 111.122L131.817 111.713C131.596 112.427 131.223 113.055 130.7 113.597C130.177 114.132 129.531 114.551 128.761 114.852C127.992 115.148 127.127 115.295 126.167 115.295ZM144.845 106.912V108.943H137.016V106.912H144.845ZM137.533 100.818V115H135.354V100.818H137.533ZM146.507 100.818V115H144.328V100.818H146.507ZM152.37 105.952H156.433C158.094 105.952 159.366 106.373 160.246 107.217C161.126 108.06 161.566 109.128 161.566 110.42C161.566 111.27 161.369 112.042 160.975 112.738C160.581 113.427 160.003 113.978 159.239 114.391C158.476 114.797 157.54 115 156.433 115H150.487V100.818H152.665V112.969H156.433C157.294 112.969 158.002 112.741 158.556 112.286C159.11 111.83 159.387 111.245 159.387 110.531C159.387 109.78 159.11 109.168 158.556 108.694C158.002 108.22 157.294 107.983 156.433 107.983H152.37V105.952Z" fill="white"/>
</svg>
