<svg width="240" height="182" viewBox="0 0 240 182" fill="none" xmlns="http://www.w3.org/2000/svg">
<ellipse cx="122.521" cy="85.6277" rx="117.479" ry="85.6277" fill="#484848"/>
<path d="M16.0803 172.504L17.1079 121.066L44.9599 137.513L16.0803 172.504Z" fill="#484848"/>
<path d="M83.4347 56.0909V75H81.1449V58.1222H71.6165V75H69.3267V56.0909H83.4347ZM93.5194 75.2955C92.2391 75.2955 91.1157 74.9908 90.1493 74.3814C89.1891 73.772 88.4382 72.9195 87.8965 71.8239C87.361 70.7282 87.0932 69.4479 87.0932 67.983C87.0932 66.5057 87.361 65.2161 87.8965 64.1143C88.4382 63.0125 89.1891 62.157 90.1493 61.5476C91.1157 60.9382 92.2391 60.6335 93.5194 60.6335C94.7997 60.6335 95.9199 60.9382 96.8801 61.5476C97.8465 62.157 98.5975 63.0125 99.133 64.1143C99.6747 65.2161 99.9455 66.5057 99.9455 67.983C99.9455 69.4479 99.6747 70.7282 99.133 71.8239C98.5975 72.9195 97.8465 73.772 96.8801 74.3814C95.9199 74.9908 94.7997 75.2955 93.5194 75.2955ZM93.5194 73.3381C94.4919 73.3381 95.2921 73.0888 95.9199 72.5902C96.5478 72.0916 97.0125 71.4361 97.3141 70.6236C97.6157 69.8111 97.7665 68.9309 97.7665 67.983C97.7665 67.035 97.6157 66.1518 97.3141 65.3331C97.0125 64.5144 96.5478 63.8527 95.9199 63.348C95.2921 62.8433 94.4919 62.5909 93.5194 62.5909C92.5468 62.5909 91.7466 62.8433 91.1188 63.348C90.4909 63.8527 90.0262 64.5144 89.7246 65.3331C89.423 66.1518 89.2722 67.035 89.2722 67.983C89.2722 68.9309 89.423 69.8111 89.7246 70.6236C90.0262 71.4361 90.4909 72.0916 91.1188 72.5902C91.7466 73.0888 92.5468 73.3381 93.5194 73.3381ZM101.757 79.0625V72.9688H102.939C103.229 72.6671 103.478 72.3409 103.687 71.9901C103.896 71.6392 104.078 71.2237 104.232 70.7436C104.392 70.2573 104.527 69.6664 104.638 68.9709C104.749 68.2692 104.847 67.4228 104.934 66.4318L105.414 60.8182H114.425V72.9688H116.604V79.0625H114.425V75H103.936V79.0625H101.757ZM105.414 72.9688H112.246V62.8494H107.445L107.076 66.4318C106.922 67.9152 106.731 69.2109 106.503 70.3189C106.275 71.4268 105.912 72.3101 105.414 72.9688ZM119.496 75V60.8182H125.295C126.821 60.8182 128.034 61.1629 128.932 61.8523C129.831 62.5417 130.28 63.4527 130.28 64.5852C130.28 65.447 130.025 66.1148 129.514 66.5888C129.003 67.0566 128.348 67.3736 127.547 67.5398C128.071 67.6136 128.578 67.7983 129.071 68.0938C129.569 68.3892 129.982 68.7955 130.308 69.3125C130.634 69.8234 130.797 70.4512 130.797 71.196C130.797 71.9223 130.613 72.5717 130.243 73.1442C129.874 73.7166 129.345 74.169 128.655 74.5014C127.966 74.8338 127.141 75 126.181 75H119.496ZM121.564 73.0057H126.181C126.932 73.0057 127.52 72.8272 127.944 72.4702C128.369 72.1132 128.581 71.6269 128.581 71.0114C128.581 70.2789 128.369 69.7034 127.944 69.2848C127.52 68.8601 126.932 68.6477 126.181 68.6477H121.564V73.0057ZM121.564 66.7642H125.295C125.879 66.7642 126.381 66.6842 126.8 66.5241C127.218 66.358 127.538 66.1241 127.76 65.8224C127.988 65.5147 128.101 65.1515 128.101 64.733C128.101 64.1359 127.852 63.6681 127.354 63.3295C126.855 62.9848 126.169 62.8125 125.295 62.8125H121.564V66.7642ZM136.275 71.7869L143.107 60.8182H145.619V75H143.44V64.0312L136.644 75H134.096V60.8182H136.275V71.7869ZM159.101 66.9119V68.9432H151.271V66.9119H159.101ZM151.789 60.8182V75H149.61V60.8182H151.789ZM160.763 60.8182V75H158.584V60.8182H160.763ZM166.626 65.9517H170.688C172.35 65.9517 173.621 66.3733 174.502 67.2166C175.382 68.0599 175.822 69.1278 175.822 70.4205C175.822 71.2699 175.625 72.0424 175.231 72.7379C174.837 73.4273 174.258 73.9782 173.495 74.3906C172.732 74.7969 171.796 75 170.688 75H164.742V60.8182H166.921V72.9688H170.688C171.55 72.9688 172.258 72.741 172.812 72.2855C173.366 71.83 173.643 71.2453 173.643 70.5312C173.643 69.7803 173.366 69.1679 172.812 68.6939C172.258 68.2199 171.55 67.983 170.688 67.983H166.626V65.9517ZM68.9943 106V91.8182H71.1733V97.9858H72.6136L77.7102 91.8182H80.517L74.7926 98.6506L80.5909 106H77.7841L73.1307 100.017H71.1733V106H68.9943ZM87.1325 106.332C86.2338 106.332 85.4182 106.163 84.6857 105.825C83.9532 105.48 83.3716 104.984 82.9407 104.338C82.5098 103.686 82.2944 102.898 82.2944 101.974C82.2944 101.162 82.4544 100.503 82.7745 99.9986C83.0946 99.4877 83.5224 99.0876 84.0579 98.7983C84.5934 98.509 85.1843 98.2936 85.8306 98.152C86.4831 98.0043 87.1386 97.8873 87.7972 97.8011C88.659 97.6903 89.3576 97.6072 89.8931 97.5518C90.4348 97.4903 90.8287 97.3887 91.0749 97.2472C91.3273 97.1056 91.4535 96.8594 91.4535 96.5085V96.4347C91.4535 95.5237 91.2042 94.8158 90.7056 94.3111C90.2132 93.8063 89.4653 93.554 88.462 93.554C87.4218 93.554 86.6062 93.7817 86.0153 94.2372C85.4244 94.6927 85.0089 95.179 84.7688 95.696L82.7006 94.9574C83.07 94.0956 83.5624 93.4247 84.1779 92.9446C84.7996 92.4583 85.4767 92.1198 86.2092 91.929C86.9478 91.732 87.6741 91.6335 88.3881 91.6335C88.8436 91.6335 89.3668 91.6889 89.9577 91.7997C90.5548 91.9044 91.1303 92.1229 91.6843 92.4553C92.2444 92.7876 92.7092 93.2893 93.0785 93.9602C93.4478 94.6312 93.6325 95.5298 93.6325 96.6562V106H91.4535V104.08H91.3427C91.195 104.387 90.9487 104.717 90.604 105.067C90.2594 105.418 89.8008 105.717 89.2283 105.963C88.6559 106.209 87.9573 106.332 87.1325 106.332ZM87.4648 104.375C88.3266 104.375 89.0529 104.206 89.6438 103.867C90.2409 103.529 90.6902 103.092 90.9918 102.556C91.2996 102.021 91.4535 101.457 91.4535 100.866V98.8722C91.3612 98.983 91.158 99.0845 90.8441 99.1768C90.5363 99.263 90.1793 99.34 89.7731 99.4077C89.373 99.4692 88.9821 99.5246 88.6005 99.5739C88.225 99.617 87.9203 99.6539 87.6864 99.6847C87.1201 99.7585 86.5908 99.8786 86.0984 100.045C85.6121 100.205 85.2182 100.448 84.9165 100.774C84.6211 101.094 84.4734 101.531 84.4734 102.085C84.4734 102.842 84.7534 103.415 85.3136 103.803C85.8799 104.184 86.5969 104.375 87.4648 104.375ZM105.365 103.045L110.314 91.8182H112.382L106.252 106H104.479L98.459 91.8182H100.49L105.365 103.045ZM99.7885 91.8182V106H97.6096V91.8182H99.7885ZM110.942 106V91.8182H113.121V106H110.942ZM123.056 106.295C121.689 106.295 120.51 105.994 119.519 105.391C118.535 104.781 117.774 103.932 117.239 102.842C116.709 101.747 116.445 100.473 116.445 99.0199C116.445 97.5672 116.709 96.2869 117.239 95.179C117.774 94.0649 118.519 93.197 119.473 92.5753C120.433 91.9474 121.554 91.6335 122.834 91.6335C123.573 91.6335 124.302 91.7566 125.022 92.0028C125.742 92.2491 126.398 92.6491 126.989 93.2031C127.58 93.7509 128.051 94.4773 128.401 95.3821C128.752 96.2869 128.928 97.401 128.928 98.7244V99.6477H117.996V97.7642H126.712C126.712 96.964 126.552 96.25 126.232 95.6222C125.918 94.9943 125.468 94.4988 124.884 94.1357C124.305 93.7725 123.622 93.5909 122.834 93.5909C121.966 93.5909 121.215 93.8063 120.581 94.2372C119.953 94.6619 119.47 95.2159 119.132 95.8991C118.793 96.5824 118.624 97.3149 118.624 98.0966V99.3523C118.624 100.423 118.808 101.331 119.178 102.076C119.553 102.815 120.073 103.378 120.738 103.766C121.403 104.147 122.175 104.338 123.056 104.338C123.628 104.338 124.145 104.258 124.607 104.098C125.075 103.932 125.478 103.686 125.816 103.359C126.155 103.027 126.416 102.615 126.601 102.122L128.706 102.713C128.485 103.427 128.112 104.055 127.589 104.597C127.066 105.132 126.419 105.551 125.65 105.852C124.881 106.148 124.016 106.295 123.056 106.295ZM141.734 97.9119V99.9432H133.904V97.9119H141.734ZM134.421 91.8182V106H132.242V91.8182H134.421ZM143.396 91.8182V106H141.217V91.8182H143.396ZM149.259 96.9517H153.321C154.983 96.9517 156.254 97.3733 157.134 98.2166C158.015 99.0599 158.455 100.128 158.455 101.42C158.455 102.27 158.258 103.042 157.864 103.738C157.47 104.427 156.891 104.978 156.128 105.391C155.365 105.797 154.429 106 153.321 106H147.375V91.8182H149.554V103.969H153.321C154.183 103.969 154.891 103.741 155.445 103.286C155.999 102.83 156.276 102.245 156.276 101.531C156.276 100.78 155.999 100.168 155.445 99.6939C154.891 99.2199 154.183 98.983 153.321 98.983H149.259V96.9517Z" fill="white"/>
</svg>
