<svg width="240" height="186" viewBox="0 0 240 186" fill="none" xmlns="http://www.w3.org/2000/svg">
<ellipse cx="120" cy="90.6437" rx="120" ry="90.6437" fill="#484848"/>
<path d="M16.4252 178.143L17.4749 137.923L45.9245 150.784L16.4252 178.143Z" fill="#484848"/>
<path d="M94.013 62.4717H91.7232C91.5878 61.8131 91.3508 61.2345 91.0122 60.7359C90.6799 60.2373 90.2736 59.8187 89.7935 59.4802C89.3195 59.1355 88.7933 58.877 88.2147 58.7046C87.6361 58.5323 87.0328 58.4461 86.405 58.4461C85.2601 58.4461 84.2229 58.7354 83.2935 59.314C82.3702 59.8926 81.6346 60.7451 81.0868 61.8715C80.5451 62.998 80.2743 64.3798 80.2743 66.0171C80.2743 67.6544 80.5451 69.0363 81.0868 70.1627C81.6346 71.2892 82.3702 72.1417 83.2935 72.7203C84.2229 73.2989 85.2601 73.5882 86.405 73.5882C87.0328 73.5882 87.6361 73.502 88.2147 73.3296C88.7933 73.1573 89.3195 72.9018 89.7935 72.5633C90.2736 72.2186 90.6799 71.797 91.0122 71.2984C91.3508 70.7936 91.5878 70.2151 91.7232 69.5626H94.013C93.8406 70.529 93.5267 71.3938 93.0712 72.157C92.6157 72.9203 92.0494 73.5697 91.3723 74.1052C90.6952 74.6346 89.9351 75.0377 89.0918 75.3147C88.2547 75.5917 87.3591 75.7302 86.405 75.7302C84.7923 75.7302 83.3581 75.3363 82.1024 74.5484C80.8468 73.7605 79.8588 72.6402 79.1387 71.1876C78.4185 69.7349 78.0584 68.0115 78.0584 66.0171C78.0584 64.0228 78.4185 62.2993 79.1387 60.8467C79.8588 59.394 80.8468 58.2738 82.1024 57.4859C83.3581 56.698 84.7923 56.3041 86.405 56.3041C87.3591 56.3041 88.2547 56.4426 89.0918 56.7195C89.9351 56.9965 90.6952 57.4028 91.3723 57.9383C92.0494 58.4677 92.6157 59.114 93.0712 59.8772C93.5267 60.6343 93.8406 61.4991 94.013 62.4717ZM103.179 75.7671C101.899 75.7671 100.775 75.4624 99.8089 74.8531C98.8487 74.2437 98.0978 73.3912 97.5561 72.2955C97.0206 71.1999 96.7528 69.9196 96.7528 68.4546C96.7528 66.9774 97.0206 65.6878 97.5561 64.586C98.0978 63.4842 98.8487 62.6286 99.8089 62.0193C100.775 61.4099 101.899 61.1052 103.179 61.1052C104.459 61.1052 105.58 61.4099 106.54 62.0193C107.506 62.6286 108.257 63.4842 108.793 64.586C109.334 65.6878 109.605 66.9774 109.605 68.4546C109.605 69.9196 109.334 71.1999 108.793 72.2955C108.257 73.3912 107.506 74.2437 106.54 74.8531C105.58 75.4624 104.459 75.7671 103.179 75.7671ZM103.179 73.8097C104.152 73.8097 104.952 73.5605 105.58 73.0619C106.207 72.5633 106.672 71.9078 106.974 71.0953C107.275 70.2828 107.426 69.4026 107.426 68.4546C107.426 67.5067 107.275 66.6234 106.974 65.8048C106.672 64.9861 106.207 64.3244 105.58 63.8197C104.952 63.315 104.152 63.0626 103.179 63.0626C102.206 63.0626 101.406 63.315 100.778 63.8197C100.151 64.3244 99.6858 64.9861 99.3842 65.8048C99.0826 66.6234 98.9318 67.5067 98.9318 68.4546C98.9318 69.4026 99.0826 70.2828 99.3842 71.0953C99.6858 71.9078 100.151 72.5633 100.778 73.0619C101.406 73.5605 102.206 73.8097 103.179 73.8097ZM123.457 55.9717L124.565 57.3012C124.134 57.7198 123.635 58.0122 123.069 58.1784C122.503 58.3445 121.863 58.4461 121.149 58.483C120.435 58.52 119.641 58.5569 118.767 58.5938C117.782 58.6308 116.966 58.8708 116.32 59.314C115.673 59.7572 115.175 60.3973 114.824 61.2345C114.473 62.0716 114.249 63.0995 114.15 64.3183H114.335C114.815 63.4319 115.48 62.7794 116.329 62.3609C117.178 61.9423 118.089 61.733 119.062 61.733C120.17 61.733 121.167 61.9916 122.053 62.5086C122.94 63.0257 123.642 63.792 124.159 64.8076C124.676 65.8232 124.934 67.0758 124.934 68.5654C124.934 70.0489 124.669 71.3292 124.14 72.4063C123.617 73.4835 122.881 74.3145 121.933 74.8992C120.992 75.4778 119.887 75.7671 118.619 75.7671C117.351 75.7671 116.24 75.4686 115.286 74.8715C114.332 74.2683 113.59 73.3758 113.061 72.194C112.531 71.006 112.267 69.538 112.267 67.7899V66.2757C112.267 63.118 112.802 60.7236 113.873 59.0924C114.95 57.4613 116.569 56.618 118.73 56.5626C119.493 56.538 120.173 56.5318 120.77 56.5441C121.367 56.5564 121.887 56.5287 122.33 56.461C122.774 56.3933 123.149 56.2302 123.457 55.9717ZM118.619 73.8097C119.474 73.8097 120.21 73.5943 120.825 73.1634C121.447 72.7326 121.924 72.1263 122.257 71.3445C122.589 70.5567 122.755 69.6303 122.755 68.5654C122.755 67.5313 122.586 66.6511 122.247 65.9248C121.915 65.1985 121.438 64.6445 120.816 64.2629C120.195 63.8812 119.45 63.6904 118.582 63.6904C117.948 63.6904 117.378 63.7981 116.874 64.0136C116.369 64.229 115.938 64.546 115.581 64.9646C115.224 65.3831 114.947 65.894 114.75 66.4972C114.559 67.1005 114.458 67.7899 114.445 68.5654C114.445 70.1535 114.818 71.4246 115.563 72.3786C116.307 73.3327 117.326 73.8097 118.619 73.8097ZM134.213 75.7671C132.847 75.7671 131.668 75.4655 130.677 74.8623C129.692 74.2529 128.932 73.4035 128.396 72.314C127.867 71.2184 127.602 69.9442 127.602 68.4916C127.602 67.0389 127.867 65.7586 128.396 64.6507C128.932 63.5365 129.677 62.6686 130.631 62.047C131.591 61.4191 132.711 61.1052 133.992 61.1052C134.73 61.1052 135.46 61.2283 136.18 61.4745C136.9 61.7207 137.556 62.1208 138.146 62.6748C138.737 63.2226 139.208 63.949 139.559 64.8538C139.91 65.7586 140.085 66.8727 140.085 68.1961V69.1194H129.154V67.2359H137.869C137.869 66.4357 137.709 65.7217 137.389 65.0938C137.075 64.466 136.626 63.9705 136.041 63.6073C135.463 63.2442 134.78 63.0626 133.992 63.0626C133.124 63.0626 132.373 63.278 131.739 63.7089C131.111 64.1336 130.628 64.6876 130.289 65.3708C129.951 66.0541 129.781 66.7865 129.781 67.5683V68.824C129.781 69.895 129.966 70.8029 130.335 71.5477C130.711 72.2863 131.231 72.8495 131.896 73.2373C132.561 73.6189 133.333 73.8097 134.213 73.8097C134.786 73.8097 135.303 73.7297 135.764 73.5697C136.232 73.4035 136.635 73.1573 136.974 72.8311C137.312 72.4987 137.574 72.0863 137.759 71.5938L139.864 72.1847C139.642 72.8988 139.27 73.5266 138.747 74.0683C138.223 74.6038 137.577 75.0223 136.808 75.324C136.038 75.6194 135.173 75.7671 134.213 75.7671ZM143.4 80.7899V61.2899H145.505V63.5427H145.764C145.924 63.2965 146.145 62.9826 146.428 62.6009C146.718 62.2132 147.13 61.8685 147.666 61.5669C148.207 61.2591 148.94 61.1052 149.863 61.1052C151.057 61.1052 152.11 61.4037 153.021 62.0008C153.932 62.5979 154.643 63.4442 155.154 64.5399C155.664 65.6355 155.92 66.9281 155.92 68.4177C155.92 69.9196 155.664 71.2214 155.154 72.3232C154.643 73.4189 153.935 74.2683 153.03 74.8715C152.125 75.4686 151.082 75.7671 149.9 75.7671C148.989 75.7671 148.26 75.6163 147.712 75.3147C147.164 75.007 146.742 74.6592 146.447 74.2714C146.151 73.8775 145.924 73.5512 145.764 73.2927H145.579V80.7899H143.4ZM145.542 68.3808C145.542 69.4518 145.699 70.3966 146.013 71.2153C146.327 72.0278 146.785 72.6649 147.389 73.1265C147.992 73.582 148.731 73.8097 149.605 73.8097C150.516 73.8097 151.276 73.5697 151.885 73.0896C152.501 72.6033 152.962 71.9508 153.27 71.1322C153.584 70.3074 153.741 69.3902 153.741 68.3808C153.741 67.3836 153.587 66.4849 153.279 65.6847C152.978 64.8784 152.519 64.2413 151.904 63.7735C151.294 63.2996 150.528 63.0626 149.605 63.0626C148.718 63.0626 147.973 63.2873 147.37 63.7366C146.767 64.1798 146.311 64.8015 146.004 65.6017C145.696 66.3957 145.542 67.3221 145.542 68.3808ZM161.423 72.2586L168.255 61.2899H170.766V75.4717H168.588V64.5029L161.792 75.4717H159.244V61.2899H161.423V72.2586ZM36.1212 106.804C35.2225 106.804 34.4069 106.635 33.6744 106.296C32.942 105.952 32.3603 105.456 31.9294 104.81C31.4985 104.157 31.2831 103.369 31.2831 102.446C31.2831 101.634 31.4431 100.975 31.7632 100.47C32.0833 99.9594 32.5111 99.5593 33.0466 99.27C33.5821 98.9807 34.173 98.7652 34.8193 98.6237C35.4718 98.4759 36.1273 98.359 36.7859 98.2728C37.6477 98.162 38.3463 98.0789 38.8818 98.0235C39.4235 97.962 39.8174 97.8604 40.0636 97.7188C40.316 97.5773 40.4422 97.3311 40.4422 96.9802V96.9063C40.4422 95.9954 40.1929 95.2875 39.6943 94.7828C39.2019 94.278 38.454 94.0257 37.4507 94.0257C36.4105 94.0257 35.5949 94.2534 35.004 94.7089C34.4131 95.1644 33.9976 95.6507 33.7575 96.1677L31.6894 95.4291C32.0587 94.5673 32.5511 93.8964 33.1666 93.4163C33.7883 92.93 34.4654 92.5915 35.1979 92.4007C35.9365 92.2037 36.6628 92.1052 37.3769 92.1052C37.8323 92.1052 38.3555 92.1606 38.9465 92.2714C39.5435 92.376 40.119 92.5945 40.673 92.9269C41.2332 93.2593 41.6979 93.761 42.0672 94.4319C42.4365 95.1028 42.6212 96.0015 42.6212 97.1279V106.472H40.4422V104.551H40.3314C40.1837 104.859 39.9375 105.188 39.5928 105.539C39.2481 105.89 38.7895 106.189 38.2171 106.435C37.6446 106.681 36.946 106.804 36.1212 106.804ZM36.4536 104.847C37.3153 104.847 38.0416 104.677 38.6325 104.339C39.2296 104 39.6789 103.563 39.9805 103.028C40.2883 102.492 40.4422 101.929 40.4422 101.338V99.3438C40.3499 99.4546 40.1467 99.5562 39.8328 99.6485C39.5251 99.7347 39.168 99.8116 38.7618 99.8793C38.3617 99.9409 37.9708 99.9963 37.5892 100.046C37.2137 100.089 36.9091 100.126 36.6752 100.156C36.1089 100.23 35.5795 100.35 35.0871 100.516C34.6008 100.676 34.2069 100.92 33.9053 101.246C33.6098 101.566 33.4621 102.003 33.4621 102.557C33.4621 103.314 33.7421 103.886 34.3023 104.274C34.8686 104.656 35.5857 104.847 36.4536 104.847ZM46.5983 106.472V92.2899H52.3966C53.9231 92.2899 55.1357 92.6346 56.0343 93.324C56.933 94.0133 57.3824 94.9243 57.3824 96.0569C57.3824 96.9186 57.1269 97.5865 56.616 98.0605C56.1051 98.5283 55.4496 98.8453 54.6494 99.0115C55.1726 99.0853 55.6804 99.27 56.1728 99.5654C56.6714 99.8609 57.0838 100.267 57.4101 100.784C57.7363 101.295 57.8994 101.923 57.8994 102.668C57.8994 103.394 57.7147 104.043 57.3454 104.616C56.9761 105.188 56.4468 105.641 55.7574 105.973C55.068 106.305 54.2432 106.472 53.2829 106.472H46.5983ZM48.6665 104.477H53.2829C54.0339 104.477 54.6217 104.299 55.0464 103.942C55.4711 103.585 55.6835 103.099 55.6835 102.483C55.6835 101.751 55.4711 101.175 55.0464 100.756C54.6217 100.332 54.0339 100.119 53.2829 100.119H48.6665V104.477ZM48.6665 98.2359H52.3966C52.9813 98.2359 53.483 98.1559 53.9015 97.9958C54.3201 97.8296 54.6402 97.5957 54.8618 97.2941C55.0895 96.9864 55.2034 96.6232 55.2034 96.2046C55.2034 95.6076 54.9541 95.1398 54.4555 94.8012C53.9569 94.4565 53.2706 94.2842 52.3966 94.2842H48.6665V98.2359ZM63.3769 103.259L70.2092 92.2899H72.7206V106.472H70.5416V95.5029L63.7462 106.472H61.1979V92.2899H63.3769V103.259ZM80.8848 106.804C79.9862 106.804 79.1706 106.635 78.4381 106.296C77.7056 105.952 77.124 105.456 76.6931 104.81C76.2622 104.157 76.0468 103.369 76.0468 102.446C76.0468 101.634 76.2068 100.975 76.5269 100.47C76.847 99.9594 77.2748 99.5593 77.8103 99.27C78.3458 98.9807 78.9367 98.7652 79.583 98.6237C80.2355 98.4759 80.891 98.359 81.5496 98.2728C82.4114 98.162 83.11 98.0789 83.6455 98.0235C84.1872 97.962 84.5811 97.8604 84.8273 97.7188C85.0797 97.5773 85.2059 97.3311 85.2059 96.9802V96.9063C85.2059 95.9954 84.9566 95.2875 84.458 94.7828C83.9656 94.278 83.2177 94.0257 82.2144 94.0257C81.1741 94.0257 80.3586 94.2534 79.7677 94.7089C79.1767 95.1644 78.7613 95.6507 78.5212 96.1677L76.453 95.4291C76.8223 94.5673 77.3148 93.8964 77.9303 93.4163C78.552 92.93 79.2291 92.5915 79.9615 92.4007C80.7002 92.2037 81.4265 92.1052 82.1405 92.1052C82.596 92.1052 83.1192 92.1606 83.7101 92.2714C84.3072 92.376 84.8827 92.5945 85.4367 92.9269C85.9968 93.2593 86.4616 93.761 86.8309 94.4319C87.2002 95.1028 87.3848 96.0015 87.3848 97.1279V106.472H85.2059V104.551H85.0951C84.9473 104.859 84.7011 105.188 84.3564 105.539C84.0117 105.89 83.5532 106.189 82.9807 106.435C82.4083 106.681 81.7097 106.804 80.8848 106.804ZM81.2172 104.847C82.079 104.847 82.8053 104.677 83.3962 104.339C83.9933 104 84.4426 103.563 84.7442 103.028C85.052 102.492 85.2059 101.929 85.2059 101.338V99.3438C85.1135 99.4546 84.9104 99.5562 84.5965 99.6485C84.2887 99.7347 83.9317 99.8116 83.5255 99.8793C83.1254 99.9409 82.7345 99.9963 82.3529 100.046C81.9774 100.089 81.6727 100.126 81.4388 100.156C80.8725 100.23 80.3432 100.35 79.8508 100.516C79.3645 100.676 78.9705 100.92 78.6689 101.246C78.3735 101.566 78.2258 102.003 78.2258 102.557C78.2258 103.314 78.5058 103.886 79.066 104.274C79.6322 104.656 80.3493 104.847 81.2172 104.847ZM91.3619 106.472V92.2899H93.5409V98.4575H94.9813L100.078 92.2899H102.885L97.1602 99.1222L102.959 106.472H100.152L95.4983 100.489H93.5409V106.472H91.3619ZM110.504 106.767C109.224 106.767 108.101 106.462 107.134 105.853C106.174 105.244 105.423 104.391 104.881 103.296C104.346 102.2 104.078 100.92 104.078 99.4546C104.078 97.9774 104.346 96.6878 104.881 95.586C105.423 94.4842 106.174 93.6286 107.134 93.0193C108.101 92.4099 109.224 92.1052 110.504 92.1052C111.784 92.1052 112.905 92.4099 113.865 93.0193C114.831 93.6286 115.582 94.4842 116.118 95.586C116.659 96.6878 116.93 97.9774 116.93 99.4546C116.93 100.92 116.659 102.2 116.118 103.296C115.582 104.391 114.831 105.244 113.865 105.853C112.905 106.462 111.784 106.767 110.504 106.767ZM110.504 104.81C111.477 104.81 112.277 104.56 112.905 104.062C113.533 103.563 113.997 102.908 114.299 102.095C114.601 101.283 114.751 100.403 114.751 99.4546C114.751 98.5067 114.601 97.6234 114.299 96.8048C113.997 95.9861 113.533 95.3244 112.905 94.8197C112.277 94.315 111.477 94.0626 110.504 94.0626C109.532 94.0626 108.731 94.315 108.104 94.8197C107.476 95.3244 107.011 95.9861 106.709 96.8048C106.408 97.6234 106.257 98.5067 106.257 99.4546C106.257 100.403 106.408 101.283 106.709 102.095C107.011 102.908 107.476 103.563 108.104 104.062C108.731 104.56 109.532 104.81 110.504 104.81ZM128.012 103.517L132.961 92.2899H135.029L128.899 106.472H127.126L121.106 92.2899H123.137L128.012 103.517ZM122.435 92.2899V106.472H120.256V92.2899H122.435ZM133.589 106.472V92.2899H135.768V106.472H133.589ZM139.756 106.472V92.2899H150.91V106.472H148.731V94.3211H141.935V106.472H139.756ZM159.063 106.804C158.164 106.804 157.348 106.635 156.616 106.296C155.883 105.952 155.302 105.456 154.871 104.81C154.44 104.157 154.225 103.369 154.225 102.446C154.225 101.634 154.385 100.975 154.705 100.47C155.025 99.9594 155.452 99.5593 155.988 99.27C156.524 98.9807 157.114 98.7652 157.761 98.6237C158.413 98.4759 159.069 98.359 159.727 98.2728C160.589 98.162 161.288 98.0789 161.823 98.0235C162.365 97.962 162.759 97.8604 163.005 97.7188C163.257 97.5773 163.384 97.3311 163.384 96.9802V96.9063C163.384 95.9954 163.134 95.2875 162.636 94.7828C162.143 94.278 161.395 94.0257 160.392 94.0257C159.352 94.0257 158.536 94.2534 157.945 94.7089C157.354 95.1644 156.939 95.6507 156.699 96.1677L154.631 95.4291C155 94.5673 155.493 93.8964 156.108 93.4163C156.73 92.93 157.407 92.5915 158.139 92.4007C158.878 92.2037 159.604 92.1052 160.318 92.1052C160.774 92.1052 161.297 92.1606 161.888 92.2714C162.485 92.376 163.06 92.5945 163.614 92.9269C164.175 93.2593 164.639 93.761 165.009 94.4319C165.378 95.1028 165.563 96.0015 165.563 97.1279V106.472H163.384V104.551H163.273C163.125 104.859 162.879 105.188 162.534 105.539C162.189 105.89 161.731 106.189 161.158 106.435C160.586 106.681 159.887 106.804 159.063 106.804ZM159.395 104.847C160.257 104.847 160.983 104.677 161.574 104.339C162.171 104 162.62 103.563 162.922 103.028C163.23 102.492 163.384 101.929 163.384 101.338V99.3438C163.291 99.4546 163.088 99.5562 162.774 99.6485C162.466 99.7347 162.109 99.8116 161.703 99.8793C161.303 99.9409 160.912 99.9963 160.531 100.046C160.155 100.089 159.85 100.126 159.617 100.156C159.05 100.23 158.521 100.35 158.028 100.516C157.542 100.676 157.148 100.92 156.847 101.246C156.551 101.566 156.403 102.003 156.403 102.557C156.403 103.314 156.684 103.886 157.244 104.274C157.81 104.656 158.527 104.847 159.395 104.847ZM179.031 98.3836V100.415H171.202V98.3836H179.031ZM171.719 92.2899V106.472H169.54V92.2899H171.719ZM180.693 92.2899V106.472H178.514V92.2899H180.693ZM186.851 103.259L193.684 92.2899H196.195V106.472H194.016V95.5029L187.221 106.472H184.672V92.2899H186.851V103.259ZM206.982 98.4944V100.526H199.484V98.4944H206.982ZM201.331 92.2899V106.472H199.152V92.2899H201.331ZM211.34 106.767C210.059 106.767 208.936 106.462 207.97 105.853C207.009 105.244 206.258 104.391 205.717 103.296C205.181 102.2 204.913 100.92 204.913 99.4546C204.913 97.9774 205.181 96.6878 205.717 95.586C206.258 94.4842 207.009 93.6286 207.97 93.0193C208.936 92.4099 210.059 92.1052 211.34 92.1052C212.62 92.1052 213.74 92.4099 214.7 93.0193C215.667 93.6286 216.418 94.4842 216.953 95.586C217.495 96.6878 217.766 97.9774 217.766 99.4546C217.766 100.92 217.495 102.2 216.953 103.296C216.418 104.391 215.667 105.244 214.7 105.853C213.74 106.462 212.62 106.767 211.34 106.767ZM211.34 104.81C212.312 104.81 213.112 104.56 213.74 104.062C214.368 103.563 214.833 102.908 215.134 102.095C215.436 101.283 215.587 100.403 215.587 99.4546C215.587 98.5067 215.436 97.6234 215.134 96.8048C214.833 95.9861 214.368 95.3244 213.74 94.8197C213.112 94.315 212.312 94.0626 211.34 94.0626C210.367 94.0626 209.567 94.315 208.939 94.8197C208.311 95.3244 207.846 95.9861 207.545 96.8048C207.243 97.6234 207.092 98.5067 207.092 99.4546C207.092 100.403 207.243 101.283 207.545 102.095C207.846 102.908 208.311 103.563 208.939 104.062C209.567 104.56 210.367 104.81 211.34 104.81Z" fill="white"/>
</svg>
