<svg width="240" height="186" viewBox="0 0 240 186" fill="none" xmlns="http://www.w3.org/2000/svg">
<ellipse cx="120.001" cy="90.6437" rx="120" ry="90.6437" fill="#484848"/>
<path d="M16.4261 178.143L17.4758 137.923L45.9255 150.784L16.4261 178.143Z" fill="#484848"/>
<path d="M81.3628 33.9024V52.8115H79.073V35.9337H69.5446V52.8115H67.2549V33.9024H81.3628ZM91.4475 53.107C90.1672 53.107 89.0439 52.8023 88.0775 52.1929C87.1172 51.5835 86.3663 50.731 85.8246 49.6354C85.2891 48.5397 85.0214 47.2594 85.0214 45.7945C85.0214 44.3172 85.2891 43.0277 85.8246 41.9259C86.3663 40.8241 87.1172 39.9685 88.0775 39.3591C89.0439 38.7497 90.1672 38.445 91.4475 38.445C92.7278 38.445 93.8481 38.7497 94.8083 39.3591C95.7747 39.9685 96.5256 40.8241 97.0611 41.9259C97.6028 43.0277 97.8736 44.3172 97.8736 45.7945C97.8736 47.2594 97.6028 48.5397 97.0611 49.6354C96.5256 50.731 95.7747 51.5835 94.8083 52.1929C93.8481 52.8023 92.7278 53.107 91.4475 53.107ZM91.4475 51.1496C92.42 51.1496 93.2202 50.9003 93.8481 50.4017C94.4759 49.9031 94.9406 49.2476 95.2422 48.4351C95.5439 47.6226 95.6947 46.7424 95.6947 45.7945C95.6947 44.8466 95.5439 43.9633 95.2422 43.1446C94.9406 42.326 94.4759 41.6643 93.8481 41.1595C93.2202 40.6548 92.42 40.4024 91.4475 40.4024C90.475 40.4024 89.6748 40.6548 89.0469 41.1595C88.4191 41.6643 87.9544 42.326 87.6528 43.1446C87.3511 43.9633 87.2003 44.8466 87.2003 45.7945C87.2003 46.7424 87.3511 47.6226 87.6528 48.4351C87.9544 49.2476 88.4191 49.9031 89.0469 50.4017C89.6748 50.9003 90.475 51.1496 91.4475 51.1496ZM99.6856 56.874V50.7803H100.867C101.157 50.4787 101.406 50.1524 101.615 49.8016C101.825 49.4507 102.006 49.0352 102.16 48.5551C102.32 48.0689 102.455 47.478 102.566 46.7824C102.677 46.0807 102.776 45.2343 102.862 44.2433L103.342 38.6297H112.353V50.7803H114.532V56.874H112.353V52.8115H101.865V56.874H99.6856ZM103.342 50.7803H110.174V40.661H105.373L105.004 44.2433C104.85 45.7268 104.659 47.0225 104.431 48.1304C104.204 49.2384 103.84 50.1217 103.342 50.7803ZM117.424 52.8115V38.6297H123.223C124.749 38.6297 125.962 38.9744 126.86 39.6638C127.759 40.3532 128.209 41.2642 128.209 42.3968C128.209 43.2585 127.953 43.9263 127.442 44.4003C126.931 44.8681 126.276 45.1851 125.476 45.3513C125.999 45.4252 126.507 45.6098 126.999 45.9053C127.498 46.2007 127.91 46.607 128.236 47.124C128.562 47.6349 128.726 48.2628 128.726 49.0075C128.726 49.7339 128.541 50.3833 128.172 50.9557C127.802 51.5281 127.273 51.9806 126.584 52.3129C125.894 52.6453 125.069 52.8115 124.109 52.8115H117.424ZM119.493 50.8172H124.109C124.86 50.8172 125.448 50.6387 125.873 50.2817C126.297 49.9247 126.51 49.4384 126.51 48.8229C126.51 48.0904 126.297 47.5149 125.873 47.0963C125.448 46.6716 124.86 46.4593 124.109 46.4593H119.493V50.8172ZM119.493 44.5757H123.223C123.807 44.5757 124.309 44.4957 124.728 44.3357C125.146 44.1695 125.466 43.9356 125.688 43.634C125.916 43.3262 126.03 42.963 126.03 42.5445C126.03 41.9474 125.78 41.4796 125.282 41.1411C124.783 40.7964 124.097 40.624 123.223 40.624H119.493V44.5757ZM134.203 49.5985L141.035 38.6297H143.547V52.8115H141.368V41.8428L134.572 52.8115H132.024V38.6297H134.203V49.5985ZM157.029 44.7235V46.7547H149.2V44.7235H157.029ZM149.717 38.6297V52.8115H147.538V38.6297H149.717ZM158.691 38.6297V52.8115H156.512V38.6297H158.691ZM164.554 43.7632H168.617C170.278 43.7632 171.55 44.1849 172.43 45.0281C173.31 45.8714 173.75 46.9394 173.75 48.232C173.75 49.0814 173.553 49.8539 173.159 50.5494C172.765 51.2388 172.187 51.7897 171.423 52.2021C170.66 52.6084 169.724 52.8115 168.617 52.8115H162.671V38.6297H164.849V50.7803H168.617C169.478 50.7803 170.186 50.5525 170.74 50.097C171.294 49.6415 171.571 49.0568 171.571 48.3428C171.571 47.5918 171.294 46.9794 170.74 46.5054C170.186 46.0315 169.478 45.7945 168.617 45.7945H164.554V43.7632ZM60.5621 83.8115V69.6297H71.7155V83.8115H69.5365V71.661H62.7411V83.8115H60.5621ZM74.4392 83.8115V81.7803H74.9563C75.381 81.7803 75.7349 81.6972 76.0181 81.531C76.3012 81.3586 76.529 81.0601 76.7013 80.6354C76.8798 80.2045 77.0152 79.6075 77.1076 78.8442C77.2061 78.0748 77.2768 77.0961 77.3199 75.9081L77.5784 69.6297H87.033V83.8115H84.854V71.661H79.6466L79.425 76.7206C79.3758 77.884 79.2712 78.9088 79.1111 79.7952C78.9572 80.6754 78.7203 81.414 78.4002 82.0111C78.0863 82.6082 77.6677 83.0575 77.1445 83.3591C76.6213 83.6607 75.9658 83.8115 75.1779 83.8115H74.4392ZM95.2042 84.1439C94.3055 84.1439 93.4899 83.9746 92.7574 83.6361C92.0249 83.2914 91.4433 82.7959 91.0124 82.1496C90.5815 81.4971 90.3661 80.7093 90.3661 79.786C90.3661 78.9735 90.5261 78.3148 90.8462 77.8101C91.1663 77.2992 91.5941 76.8991 92.1296 76.6098C92.6651 76.3205 93.256 76.1051 93.9023 75.9635C94.5548 75.8158 95.2103 75.6988 95.8689 75.6127C96.7307 75.5019 97.4293 75.4188 97.9648 75.3634C98.5065 75.3018 98.9004 75.2003 99.1466 75.0587C99.399 74.9171 99.5252 74.6709 99.5252 74.32V74.2462C99.5252 73.3352 99.2759 72.6273 98.7773 72.1226C98.2849 71.6179 97.537 71.3655 96.5337 71.3655C95.4935 71.3655 94.6779 71.5932 94.087 72.0487C93.4961 72.5042 93.0806 72.9905 92.8405 73.5075L90.7723 72.7689C91.1417 71.9072 91.6341 71.2362 92.2496 70.7561C92.8713 70.2699 93.5484 69.9313 94.2809 69.7405C95.0195 69.5435 95.7458 69.445 96.4598 69.445C96.9153 69.445 97.4385 69.5004 98.0294 69.6112C98.6265 69.7159 99.202 69.9344 99.756 70.2668C100.316 70.5992 100.781 71.1008 101.15 71.7718C101.519 72.4427 101.704 73.3414 101.704 74.4678V83.8115H99.5252V81.8911H99.4144C99.2667 82.1988 99.0204 82.5281 98.6757 82.879C98.3311 83.2298 97.8725 83.5284 97.3 83.7746C96.7276 84.0208 96.029 84.1439 95.2042 84.1439ZM95.5365 82.1865C96.3983 82.1865 97.1246 82.0173 97.7155 81.6787C98.3126 81.3402 98.7619 80.9031 99.0635 80.3676C99.3713 79.8321 99.5252 79.2689 99.5252 78.678V76.6837C99.4329 76.7945 99.2297 76.896 98.9158 76.9884C98.608 77.0745 98.251 77.1515 97.8448 77.2192C97.4447 77.2807 97.0538 77.3361 96.6722 77.3854C96.2967 77.4285 95.992 77.4654 95.7581 77.4962C95.1918 77.57 94.6625 77.6901 94.1701 77.8563C93.6838 78.0163 93.2899 78.2594 92.9882 78.5857C92.6928 78.9057 92.5451 79.3428 92.5451 79.8968C92.5451 80.6539 92.8251 81.2263 93.3853 81.6141C93.9516 81.9957 94.6686 82.1865 95.5365 82.1865ZM115.173 75.7235V77.7547H107.343V75.7235H115.173ZM107.86 69.6297V83.8115H105.681V69.6297H107.86ZM116.835 69.6297V83.8115H114.656V69.6297H116.835ZM126.76 84.107C125.394 84.107 124.215 83.8054 123.224 83.2021C122.239 82.5928 121.479 81.7433 120.943 80.6539C120.414 79.5582 120.149 78.2841 120.149 76.8314C120.149 75.3788 120.414 74.0985 120.943 72.9905C121.479 71.8764 122.224 71.0085 123.178 70.3868C124.138 69.759 125.258 69.445 126.538 69.445C127.277 69.445 128.007 69.5682 128.727 69.8144C129.447 70.0606 130.102 70.4607 130.693 71.0146C131.284 71.5625 131.755 72.2888 132.106 73.1936C132.457 74.0985 132.632 75.2126 132.632 76.536V77.4593H121.7V75.5757H130.416C130.416 74.7755 130.256 74.0615 129.936 73.4337C129.622 72.8058 129.173 72.3103 128.588 71.9472C128.01 71.584 127.326 71.4024 126.538 71.4024C125.671 71.4024 124.92 71.6179 124.286 72.0487C123.658 72.4735 123.175 73.0274 122.836 73.7107C122.498 74.3939 122.328 75.1264 122.328 75.9081V77.1638C122.328 78.2348 122.513 79.1427 122.882 79.8875C123.258 80.6262 123.778 81.1894 124.443 81.5771C125.107 81.9588 125.88 82.1496 126.76 82.1496C127.333 82.1496 127.85 82.0696 128.311 81.9095C128.779 81.7433 129.182 81.4971 129.521 81.1709C129.859 80.8385 130.121 80.4261 130.306 79.9337L132.411 80.5246C132.189 81.2386 131.817 81.8664 131.293 82.4081C130.77 82.9436 130.124 83.3622 129.355 83.6638C128.585 83.9593 127.72 84.107 126.76 84.107ZM134.627 71.661V69.6297H146.149V71.661H141.496V83.8115H139.317V71.661H134.627ZM151.211 74.7632H155.274C156.936 74.7632 158.207 75.1849 159.087 76.0281C159.967 76.8714 160.407 77.9394 160.407 79.232C160.407 80.0814 160.21 80.8539 159.816 81.5494C159.422 82.2388 158.844 82.7897 158.081 83.2021C157.317 83.6084 156.382 83.8115 155.274 83.8115H149.328V69.6297H151.507V81.7803H155.274C156.136 81.7803 156.843 81.5525 157.397 81.097C157.951 80.6415 158.228 80.0568 158.228 79.3428C158.228 78.5918 157.951 77.9794 157.397 77.5054C156.843 77.0315 156.136 76.7945 155.274 76.7945H151.211V74.7632ZM162.66 83.8115V69.6297H164.839V83.8115H162.66ZM172.078 81.2263L171.93 82.2235C171.825 82.9252 171.665 83.6761 171.45 84.4763C171.241 85.2765 171.022 86.0305 170.794 86.7384C170.567 87.4462 170.379 88.0094 170.231 88.428H168.569C168.649 88.0341 168.754 87.5139 168.883 86.8676C169.012 86.2213 169.142 85.4981 169.271 84.6979C169.406 83.9039 169.517 83.0914 169.603 82.2604L169.714 81.2263H172.078ZM69.4881 100.63V114.812H67.3091V100.63H69.4881ZM68.6386 107.388V109.419C68.1462 109.604 67.6569 109.767 67.1706 109.909C66.6843 110.044 66.1734 110.152 65.6379 110.232C65.1024 110.306 64.5146 110.343 63.8744 110.343C62.2679 110.343 60.9784 109.909 60.0058 109.041C59.0394 108.173 58.5563 106.871 58.5563 105.135V100.593H60.7352V105.135C60.7352 105.862 60.8737 106.459 61.1507 106.927C61.4277 107.394 61.8032 107.742 62.2771 107.97C62.7511 108.198 63.2835 108.312 63.8744 108.312C64.7977 108.312 65.6318 108.228 66.3766 108.062C67.1275 107.89 67.8815 107.665 68.6386 107.388ZM71.5563 102.661V100.63H83.079V102.661H78.4256V114.812H76.2466V102.661H71.5563ZM91.2825 115.107C90.0022 115.107 88.8788 114.802 87.9124 114.193C86.9522 113.584 86.2013 112.731 85.6596 111.635C85.1241 110.54 84.8563 109.259 84.8563 107.794C84.8563 106.317 85.1241 105.028 85.6596 103.926C86.2013 102.824 86.9522 101.968 87.9124 101.359C88.8788 100.75 90.0022 100.445 91.2825 100.445C92.5628 100.445 93.683 100.75 94.6433 101.359C95.6096 101.968 96.3606 102.824 96.8961 103.926C97.4378 105.028 97.7086 106.317 97.7086 107.794C97.7086 109.259 97.4378 110.54 96.8961 111.635C96.3606 112.731 95.6096 113.584 94.6433 114.193C93.683 114.802 92.5628 115.107 91.2825 115.107ZM91.2825 113.15C92.255 113.15 93.0552 112.9 93.683 112.402C94.3109 111.903 94.7756 111.248 95.0772 110.435C95.3788 109.623 95.5296 108.742 95.5296 107.794C95.5296 106.847 95.3788 105.963 95.0772 105.145C94.7756 104.326 94.3109 103.664 93.683 103.16C93.0552 102.655 92.255 102.402 91.2825 102.402C90.3099 102.402 89.5097 102.655 88.8819 103.16C88.2541 103.664 87.7893 104.326 87.4877 105.145C87.1861 105.963 87.0353 106.847 87.0353 107.794C87.0353 108.742 87.1861 109.623 87.4877 110.435C87.7893 111.248 88.2541 111.903 88.8819 112.402C89.5097 112.9 90.3099 113.15 91.2825 113.15ZM111.56 95.3115L112.668 96.6411C112.237 97.0596 111.739 97.352 111.173 97.5182C110.606 97.6844 109.966 97.786 109.252 97.8229C108.538 97.8598 107.744 97.8968 106.87 97.9337C105.885 97.9706 105.07 98.2107 104.423 98.6539C103.777 99.097 103.278 99.7372 102.928 100.574C102.577 101.411 102.352 102.439 102.254 103.658H102.438C102.918 102.772 103.583 102.119 104.432 101.701C105.282 101.282 106.193 101.073 107.165 101.073C108.273 101.073 109.271 101.331 110.157 101.848C111.043 102.366 111.745 103.132 112.262 104.147C112.779 105.163 113.038 106.416 113.038 107.905C113.038 109.389 112.773 110.669 112.244 111.746C111.72 112.823 110.985 113.654 110.037 114.239C109.095 114.818 107.99 115.107 106.722 115.107C105.454 115.107 104.343 114.808 103.389 114.211C102.435 113.608 101.693 112.716 101.164 111.534C100.635 110.346 100.37 108.878 100.37 107.13V105.616C100.37 102.458 100.906 100.063 101.977 98.4323C103.054 96.8011 104.673 95.9578 106.833 95.9024C107.596 95.8778 108.276 95.8717 108.874 95.884C109.471 95.8963 109.991 95.8686 110.434 95.8009C110.877 95.7332 111.253 95.57 111.56 95.3115ZM106.722 113.15C107.578 113.15 108.313 112.934 108.929 112.503C109.551 112.072 110.028 111.466 110.36 110.684C110.692 109.897 110.859 108.97 110.859 107.905C110.859 106.871 110.689 105.991 110.351 105.265C110.018 104.538 109.541 103.984 108.92 103.603C108.298 103.221 107.553 103.03 106.685 103.03C106.051 103.03 105.482 103.138 104.977 103.353C104.473 103.569 104.042 103.886 103.685 104.304C103.328 104.723 103.051 105.234 102.854 105.837C102.663 106.44 102.561 107.13 102.549 107.905C102.549 109.493 102.921 110.764 103.666 111.718C104.411 112.673 105.43 113.15 106.722 113.15ZM118.254 105.763H122.317C123.979 105.763 125.25 106.185 126.13 107.028C127.01 107.871 127.45 108.939 127.45 110.232C127.45 111.081 127.253 111.854 126.859 112.549C126.465 113.239 125.887 113.79 125.124 114.202C124.36 114.608 123.425 114.812 122.317 114.812H116.371V100.63H118.55V112.78H122.317C123.178 112.78 123.886 112.553 124.44 112.097C124.994 111.642 125.271 111.057 125.271 110.343C125.271 109.592 124.994 108.979 124.44 108.505C123.886 108.031 123.178 107.794 122.317 107.794H118.254V105.763ZM129.703 114.812V100.63H131.882V114.812H129.703ZM143.183 114.812V100.63H145.362V106.797H146.803L151.899 100.63H154.706L148.982 107.462L154.78 114.812H151.973L147.32 108.829H145.362V114.812H143.183ZM159.327 111.598L166.159 100.63H168.671V114.812H166.492V103.843L159.696 114.812H157.148V100.63H159.327V111.598ZM170.732 102.661V100.63H182.255V102.661H177.601V114.812H175.422V102.661H170.732ZM61.9586 145.812V131.63H73.112V145.812H70.933V133.661H64.1376V145.812H61.9586ZM77.0914 151.13V131.63H79.1965V133.883H79.455C79.6151 133.636 79.8367 133.322 80.1198 132.941C80.4091 132.553 80.8215 132.208 81.357 131.907C81.8987 131.599 82.6312 131.445 83.5545 131.445C84.7486 131.445 85.8012 131.744 86.7121 132.341C87.6231 132.938 88.3341 133.784 88.845 134.88C89.3559 135.975 89.6113 137.268 89.6113 138.758C89.6113 140.259 89.3559 141.561 88.845 142.663C88.3341 143.759 87.6262 144.608 86.7214 145.211C85.8166 145.808 84.7732 146.107 83.5914 146.107C82.6804 146.107 81.951 145.956 81.4032 145.655C80.8554 145.347 80.4337 144.999 80.1383 144.611C79.8428 144.217 79.6151 143.891 79.455 143.633H79.2704V151.13H77.0914ZM79.2335 138.721C79.2335 139.792 79.3904 140.736 79.7043 141.555C80.0183 142.368 80.4768 143.005 81.08 143.466C81.6833 143.922 82.4219 144.15 83.296 144.15C84.2069 144.15 84.9671 143.91 85.5765 143.429C86.192 142.943 86.6537 142.291 86.9614 141.472C87.2754 140.647 87.4323 139.73 87.4323 138.721C87.4323 137.723 87.2784 136.825 86.9707 136.025C86.6691 135.218 86.2105 134.581 85.595 134.113C84.9856 133.639 84.2193 133.402 83.296 133.402C82.4096 133.402 81.6648 133.627 81.0616 134.076C80.4584 134.52 80.0029 135.141 79.6951 135.941C79.3873 136.736 79.2335 137.662 79.2335 138.721ZM98.6965 146.107C97.4162 146.107 96.2929 145.802 95.3265 145.193C94.3663 144.584 93.6153 143.731 93.0737 142.635C92.5381 141.54 92.2704 140.259 92.2704 138.794C92.2704 137.317 92.5381 136.028 93.0737 134.926C93.6153 133.824 94.3663 132.968 95.3265 132.359C96.2929 131.75 97.4162 131.445 98.6965 131.445C99.9768 131.445 101.097 131.75 102.057 132.359C103.024 132.968 103.775 133.824 104.31 134.926C104.852 136.028 105.123 137.317 105.123 138.794C105.123 140.259 104.852 141.54 104.31 142.635C103.775 143.731 103.024 144.584 102.057 145.193C101.097 145.802 99.9768 146.107 98.6965 146.107ZM98.6965 144.15C99.6691 144.15 100.469 143.9 101.097 143.402C101.725 142.903 102.19 142.248 102.491 141.435C102.793 140.623 102.944 139.742 102.944 138.794C102.944 137.847 102.793 136.963 102.491 136.145C102.19 135.326 101.725 134.664 101.097 134.16C100.469 133.655 99.6691 133.402 98.6965 133.402C97.724 133.402 96.9238 133.655 96.296 134.16C95.6681 134.664 95.2034 135.326 94.9018 136.145C94.6002 136.963 94.4494 137.847 94.4494 138.794C94.4494 139.742 94.6002 140.623 94.9018 141.435C95.2034 142.248 95.6681 142.903 96.296 143.402C96.9238 143.9 97.724 144.15 98.6965 144.15ZM107.193 145.812V143.78H107.71C108.135 143.78 108.489 143.697 108.772 143.531C109.055 143.359 109.283 143.06 109.455 142.635C109.634 142.205 109.769 141.607 109.861 140.844C109.96 140.075 110.031 139.096 110.074 137.908L110.332 131.63H119.787V145.812H117.608V133.661H112.401L112.179 138.721C112.13 139.884 112.025 140.909 111.865 141.795C111.711 142.675 111.474 143.414 111.154 144.011C110.84 144.608 110.422 145.057 109.898 145.359C109.375 145.661 108.72 145.812 107.932 145.812H107.193ZM129.731 146.107C128.364 146.107 127.186 145.805 126.195 145.202C125.21 144.593 124.45 143.743 123.914 142.654C123.385 141.558 123.12 140.284 123.12 138.831C123.12 137.379 123.385 136.098 123.914 134.991C124.45 133.876 125.194 133.008 126.148 132.387C127.109 131.759 128.229 131.445 129.509 131.445C130.248 131.445 130.977 131.568 131.697 131.814C132.418 132.061 133.073 132.461 133.664 133.015C134.255 133.562 134.726 134.289 135.077 135.194C135.428 136.098 135.603 137.213 135.603 138.536V139.459H124.671V137.576H133.387C133.387 136.776 133.227 136.062 132.907 135.434C132.593 134.806 132.144 134.31 131.559 133.947C130.98 133.584 130.297 133.402 129.509 133.402C128.641 133.402 127.89 133.618 127.256 134.049C126.629 134.473 126.145 135.027 125.807 135.711C125.468 136.394 125.299 137.126 125.299 137.908V139.164C125.299 140.235 125.484 141.143 125.853 141.888C126.228 142.626 126.749 143.189 127.413 143.577C128.078 143.959 128.851 144.15 129.731 144.15C130.303 144.15 130.82 144.07 131.282 143.91C131.75 143.743 132.153 143.497 132.491 143.171C132.83 142.839 133.092 142.426 133.276 141.934L135.381 142.525C135.16 143.239 134.787 143.866 134.264 144.408C133.741 144.944 133.095 145.362 132.325 145.664C131.556 145.959 130.691 146.107 129.731 146.107ZM137.597 133.661V131.63H149.12V133.661H144.467V145.812H142.288V133.661H137.597ZM157.508 146.107C156.142 146.107 154.963 145.805 153.972 145.202C152.987 144.593 152.227 143.743 151.691 142.654C151.162 141.558 150.897 140.284 150.897 138.831C150.897 137.379 151.162 136.098 151.691 134.991C152.227 133.876 152.972 133.008 153.926 132.387C154.886 131.759 156.006 131.445 157.287 131.445C158.025 131.445 158.755 131.568 159.475 131.814C160.195 132.061 160.85 132.461 161.441 133.015C162.032 133.562 162.503 134.289 162.854 135.194C163.205 136.098 163.38 137.213 163.38 138.536V139.459H152.448V137.576H161.164C161.164 136.776 161.004 136.062 160.684 135.434C160.37 134.806 159.921 134.31 159.336 133.947C158.758 133.584 158.074 133.402 157.287 133.402C156.419 133.402 155.668 133.618 155.034 134.049C154.406 134.473 153.923 135.027 153.584 135.711C153.246 136.394 153.076 137.126 153.076 137.908V139.164C153.076 140.235 153.261 141.143 153.63 141.888C154.006 142.626 154.526 143.189 155.191 143.577C155.855 143.959 156.628 144.15 157.508 144.15C158.081 144.15 158.598 144.07 159.059 143.91C159.527 143.743 159.93 143.497 160.269 143.171C160.607 142.839 160.869 142.426 161.054 141.934L163.159 142.525C162.937 143.239 162.565 143.866 162.042 144.408C161.518 144.944 160.872 145.362 160.103 145.664C159.333 145.959 158.468 146.107 157.508 146.107ZM165.439 145.812V143.78H165.956C166.381 143.78 166.735 143.697 167.018 143.531C167.301 143.359 167.529 143.06 167.701 142.635C167.88 142.205 168.015 141.607 168.108 140.844C168.206 140.075 168.277 139.096 168.32 137.908L168.578 131.63H178.033V145.812H175.854V133.661H170.647L170.425 138.721C170.376 139.884 170.271 140.909 170.111 141.795C169.957 142.675 169.72 143.414 169.4 144.011C169.086 144.608 168.668 145.057 168.144 145.359C167.621 145.661 166.966 145.812 166.178 145.812H165.439Z" fill="white"/>
</svg>
