<svg width="233" height="181" viewBox="0 0 233 181" fill="none" xmlns="http://www.w3.org/2000/svg">
<ellipse cx="116.5" cy="88" rx="116.5" ry="88" fill="#484848"/>
<path d="M15.9462 172.948L16.9653 133.901L44.5852 146.387L15.9462 172.948Z" fill="#484848"/>
<path d="M77.8624 33.0909V52H75.5726V35.1222H66.0442V52H63.7544V33.0909H77.8624ZM87.9471 52.2955C86.6668 52.2955 85.5434 51.9908 84.5771 51.3814C83.6168 50.772 82.8659 49.9195 82.3242 48.8239C81.7887 47.7282 81.521 46.4479 81.521 44.983C81.521 43.5057 81.7887 42.2161 82.3242 41.1143C82.8659 40.0125 83.6168 39.157 84.5771 38.5476C85.5434 37.9382 86.6668 37.6335 87.9471 37.6335C89.2274 37.6335 90.3477 37.9382 91.3079 38.5476C92.2743 39.157 93.0252 40.0125 93.5607 41.1143C94.1024 42.2161 94.3732 43.5057 94.3732 44.983C94.3732 46.4479 94.1024 47.7282 93.5607 48.8239C93.0252 49.9195 92.2743 50.772 91.3079 51.3814C90.3477 51.9908 89.2274 52.2955 87.9471 52.2955ZM87.9471 50.3381C88.9196 50.3381 89.7198 50.0888 90.3477 49.5902C90.9755 49.0916 91.4402 48.4361 91.7418 47.6236C92.0434 46.8111 92.1942 45.9309 92.1942 44.983C92.1942 44.035 92.0434 43.1518 91.7418 42.3331C91.4402 41.5144 90.9755 40.8527 90.3477 40.348C89.7198 39.8433 88.9196 39.5909 87.9471 39.5909C86.9746 39.5909 86.1744 39.8433 85.5465 40.348C84.9187 40.8527 84.454 41.5144 84.1523 42.3331C83.8507 43.1518 83.6999 44.035 83.6999 44.983C83.6999 45.9309 83.8507 46.8111 84.1523 47.6236C84.454 48.4361 84.9187 49.0916 85.5465 49.5902C86.1744 50.0888 86.9746 50.3381 87.9471 50.3381ZM96.1852 56.0625V49.9688H97.367C97.6563 49.6671 97.9056 49.3409 98.1149 48.9901C98.3242 48.6392 98.5057 48.2237 98.6596 47.7436C98.8197 47.2573 98.9551 46.6664 99.0659 45.9709C99.1767 45.2692 99.2752 44.4228 99.3613 43.4318L99.8414 37.8182H108.853V49.9688H111.032V56.0625H108.853V52H98.3642V56.0625H96.1852ZM99.8414 49.9688H106.674V39.8494H101.873L101.503 43.4318C101.349 44.9152 101.159 46.2109 100.931 47.3189C100.703 48.4268 100.34 49.3101 99.8414 49.9688ZM113.924 52V37.8182H119.722C121.249 37.8182 122.461 38.1629 123.36 38.8523C124.259 39.5417 124.708 40.4527 124.708 41.5852C124.708 42.447 124.453 43.1148 123.942 43.5888C123.431 44.0566 122.775 44.3736 121.975 44.5398C122.498 44.6136 123.006 44.7983 123.499 45.0938C123.997 45.3892 124.41 45.7955 124.736 46.3125C125.062 46.8234 125.225 47.4512 125.225 48.196C125.225 48.9223 125.04 49.5717 124.671 50.1442C124.302 50.7166 123.772 51.169 123.083 51.5014C122.394 51.8338 121.569 52 120.609 52H113.924ZM115.992 50.0057H120.609C121.36 50.0057 121.947 49.8272 122.372 49.4702C122.797 49.1132 123.009 48.6269 123.009 48.0114C123.009 47.2789 122.797 46.7034 122.372 46.2848C121.947 45.8601 121.36 45.6477 120.609 45.6477H115.992V50.0057ZM115.992 43.7642H119.722C120.307 43.7642 120.809 43.6842 121.227 43.5241C121.646 43.358 121.966 43.1241 122.188 42.8224C122.415 42.5147 122.529 42.1515 122.529 41.733C122.529 41.1359 122.28 40.6681 121.781 40.3295C121.283 39.9848 120.596 39.8125 119.722 39.8125H115.992V43.7642ZM130.703 48.7869L137.535 37.8182H140.046V52H137.867V41.0312L131.072 52H128.524V37.8182H130.703V48.7869ZM153.529 43.9119V45.9432H145.699V43.9119H153.529ZM146.216 37.8182V52H144.037V37.8182H146.216ZM155.191 37.8182V52H153.012V37.8182H155.191ZM161.054 42.9517H165.116C166.778 42.9517 168.049 43.3733 168.929 44.2166C169.81 45.0599 170.25 46.1278 170.25 47.4205C170.25 48.2699 170.053 49.0424 169.659 49.7379C169.265 50.4273 168.686 50.9782 167.923 51.3906C167.16 51.7969 166.224 52 165.116 52H159.17V37.8182H161.349V49.9688H165.116C165.978 49.9688 166.686 49.741 167.24 49.2855C167.794 48.83 168.071 48.2453 168.071 47.5312C168.071 46.7803 167.794 46.1679 167.24 45.6939C166.686 45.2199 165.978 44.983 165.116 44.983H161.054V42.9517ZM57.0617 83V68.8182H68.2151V83H66.0361V70.8494H59.2407V83H57.0617ZM70.9388 83V80.9688H71.4559C71.8806 80.9688 72.2345 80.8857 72.5177 80.7195C72.8008 80.5471 73.0286 80.2486 73.2009 79.8239C73.3794 79.393 73.5148 78.7959 73.6072 78.0327C73.7056 77.2633 73.7764 76.2846 73.8195 75.0966L74.078 68.8182H83.5326V83H81.3536V70.8494H76.1462L75.9246 75.9091C75.8754 77.0724 75.7707 78.0973 75.6107 78.9837C75.4568 79.8639 75.2198 80.6025 74.8998 81.1996C74.5858 81.7966 74.1673 82.246 73.6441 82.5476C73.1209 82.8492 72.4653 83 71.6775 83H70.9388ZM91.7037 83.3324C90.8051 83.3324 89.9895 83.1631 89.257 82.8246C88.5245 82.4799 87.9429 81.9844 87.512 81.3381C87.0811 80.6856 86.8657 79.8977 86.8657 78.9744C86.8657 78.1619 87.0257 77.5033 87.3458 76.9986C87.6659 76.4877 88.0937 76.0876 88.6292 75.7983C89.1647 75.509 89.7556 75.2936 90.4019 75.152C91.0544 75.0043 91.7099 74.8873 92.3685 74.8011C93.2303 74.6903 93.9289 74.6072 94.4644 74.5518C95.0061 74.4903 95.4 74.3887 95.6462 74.2472C95.8986 74.1056 96.0248 73.8594 96.0248 73.5085V73.4347C96.0248 72.5237 95.7755 71.8158 95.2769 71.3111C94.7845 70.8063 94.0366 70.554 93.0333 70.554C91.993 70.554 91.1775 70.7817 90.5866 71.2372C89.9956 71.6927 89.5802 72.179 89.3401 72.696L87.2719 71.9574C87.6412 71.0956 88.1337 70.4247 88.7492 69.9446C89.3709 69.4583 90.048 69.1198 90.7805 68.929C91.5191 68.732 92.2454 68.6335 92.9594 68.6335C93.4149 68.6335 93.9381 68.6889 94.529 68.7997C95.1261 68.9044 95.7016 69.1229 96.2556 69.4553C96.8157 69.7876 97.2805 70.2893 97.6498 70.9602C98.0191 71.6312 98.2037 72.5298 98.2037 73.6562V83H96.0248V81.0795H95.914C95.7662 81.3873 95.52 81.7166 95.1753 82.0675C94.8306 82.4183 94.3721 82.7169 93.7996 82.9631C93.2272 83.2093 92.5286 83.3324 91.7037 83.3324ZM92.0361 81.375C92.8979 81.375 93.6242 81.2057 94.2151 80.8672C94.8122 80.5286 95.2615 80.0916 95.5631 79.5561C95.8709 79.0206 96.0248 78.4574 96.0248 77.8665V75.8722C95.9324 75.983 95.7293 76.0845 95.4154 76.1768C95.1076 76.263 94.7506 76.34 94.3444 76.4077C93.9443 76.4692 93.5534 76.5246 93.1718 76.5739C92.7963 76.617 92.4916 76.6539 92.2577 76.6847C91.6914 76.7585 91.1621 76.8786 90.6697 77.0447C90.1834 77.2048 89.7894 77.4479 89.4878 77.7741C89.1924 78.0942 89.0447 78.5312 89.0447 79.0852C89.0447 79.8423 89.3247 80.4148 89.8849 80.8026C90.4511 81.1842 91.1682 81.375 92.0361 81.375ZM111.672 74.9119V76.9432H103.843V74.9119H111.672ZM104.36 68.8182V83H102.181V68.8182H104.36ZM113.334 68.8182V83H111.155V68.8182H113.334ZM123.26 83.2955C121.893 83.2955 120.714 82.9938 119.723 82.3906C118.739 81.7812 117.978 80.9318 117.443 79.8423C116.914 78.7467 116.649 77.4725 116.649 76.0199C116.649 74.5672 116.914 73.2869 117.443 72.179C117.978 71.0649 118.723 70.197 119.677 69.5753C120.638 68.9474 121.758 68.6335 123.038 68.6335C123.777 68.6335 124.506 68.7566 125.226 69.0028C125.946 69.2491 126.602 69.6491 127.193 70.2031C127.784 70.7509 128.255 71.4773 128.606 72.3821C128.956 73.2869 129.132 74.401 129.132 75.7244V76.6477H118.2V74.7642H126.916C126.916 73.964 126.756 73.25 126.436 72.6222C126.122 71.9943 125.673 71.4988 125.088 71.1357C124.509 70.7725 123.826 70.5909 123.038 70.5909C122.17 70.5909 121.419 70.8063 120.785 71.2372C120.157 71.6619 119.674 72.2159 119.336 72.8991C118.997 73.5824 118.828 74.3149 118.828 75.0966V76.3523C118.828 77.4233 119.013 78.3312 119.382 79.076C119.757 79.8146 120.277 80.3778 120.942 80.7656C121.607 81.1473 122.379 81.3381 123.26 81.3381C123.832 81.3381 124.349 81.258 124.811 81.098C125.279 80.9318 125.682 80.6856 126.02 80.3594C126.359 80.027 126.62 79.6146 126.805 79.1222L128.91 79.7131C128.689 80.4271 128.316 81.0549 127.793 81.5966C127.27 82.1321 126.624 82.5507 125.854 82.8523C125.085 83.1477 124.22 83.2955 123.26 83.2955ZM131.126 70.8494V68.8182H142.649V70.8494H137.995V83H135.816V70.8494H131.126ZM147.711 73.9517H151.773C153.435 73.9517 154.706 74.3733 155.587 75.2166C156.467 76.0599 156.907 77.1278 156.907 78.4205C156.907 79.2699 156.71 80.0424 156.316 80.7379C155.922 81.4273 155.343 81.9782 154.58 82.3906C153.817 82.7969 152.881 83 151.773 83H145.827V68.8182H148.006V80.9688H151.773C152.635 80.9688 153.343 80.741 153.897 80.2855C154.451 79.83 154.728 79.2453 154.728 78.5312C154.728 77.7803 154.451 77.1679 153.897 76.6939C153.343 76.2199 152.635 75.983 151.773 75.983H147.711V73.9517ZM159.16 83V68.8182H161.339V83H159.16ZM168.577 80.4148L168.43 81.4119C168.325 82.1136 168.165 82.8646 167.949 83.6648C167.74 84.465 167.522 85.219 167.294 85.9268C167.066 86.6347 166.878 87.1979 166.731 87.6165H165.069C165.149 87.2225 165.253 86.7024 165.383 86.0561C165.512 85.4098 165.641 84.6866 165.771 83.8864C165.906 83.0923 166.017 82.2798 166.103 81.4489L166.214 80.4148H168.577ZM65.9877 99.8182V114H63.8087V99.8182H65.9877ZM65.1382 106.577V108.608C64.6458 108.793 64.1565 108.956 63.6702 109.097C63.1839 109.233 62.673 109.34 62.1375 109.42C61.602 109.494 61.0142 109.531 60.374 109.531C58.7675 109.531 57.478 109.097 56.5054 108.229C55.539 107.362 55.0558 106.06 55.0558 104.324V99.7812H57.2348V104.324C57.2348 105.05 57.3733 105.647 57.6503 106.115C57.9273 106.583 58.3028 106.931 58.7767 107.158C59.2507 107.386 59.7831 107.5 60.374 107.5C61.2973 107.5 62.1314 107.417 62.8762 107.251C63.6271 107.078 64.3811 106.854 65.1382 106.577ZM68.0558 101.849V99.8182H79.5786V101.849H74.9252V114H72.7462V101.849H68.0558ZM87.782 114.295C86.5017 114.295 85.3784 113.991 84.412 113.381C83.4518 112.772 82.7008 111.92 82.1592 110.824C81.6237 109.728 81.3559 108.448 81.3559 106.983C81.3559 105.506 81.6237 104.216 82.1592 103.114C82.7008 102.013 83.4518 101.157 84.412 100.548C85.3784 99.9382 86.5017 99.6335 87.782 99.6335C89.0624 99.6335 90.1826 99.9382 91.1428 100.548C92.1092 101.157 92.8602 102.013 93.3957 103.114C93.9374 104.216 94.2082 105.506 94.2082 106.983C94.2082 108.448 93.9374 109.728 93.3957 110.824C92.8602 111.92 92.1092 112.772 91.1428 113.381C90.1826 113.991 89.0624 114.295 87.782 114.295ZM87.782 112.338C88.7546 112.338 89.5548 112.089 90.1826 111.59C90.8105 111.092 91.2752 110.436 91.5768 109.624C91.8784 108.811 92.0292 107.931 92.0292 106.983C92.0292 106.035 91.8784 105.152 91.5768 104.333C91.2752 103.514 90.8105 102.853 90.1826 102.348C89.5548 101.843 88.7546 101.591 87.782 101.591C86.8095 101.591 86.0093 101.843 85.3815 102.348C84.7536 102.853 84.2889 103.514 83.9873 104.333C83.6857 105.152 83.5349 106.035 83.5349 106.983C83.5349 107.931 83.6857 108.811 83.9873 109.624C84.2889 110.436 84.7536 111.092 85.3815 111.59C86.0093 112.089 86.8095 112.338 87.782 112.338ZM108.06 94.5L109.168 95.8295C108.737 96.2481 108.238 96.5405 107.672 96.7067C107.106 96.8729 106.466 96.9744 105.752 97.0114C105.038 97.0483 104.244 97.0852 103.37 97.1222C102.385 97.1591 101.569 97.3991 100.923 97.8423C100.277 98.2855 99.778 98.9257 99.4271 99.7628C99.0763 100.6 98.8516 101.628 98.7531 102.847H98.9378C99.4179 101.96 100.083 101.308 100.932 100.889C101.782 100.471 102.693 100.261 103.665 100.261C104.773 100.261 105.77 100.52 106.657 101.037C107.543 101.554 108.245 102.32 108.762 103.336C109.279 104.352 109.537 105.604 109.537 107.094C109.537 108.577 109.273 109.857 108.743 110.935C108.22 112.012 107.484 112.843 106.536 113.428C105.595 114.006 104.49 114.295 103.222 114.295C101.954 114.295 100.843 113.997 99.8888 113.4C98.9347 112.797 98.193 111.904 97.6636 110.722C97.1343 109.534 96.8696 108.066 96.8696 106.318V104.804C96.8696 101.646 97.4051 99.2519 98.4761 97.6207C99.5533 95.9896 101.172 95.1463 103.333 95.0909C104.096 95.0663 104.776 95.0601 105.373 95.0724C105.97 95.0848 106.49 95.0571 106.934 94.9893C107.377 94.9216 107.752 94.7585 108.06 94.5ZM103.222 112.338C104.077 112.338 104.813 112.123 105.429 111.692C106.05 111.261 106.527 110.655 106.86 109.873C107.192 109.085 107.358 108.159 107.358 107.094C107.358 106.06 107.189 105.179 106.85 104.453C106.518 103.727 106.041 103.173 105.419 102.791C104.798 102.41 104.053 102.219 103.185 102.219C102.551 102.219 101.982 102.326 101.477 102.542C100.972 102.757 100.541 103.074 100.184 103.493C99.8272 103.911 99.5502 104.422 99.3532 105.026C99.1624 105.629 99.0609 106.318 99.0486 107.094C99.0486 108.682 99.421 109.953 100.166 110.907C100.911 111.861 101.929 112.338 103.222 112.338ZM114.754 104.952H118.816C120.478 104.952 121.749 105.373 122.63 106.217C123.51 107.06 123.95 108.128 123.95 109.42C123.95 110.27 123.753 111.042 123.359 111.738C122.965 112.427 122.386 112.978 121.623 113.391C120.86 113.797 119.924 114 118.816 114H112.87V99.8182H115.049V111.969H118.816C119.678 111.969 120.386 111.741 120.94 111.286C121.494 110.83 121.771 110.245 121.771 109.531C121.771 108.78 121.494 108.168 120.94 107.694C120.386 107.22 119.678 106.983 118.816 106.983H114.754V104.952ZM126.203 114V99.8182H128.382V114H126.203ZM139.683 114V99.8182H141.862V105.986H143.302L148.399 99.8182H151.206L145.481 106.651L151.279 114H148.473L143.819 108.017H141.862V114H139.683ZM155.827 110.787L162.659 99.8182H165.17V114H162.991V103.031L156.196 114H153.648V99.8182H155.827V110.787ZM167.232 101.849V99.8182H178.754V101.849H174.101V114H171.922V101.849H167.232ZM58.4582 145V130.818H69.6116V145H67.4326V132.849H60.6372V145H58.4582ZM73.591 150.318V130.818H75.6961V133.071H75.9546C76.1147 132.825 76.3363 132.511 76.6194 132.129C76.9087 131.741 77.3211 131.397 77.8566 131.095C78.3983 130.787 79.1308 130.634 80.0541 130.634C81.2482 130.634 82.3008 130.932 83.2117 131.529C84.1227 132.126 84.8337 132.973 85.3446 134.068C85.8554 135.164 86.1109 136.456 86.1109 137.946C86.1109 139.448 85.8554 140.75 85.3446 141.852C84.8337 142.947 84.1258 143.797 83.221 144.4C82.3161 144.997 81.2728 145.295 80.091 145.295C79.18 145.295 78.4506 145.145 77.9028 144.843C77.355 144.535 76.9333 144.187 76.6379 143.8C76.3424 143.406 76.1147 143.08 75.9546 142.821H75.77V150.318H73.591ZM75.733 137.909C75.733 138.98 75.89 139.925 76.2039 140.744C76.5178 141.556 76.9764 142.193 77.5796 142.655C78.1829 143.11 78.9215 143.338 79.7955 143.338C80.7065 143.338 81.4667 143.098 82.0761 142.618C82.6916 142.132 83.1533 141.479 83.461 140.661C83.7749 139.836 83.9319 138.919 83.9319 137.909C83.9319 136.912 83.778 136.013 83.4703 135.213C83.1686 134.407 82.7101 133.77 82.0945 133.302C81.4852 132.828 80.7188 132.591 79.7955 132.591C78.9092 132.591 78.1644 132.816 77.5612 133.265C76.9579 133.708 76.5025 134.33 76.1947 135.13C75.8869 135.924 75.733 136.85 75.733 137.909ZM95.1961 145.295C93.9158 145.295 92.7925 144.991 91.8261 144.381C90.8659 143.772 90.1149 142.92 89.5732 141.824C89.0377 140.728 88.77 139.448 88.77 137.983C88.77 136.506 89.0377 135.216 89.5732 134.114C90.1149 133.013 90.8659 132.157 91.8261 131.548C92.7925 130.938 93.9158 130.634 95.1961 130.634C96.4764 130.634 97.5967 130.938 98.5569 131.548C99.5233 132.157 100.274 133.013 100.81 134.114C101.351 135.216 101.622 136.506 101.622 137.983C101.622 139.448 101.351 140.728 100.81 141.824C100.274 142.92 99.5233 143.772 98.5569 144.381C97.5967 144.991 96.4764 145.295 95.1961 145.295ZM95.1961 143.338C96.1686 143.338 96.9688 143.089 97.5967 142.59C98.2245 142.092 98.6892 141.436 98.9909 140.624C99.2925 139.811 99.4433 138.931 99.4433 137.983C99.4433 137.035 99.2925 136.152 98.9909 135.333C98.6892 134.514 98.2245 133.853 97.5967 133.348C96.9688 132.843 96.1686 132.591 95.1961 132.591C94.2236 132.591 93.4234 132.843 92.7955 133.348C92.1677 133.853 91.703 134.514 91.4014 135.333C91.0998 136.152 90.949 137.035 90.949 137.983C90.949 138.931 91.0998 139.811 91.4014 140.624C91.703 141.436 92.1677 142.092 92.7955 142.59C93.4234 143.089 94.2236 143.338 95.1961 143.338ZM103.693 145V142.969H104.21C104.634 142.969 104.988 142.886 105.272 142.719C105.555 142.547 105.782 142.249 105.955 141.824C106.133 141.393 106.269 140.796 106.361 140.033C106.46 139.263 106.53 138.285 106.573 137.097L106.832 130.818H116.286V145H114.108V132.849H108.9L108.679 137.909C108.629 139.072 108.525 140.097 108.365 140.984C108.211 141.864 107.974 142.603 107.654 143.2C107.34 143.797 106.921 144.246 106.398 144.548C105.875 144.849 105.219 145 104.431 145H103.693ZM126.23 145.295C124.864 145.295 123.685 144.994 122.694 144.391C121.709 143.781 120.949 142.932 120.414 141.842C119.884 140.747 119.62 139.473 119.62 138.02C119.62 136.567 119.884 135.287 120.414 134.179C120.949 133.065 121.694 132.197 122.648 131.575C123.608 130.947 124.728 130.634 126.009 130.634C126.747 130.634 127.477 130.757 128.197 131.003C128.917 131.249 129.573 131.649 130.164 132.203C130.755 132.751 131.225 133.477 131.576 134.382C131.927 135.287 132.103 136.401 132.103 137.724V138.648H121.171V136.764H129.887C129.887 135.964 129.727 135.25 129.407 134.622C129.093 133.994 128.643 133.499 128.059 133.136C127.48 132.772 126.797 132.591 126.009 132.591C125.141 132.591 124.39 132.806 123.756 133.237C123.128 133.662 122.645 134.216 122.306 134.899C121.968 135.582 121.799 136.315 121.799 137.097V138.352C121.799 139.423 121.983 140.331 122.353 141.076C122.728 141.815 123.248 142.378 123.913 142.766C124.578 143.147 125.35 143.338 126.23 143.338C126.803 143.338 127.32 143.258 127.782 143.098C128.249 142.932 128.652 142.686 128.991 142.359C129.33 142.027 129.591 141.615 129.776 141.122L131.881 141.713C131.659 142.427 131.287 143.055 130.764 143.597C130.241 144.132 129.594 144.551 128.825 144.852C128.055 145.148 127.191 145.295 126.23 145.295ZM134.097 132.849V130.818H145.62V132.849H140.966V145H138.787V132.849H134.097ZM154.008 145.295C152.641 145.295 151.463 144.994 150.472 144.391C149.487 143.781 148.726 142.932 148.191 141.842C147.662 140.747 147.397 139.473 147.397 138.02C147.397 136.567 147.662 135.287 148.191 134.179C148.726 133.065 149.471 132.197 150.425 131.575C151.386 130.947 152.506 130.634 153.786 130.634C154.525 130.634 155.254 130.757 155.974 131.003C156.695 131.249 157.35 131.649 157.941 132.203C158.532 132.751 159.003 133.477 159.354 134.382C159.704 135.287 159.88 136.401 159.88 137.724V138.648H148.948V136.764H157.664C157.664 135.964 157.504 135.25 157.184 134.622C156.87 133.994 156.421 133.499 155.836 133.136C155.257 132.772 154.574 132.591 153.786 132.591C152.918 132.591 152.167 132.806 151.533 133.237C150.905 133.662 150.422 134.216 150.084 134.899C149.745 135.582 149.576 136.315 149.576 137.097V138.352C149.576 139.423 149.761 140.331 150.13 141.076C150.505 141.815 151.025 142.378 151.69 142.766C152.355 143.147 153.128 143.338 154.008 143.338C154.58 143.338 155.097 143.258 155.559 143.098C156.027 142.932 156.43 142.686 156.768 142.359C157.107 142.027 157.369 141.615 157.553 141.122L159.658 141.713C159.437 142.427 159.064 143.055 158.541 143.597C158.018 144.132 157.372 144.551 156.602 144.852C155.833 145.148 154.968 145.295 154.008 145.295ZM161.939 145V142.969H162.456C162.881 142.969 163.235 142.886 163.518 142.719C163.801 142.547 164.029 142.249 164.201 141.824C164.379 141.393 164.515 140.796 164.607 140.033C164.706 139.263 164.776 138.285 164.82 137.097L165.078 130.818H174.533V145H172.354V132.849H167.146L166.925 137.909C166.875 139.072 166.771 140.097 166.611 140.984C166.457 141.864 166.22 142.603 165.9 143.2C165.586 143.797 165.167 144.246 164.644 144.548C164.121 144.849 163.465 145 162.677 145H161.939Z" fill="white"/>
</svg>
