<svg width="240" height="182" viewBox="0 0 240 182" fill="none" xmlns="http://www.w3.org/2000/svg">
<ellipse cx="117.479" cy="85.6277" rx="117.479" ry="85.6277" transform="matrix(-1 0 0 1 234.958 0)" fill="#484848"/>
<path d="M223.92 172.504L222.892 121.066L195.04 137.513L223.92 172.504Z" fill="#484848"/>
<path d="M77.4347 56.0909V75H75.1449V58.1222H65.6165V75H63.3267V56.0909H77.4347ZM87.5194 75.2955C86.2391 75.2955 85.1157 74.9908 84.1493 74.3814C83.1891 73.772 82.4382 72.9195 81.8965 71.8239C81.361 70.7282 81.0932 69.4479 81.0932 67.983C81.0932 66.5057 81.361 65.2161 81.8965 64.1143C82.4382 63.0125 83.1891 62.157 84.1493 61.5476C85.1157 60.9382 86.2391 60.6335 87.5194 60.6335C88.7997 60.6335 89.9199 60.9382 90.8801 61.5476C91.8465 62.157 92.5975 63.0125 93.133 64.1143C93.6747 65.2161 93.9455 66.5057 93.9455 67.983C93.9455 69.4479 93.6747 70.7282 93.133 71.8239C92.5975 72.9195 91.8465 73.772 90.8801 74.3814C89.9199 74.9908 88.7997 75.2955 87.5194 75.2955ZM87.5194 73.3381C88.4919 73.3381 89.2921 73.0888 89.9199 72.5902C90.5478 72.0916 91.0125 71.4361 91.3141 70.6236C91.6157 69.8111 91.7665 68.9309 91.7665 67.983C91.7665 67.035 91.6157 66.1518 91.3141 65.3331C91.0125 64.5144 90.5478 63.8527 89.9199 63.348C89.2921 62.8433 88.4919 62.5909 87.5194 62.5909C86.5468 62.5909 85.7466 62.8433 85.1188 63.348C84.4909 63.8527 84.0262 64.5144 83.7246 65.3331C83.423 66.1518 83.2722 67.035 83.2722 67.983C83.2722 68.9309 83.423 69.8111 83.7246 70.6236C84.0262 71.4361 84.4909 72.0916 85.1188 72.5902C85.7466 73.0888 86.5468 73.3381 87.5194 73.3381ZM95.7575 79.0625V72.9688H96.9393C97.2286 72.6671 97.4779 72.3409 97.6871 71.9901C97.8964 71.6392 98.078 71.2237 98.2319 70.7436C98.3919 70.2573 98.5273 69.6664 98.6381 68.9709C98.7489 68.2692 98.8474 67.4228 98.9336 66.4318L99.4137 60.8182H108.425V72.9688H110.604V79.0625H108.425V75H97.9364V79.0625H95.7575ZM99.4137 72.9688H106.246V62.8494H101.445L101.076 66.4318C100.922 67.9152 100.731 69.2109 100.503 70.3189C100.275 71.4268 99.9123 72.3101 99.4137 72.9688ZM113.496 75V60.8182H119.295C120.821 60.8182 122.034 61.1629 122.932 61.8523C123.831 62.5417 124.28 63.4527 124.28 64.5852C124.28 65.447 124.025 66.1148 123.514 66.5888C123.003 67.0566 122.348 67.3736 121.547 67.5398C122.071 67.6136 122.578 67.7983 123.071 68.0938C123.569 68.3892 123.982 68.7955 124.308 69.3125C124.634 69.8234 124.797 70.4512 124.797 71.196C124.797 71.9223 124.613 72.5717 124.243 73.1442C123.874 73.7166 123.345 74.169 122.655 74.5014C121.966 74.8338 121.141 75 120.181 75H113.496ZM115.564 73.0057H120.181C120.932 73.0057 121.52 72.8272 121.944 72.4702C122.369 72.1132 122.581 71.6269 122.581 71.0114C122.581 70.2789 122.369 69.7034 121.944 69.2848C121.52 68.8601 120.932 68.6477 120.181 68.6477H115.564V73.0057ZM115.564 66.7642H119.295C119.879 66.7642 120.381 66.6842 120.8 66.5241C121.218 66.358 121.538 66.1241 121.76 65.8224C121.988 65.5147 122.101 65.1515 122.101 64.733C122.101 64.1359 121.852 63.6681 121.354 63.3295C120.855 62.9848 120.169 62.8125 119.295 62.8125H115.564V66.7642ZM130.275 71.7869L137.107 60.8182H139.619V75H137.44V64.0312L130.644 75H128.096V60.8182H130.275V71.7869ZM153.101 66.9119V68.9432H145.271V66.9119H153.101ZM145.789 60.8182V75H143.61V60.8182H145.789ZM154.763 60.8182V75H152.584V60.8182H154.763ZM160.626 65.9517H164.688C166.35 65.9517 167.621 66.3733 168.502 67.2166C169.382 68.0599 169.822 69.1278 169.822 70.4205C169.822 71.2699 169.625 72.0424 169.231 72.7379C168.837 73.4273 168.258 73.9782 167.495 74.3906C166.732 74.7969 165.796 75 164.688 75H158.742V60.8182H160.921V72.9688H164.688C165.55 72.9688 166.258 72.741 166.812 72.2855C167.366 71.83 167.643 71.2453 167.643 70.5312C167.643 69.7803 167.366 69.1679 166.812 68.6939C166.258 68.2199 165.55 67.983 164.688 67.983H160.626V65.9517ZM62.9943 106V91.8182H65.1733V97.9858H66.6136L71.7102 91.8182H74.517L68.7926 98.6506L74.5909 106H71.7841L67.1307 100.017H65.1733V106H62.9943ZM81.1325 106.332C80.2338 106.332 79.4182 106.163 78.6857 105.825C77.9532 105.48 77.3716 104.984 76.9407 104.338C76.5098 103.686 76.2944 102.898 76.2944 101.974C76.2944 101.162 76.4544 100.503 76.7745 99.9986C77.0946 99.4877 77.5224 99.0876 78.0579 98.7983C78.5934 98.509 79.1843 98.2936 79.8306 98.152C80.4831 98.0043 81.1386 97.8873 81.7972 97.8011C82.659 97.6903 83.3576 97.6072 83.8931 97.5518C84.4348 97.4903 84.8287 97.3887 85.0749 97.2472C85.3273 97.1056 85.4535 96.8594 85.4535 96.5085V96.4347C85.4535 95.5237 85.2042 94.8158 84.7056 94.3111C84.2132 93.8063 83.4653 93.554 82.462 93.554C81.4218 93.554 80.6062 93.7817 80.0153 94.2372C79.4244 94.6927 79.0089 95.179 78.7688 95.696L76.7006 94.9574C77.07 94.0956 77.5624 93.4247 78.1779 92.9446C78.7996 92.4583 79.4767 92.1198 80.2092 91.929C80.9478 91.732 81.6741 91.6335 82.3881 91.6335C82.8436 91.6335 83.3668 91.6889 83.9577 91.7997C84.5548 91.9044 85.1303 92.1229 85.6843 92.4553C86.2444 92.7876 86.7092 93.2893 87.0785 93.9602C87.4478 94.6312 87.6325 95.5298 87.6325 96.6562V106H85.4535V104.08H85.3427C85.195 104.387 84.9487 104.717 84.604 105.067C84.2594 105.418 83.8008 105.717 83.2283 105.963C82.6559 106.209 81.9573 106.332 81.1325 106.332ZM81.4648 104.375C82.3266 104.375 83.0529 104.206 83.6438 103.867C84.2409 103.529 84.6902 103.092 84.9918 102.556C85.2996 102.021 85.4535 101.457 85.4535 100.866V98.8722C85.3612 98.983 85.158 99.0845 84.8441 99.1768C84.5363 99.263 84.1793 99.34 83.7731 99.4077C83.373 99.4692 82.9821 99.5246 82.6005 99.5739C82.225 99.617 81.9203 99.6539 81.6864 99.6847C81.1201 99.7585 80.5908 99.8786 80.0984 100.045C79.6121 100.205 79.2182 100.448 78.9165 100.774C78.6211 101.094 78.4734 101.531 78.4734 102.085C78.4734 102.842 78.7534 103.415 79.3136 103.803C79.8799 104.184 80.5969 104.375 81.4648 104.375ZM99.3652 103.045L104.314 91.8182H106.382L100.252 106H98.4789L92.459 91.8182H94.4902L99.3652 103.045ZM93.7885 91.8182V106H91.6096V91.8182H93.7885ZM104.942 106V91.8182H107.121V106H104.942ZM117.056 106.295C115.689 106.295 114.51 105.994 113.519 105.391C112.535 104.781 111.774 103.932 111.239 102.842C110.709 101.747 110.445 100.473 110.445 99.0199C110.445 97.5672 110.709 96.2869 111.239 95.179C111.774 94.0649 112.519 93.197 113.473 92.5753C114.433 91.9474 115.554 91.6335 116.834 91.6335C117.573 91.6335 118.302 91.7566 119.022 92.0028C119.742 92.2491 120.398 92.6491 120.989 93.2031C121.58 93.7509 122.051 94.4773 122.401 95.3821C122.752 96.2869 122.928 97.401 122.928 98.7244V99.6477H111.996V97.7642H120.712C120.712 96.964 120.552 96.25 120.232 95.6222C119.918 94.9943 119.468 94.4988 118.884 94.1357C118.305 93.7725 117.622 93.5909 116.834 93.5909C115.966 93.5909 115.215 93.8063 114.581 94.2372C113.953 94.6619 113.47 95.2159 113.132 95.8991C112.793 96.5824 112.624 97.3149 112.624 98.0966V99.3523C112.624 100.423 112.808 101.331 113.178 102.076C113.553 102.815 114.073 103.378 114.738 103.766C115.403 104.147 116.175 104.338 117.056 104.338C117.628 104.338 118.145 104.258 118.607 104.098C119.075 103.932 119.478 103.686 119.816 103.359C120.155 103.027 120.416 102.615 120.601 102.122L122.706 102.713C122.485 103.427 122.112 104.055 121.589 104.597C121.066 105.132 120.419 105.551 119.65 105.852C118.881 106.148 118.016 106.295 117.056 106.295ZM135.734 97.9119V99.9432H127.904V97.9119H135.734ZM128.421 91.8182V106H126.242V91.8182H128.421ZM137.396 91.8182V106H135.217V91.8182H137.396ZM143.259 96.9517H147.321C148.983 96.9517 150.254 97.3733 151.134 98.2166C152.015 99.0599 152.455 100.128 152.455 101.42C152.455 102.27 152.258 103.042 151.864 103.738C151.47 104.427 150.891 104.978 150.128 105.391C149.365 105.797 148.429 106 147.321 106H141.375V91.8182H143.554V103.969H147.321C148.183 103.969 148.891 103.741 149.445 103.286C149.999 102.83 150.276 102.245 150.276 101.531C150.276 100.78 149.999 100.168 149.445 99.6939C148.891 99.2199 148.183 98.983 147.321 98.983H143.259V96.9517Z" fill="white"/>
</svg>
