<svg width="184" height="154" viewBox="0 0 184 154" fill="none" xmlns="http://www.w3.org/2000/svg">
<path d="M0.443657 176.12L38.3903 101.014C38.5847 100.63 38.9564 100.382 39.3871 100.367C65.3554 99.4642 118.97 98.2405 132.256 100.351C132.427 100.378 132.562 100.435 132.704 100.535C145.928 109.943 171.136 151.779 180.587 167.018C180.843 167.431 180.814 167.94 180.502 168.313C173.989 176.119 156.058 182.514 148.967 185.279C148.256 185.557 147.451 185.118 147.259 184.38C146.566 181.717 144.971 176.936 143.016 171.678C152.052 198.877 155.964 237.659 157.154 249.476C157.202 249.951 156.961 250.381 156.534 250.597C140.091 258.888 111.518 254.245 100.604 250.581C100.145 250.426 99.8445 250.003 99.8337 249.519C99.6473 241.156 100.411 222.083 101.024 202.684C101.052 201.813 100.155 201.205 99.326 201.474C96.7751 202.303 94.0609 202.598 92.0052 202.359C91.2156 202.268 90.4238 202.824 90.402 203.619C90.0821 215.271 89.0699 238.993 89.5766 250.574C89.6015 251.142 89.2286 251.647 88.6734 251.771C77.5866 254.238 48.7492 256.973 33.5077 254.259C32.9701 254.163 32.5867 253.691 32.5664 253.146C31.2028 216.537 34.8085 192.245 38.7982 178.122C37.6305 180.744 36.4876 183.144 35.5422 184.823C35.4076 185.062 35.1912 185.243 34.9321 185.333C22.3066 189.722 7.44182 182.349 0.787524 177.579C0.32419 177.247 0.186584 176.629 0.443657 176.12Z" fill="#D9D9D9"/>
<path d="M137.637 158.368C150.56 184.078 155.75 235.537 157.154 249.476C157.202 249.951 156.961 250.381 156.534 250.597C140.091 258.888 111.518 254.245 100.604 250.581C100.145 250.426 99.8445 250.003 99.8337 249.519C99.6473 241.156 100.411 222.083 101.024 202.684C101.052 201.813 100.155 201.205 99.326 201.474C96.7751 202.303 94.0609 202.598 92.0052 202.359C91.2156 202.268 90.4238 202.824 90.402 203.619C90.0821 215.271 89.0699 238.993 89.5766 250.574C89.6015 251.142 89.2286 251.647 88.6734 251.771C77.5866 254.238 48.7492 256.973 33.5077 254.259C32.9701 254.163 32.5867 253.691 32.5664 253.146C31.0033 211.179 35.9702 185.398 40.5601 172.568C41.027 171.263 41.6042 171.555 41.0707 172.835C39.2085 177.3 37.1054 182.047 35.5422 184.823C35.4076 185.062 35.1912 185.243 34.9321 185.333C22.3066 189.722 7.44182 182.349 0.787524 177.579C0.32419 177.247 0.186584 176.629 0.443657 176.12L38.3903 101.014C38.5847 100.63 38.9564 100.382 39.3872 100.367C65.3554 99.4642 118.97 98.2405 132.256 100.351C132.427 100.378 132.562 100.435 132.704 100.535C145.928 109.943 171.136 151.779 180.587 167.018C180.843 167.431 180.814 167.94 180.502 168.313C173.989 176.119 156.058 182.514 148.967 185.279C148.256 185.557 147.451 185.118 147.259 184.38C145.983 179.475 141.647 167.39 137.637 158.368Z" stroke="black" stroke-width="4.72791"/>
<circle cx="84.8002" cy="62.9691" r="57.0593" fill="#D9D9D9" stroke="black" stroke-width="4.72791"/>
<circle cx="97.4106" cy="46.5849" r="44.2209" fill="#313131" stroke="black" stroke-width="4.72791"/>
<path d="M117.376 31.151C115.084 28.2045 118.331 24.1939 120.241 22.5569C126.379 18.8738 134.974 34.8343 136.61 40.9728C139.475 48.7485 129.244 60.6166 128.016 47.1116C126.789 37.699 120.241 33.6065 117.376 31.151Z" fill="white" stroke="black" stroke-width="4.72791"/>
</svg>
