<svg width="498" height="366" viewBox="0 0 498 366" fill="none" xmlns="http://www.w3.org/2000/svg">
<path d="M2.37535 263.297L51.0377 166.982C51.2021 166.656 51.5148 166.447 51.8792 166.434C84.9145 165.281 153.782 163.701 170.577 166.421C170.722 166.444 170.834 166.491 170.954 166.576C187.859 178.495 220.301 232.417 232.217 251.616C232.434 251.966 232.408 252.387 232.15 252.708C223.86 263.003 199.807 271.41 191.157 274.825C190.556 275.062 189.891 274.691 189.74 274.063C188.961 270.831 186.829 264.391 184.178 257.263C195.699 291.939 200.68 341.393 202.192 356.401L202.222 356.7C202.263 357.102 202.058 357.453 201.699 357.639C180.636 368.497 143.537 362.366 129.824 357.66C129.436 357.527 129.19 357.182 129.18 356.772C128.909 346.198 129.919 321.219 130.714 295.954C130.737 295.217 129.979 294.705 129.286 294.956C125.539 296.314 121.395 296.745 118.522 296.248C117.859 296.134 117.193 296.605 117.175 297.277C116.786 312 115.425 343.378 116.125 358.189C116.148 358.669 115.845 359.084 115.376 359.192C101.484 362.381 63.7935 365.997 44.2912 362.386C43.837 362.302 43.5168 361.903 43.4993 361.441C41.7208 314.583 46.3256 283.513 51.4224 265.471C49.8976 268.896 48.4058 272.023 47.1843 274.168C47.0694 274.369 46.888 274.518 46.6693 274.596C30.3318 280.392 10.9944 270.619 2.66392 264.535C2.27445 264.25 2.15786 263.727 2.37535 263.297Z" fill="#D9D9D9"/>
<path d="M177.327 240.308C193.893 273.269 200.484 339.451 202.222 356.7C202.263 357.102 202.058 357.453 201.699 357.639C180.636 368.497 143.537 362.366 129.824 357.66C129.436 357.527 129.19 357.182 129.18 356.772C128.909 346.198 129.919 321.219 130.714 295.954C130.737 295.217 129.979 294.705 129.286 294.956C125.539 296.314 121.395 296.745 118.522 296.248C117.859 296.134 117.193 296.605 117.175 297.277C116.786 312 115.425 343.378 116.125 358.189C116.148 358.669 115.845 359.084 115.376 359.192C101.484 362.381 63.7935 365.997 44.2912 362.386C43.837 362.302 43.5168 361.903 43.4993 361.441C41.2958 303.386 48.8908 269.565 55.0802 254.731C55.5318 253.649 56.2539 254.015 55.8127 255.101C53.111 261.754 49.6133 269.902 47.1843 274.168C47.0694 274.369 46.888 274.518 46.6693 274.596C30.3318 280.392 10.9944 270.619 2.66392 264.535C2.27445 264.25 2.15786 263.727 2.37535 263.297L51.0377 166.982C51.2021 166.656 51.5148 166.447 51.8792 166.434C84.9145 165.281 153.782 163.701 170.577 166.421C170.722 166.444 170.834 166.491 170.954 166.576C187.859 178.495 220.301 232.417 232.217 251.616C232.434 251.966 232.408 252.387 232.15 252.708C223.86 263.003 199.807 271.41 191.157 274.825C190.556 275.062 189.891 274.691 189.74 274.063C188.345 268.275 182.613 252.201 177.327 240.308Z" stroke="black" stroke-width="4"/>
<circle cx="110.02" cy="118.787" r="73.6953" fill="#D9D9D9" stroke="black" stroke-width="4"/>
<circle cx="129.044" cy="103.004" r="57.3414" fill="#313131" stroke="black" stroke-width="4"/>
<path d="M154.481 83.3422C151.562 79.5887 155.698 74.4799 158.13 72.3947C165.95 67.703 176.897 88.034 178.983 95.8535C182.632 105.758 169.599 120.876 168.035 103.673C166.471 91.6831 158.13 86.47 154.481 83.3422Z" fill="white" stroke="black" stroke-width="4"/>
<path d="M265.811 224.722L314.474 128.407C314.638 128.081 314.951 127.872 315.315 127.859C348.351 126.706 417.218 125.126 434.013 127.845C434.158 127.869 434.27 127.916 434.39 128.001C451.295 139.92 483.737 193.842 495.653 213.041C495.87 213.391 495.844 213.812 495.586 214.133C487.296 224.428 463.243 232.835 454.593 236.249C453.992 236.486 453.327 236.116 453.176 235.488C452.397 232.256 450.265 225.816 447.614 218.688C459.135 253.364 464.117 302.818 465.628 317.826L465.658 318.125C465.699 318.527 465.494 318.878 465.135 319.063C444.073 329.921 406.973 323.791 393.26 319.085C392.872 318.952 392.626 318.607 392.616 318.197C392.345 307.623 393.355 282.643 394.15 257.379C394.173 256.642 393.415 256.13 392.722 256.381C388.975 257.739 384.831 258.169 381.958 257.673C381.295 257.558 380.629 258.03 380.611 258.702C380.222 273.425 378.861 304.803 379.561 319.614C379.584 320.094 379.281 320.509 378.812 320.617C364.92 323.806 327.23 327.422 307.727 323.81C307.273 323.726 306.953 323.328 306.935 322.866C305.157 276.008 309.762 244.937 314.858 226.896C313.334 230.32 311.842 233.447 310.62 235.592C310.505 235.794 310.324 235.943 310.105 236.021C293.768 241.816 274.43 232.044 266.1 225.959C265.71 225.675 265.594 225.152 265.811 224.722Z" fill="#D9D9D9"/>
<path d="M440.763 201.733C457.33 234.693 463.92 300.876 465.658 318.125C465.699 318.527 465.494 318.878 465.135 319.063C444.073 329.921 406.973 323.791 393.26 319.085C392.872 318.952 392.626 318.607 392.616 318.197C392.345 307.623 393.355 282.643 394.15 257.379C394.173 256.642 393.415 256.13 392.722 256.381C388.975 257.739 384.831 258.169 381.958 257.673C381.295 257.558 380.629 258.03 380.611 258.702C380.222 273.425 378.861 304.803 379.561 319.614C379.584 320.094 379.281 320.509 378.812 320.617C364.92 323.806 327.23 327.422 307.727 323.81C307.273 323.726 306.953 323.328 306.935 322.866C304.732 264.811 312.327 230.99 318.516 216.156C318.968 215.074 319.69 215.439 319.249 216.526C316.547 223.179 313.049 231.327 310.62 235.592C310.505 235.794 310.324 235.943 310.105 236.021C293.768 241.816 274.43 232.044 266.1 225.959C265.71 225.675 265.594 225.152 265.811 224.722L314.474 128.407C314.638 128.081 314.951 127.872 315.315 127.859C348.351 126.706 417.218 125.126 434.013 127.845C434.158 127.869 434.27 127.916 434.39 128.001C451.295 139.92 483.737 193.842 495.653 213.041C495.87 213.391 495.844 213.812 495.586 214.133C487.296 224.428 463.243 232.835 454.593 236.249C453.992 236.486 453.327 236.116 453.176 235.488C451.781 229.7 446.049 213.626 440.763 201.733Z" stroke="black" stroke-width="4"/>
<circle cx="373.455" cy="80.2119" r="73.6953" fill="#D9D9D9" stroke="black" stroke-width="4"/>
<circle cx="389.52" cy="59.3414" r="57.3414" fill="#313131" stroke="black" stroke-width="4"/>
<path d="M414.955 39.682C412.035 35.9286 416.171 30.8198 418.604 28.7345C426.423 24.0429 437.371 44.3738 439.456 52.1934C443.105 62.0982 430.073 77.2163 428.509 60.0131C426.945 48.023 418.604 42.8099 414.955 39.682Z" fill="white" stroke="black" stroke-width="4"/>
</svg>
