<svg width="332" height="244" viewBox="0 0 332 244" fill="none" xmlns="http://www.w3.org/2000/svg">
<path d="M2.40954 174.626L34.5139 111.083C34.6784 110.758 34.9929 110.548 35.3573 110.535C57.3275 109.772 102.687 108.736 113.928 110.522C114.073 110.545 114.187 110.593 114.307 110.678C125.495 118.637 146.822 154.032 154.818 166.925C155.035 167.275 155.01 167.705 154.746 168.021C149.236 174.625 134.066 180.035 128.066 182.375C127.465 182.609 126.784 182.238 126.621 181.614C126.035 179.361 124.685 175.316 123.031 170.868C130.677 193.879 133.986 226.69 134.993 236.688C135.034 237.09 134.829 237.454 134.468 237.636C120.557 244.651 96.3826 240.723 87.1493 237.622C86.7606 237.492 86.5067 237.134 86.4975 236.724C86.3398 229.649 86.9858 213.512 87.5049 197.1C87.5282 196.363 86.769 195.848 86.068 196.076C83.9098 196.778 81.6135 197.027 79.8743 196.825C79.2063 196.747 78.5364 197.219 78.518 197.891C78.2473 207.749 77.3909 227.819 77.8196 237.617C77.8407 238.097 77.5252 238.524 77.0555 238.629C67.6756 240.717 43.278 243.03 30.3831 240.734C29.9283 240.653 29.6039 240.254 29.5867 239.792C28.433 208.82 31.4836 188.268 34.859 176.319C33.8711 178.538 32.9042 180.568 32.1043 181.989C31.9905 182.191 31.8074 182.344 31.5882 182.42C20.9064 186.133 8.33026 179.896 2.70046 175.86C2.30846 175.579 2.19204 175.056 2.40954 174.626Z" fill="#D9D9D9" stroke="black" stroke-width="4"/>
<circle cx="73.7774" cy="78.8961" r="48.2745" fill="#D9D9D9" stroke="black" stroke-width="4"/>
<circle cx="86.4127" cy="68.4127" r="37.4127" fill="#313131" stroke="black" stroke-width="4"/>
<path d="M103.308 55.3548C101.369 52.8619 104.115 49.4688 105.731 48.0838C110.925 44.9678 118.196 58.4709 119.581 63.6644C122.004 70.2429 113.348 80.2839 112.31 68.858C111.271 60.8946 105.731 57.4322 103.308 55.3548Z" fill="white" stroke="black" stroke-width="4"/>
<path d="M177.375 149.004L209.48 85.4615C209.644 85.1361 209.959 84.9264 210.323 84.9137C232.293 84.1501 277.653 83.1149 288.894 84.9005C289.039 84.9235 289.153 84.9711 289.273 85.0563C300.461 93.0158 321.788 128.41 329.784 141.303C330.001 141.653 329.976 142.083 329.712 142.399C324.202 149.004 309.031 154.413 303.032 156.753C302.43 156.988 301.75 156.617 301.587 155.992C301.001 153.739 299.651 149.694 297.997 145.246C305.642 168.258 308.952 201.069 309.959 211.066C309.999 211.468 309.795 211.832 309.434 212.014C295.523 219.03 271.348 215.101 262.115 212.001C261.726 211.87 261.473 211.512 261.463 211.102C261.306 204.027 261.952 187.891 262.471 171.478C262.494 170.741 261.735 170.227 261.034 170.455C258.876 171.156 256.579 171.406 254.84 171.204C254.172 171.126 253.502 171.597 253.484 172.269C253.213 182.127 252.357 202.197 252.785 211.995C252.806 212.476 252.491 212.903 252.021 213.007C242.641 215.095 218.244 217.409 205.349 215.113C204.894 215.032 204.57 214.633 204.552 214.171C203.399 183.198 206.449 162.646 209.825 150.698C208.837 152.916 207.87 154.947 207.07 156.368C206.956 156.57 206.773 156.722 206.554 156.798C195.872 160.512 183.296 154.274 177.666 150.239C177.274 149.958 177.158 149.435 177.375 149.004Z" fill="#D9D9D9" stroke="black" stroke-width="4"/>
<circle cx="248.743" cy="53.2745" r="48.2745" fill="#D9D9D9" stroke="black" stroke-width="4"/>
<circle cx="259.413" cy="39.4127" r="37.4127" fill="#313131" stroke="black" stroke-width="4"/>
<path d="M276.306 26.3548C274.367 23.8619 277.113 20.4688 278.729 19.0838C283.923 15.9678 291.194 29.4709 292.579 34.6644C295.002 41.2429 286.346 51.2839 285.308 39.858C284.269 31.8946 278.729 28.4322 276.306 26.3548Z" fill="white" stroke="black" stroke-width="4"/>
</svg>
