<svg width="187" height="259" viewBox="0 0 187 259" fill="none" xmlns="http://www.w3.org/2000/svg">
<path d="M3.44366 176.928L41.3903 101.822C41.5847 101.437 41.9564 101.189 42.3871 101.174C68.3554 100.272 121.97 99.0482 135.256 101.159C135.427 101.186 135.562 101.242 135.704 101.343C148.928 110.751 174.136 152.586 183.587 167.826C183.843 168.239 183.814 168.747 183.502 169.121C176.989 176.927 159.058 183.321 151.967 186.087C151.256 186.364 150.451 185.926 150.259 185.187C149.566 182.524 147.971 177.744 146.016 172.486C155.052 199.685 158.964 238.467 160.154 250.283C160.202 250.759 159.961 251.189 159.534 251.404C143.091 259.696 114.518 255.053 103.604 251.388C103.145 251.234 102.844 250.811 102.834 250.326C102.647 241.963 103.411 222.891 104.024 203.491C104.052 202.62 103.155 202.012 102.326 202.282C99.7751 203.111 97.0609 203.406 95.0052 203.167C94.2156 203.075 93.4238 203.632 93.402 204.427C93.0821 216.079 92.0699 239.801 92.5766 251.382C92.6015 251.95 92.2286 252.455 91.6734 252.578C80.5866 255.046 51.7492 257.781 36.5077 255.067C35.9701 254.971 35.5867 254.499 35.5664 253.953C34.2028 217.344 37.8085 193.052 41.7982 178.929C40.6305 181.552 39.4876 183.952 38.5422 185.631C38.4076 185.87 38.1912 186.05 37.9321 186.14C25.3066 190.529 10.4418 183.157 3.78752 178.387C3.32419 178.055 3.18658 177.437 3.44366 176.928Z" fill="#D9D9D9"/>
<path d="M140.637 159.176C153.56 184.886 158.75 236.345 160.154 250.283C160.202 250.759 159.961 251.189 159.534 251.404C143.091 259.696 114.518 255.053 103.604 251.388C103.145 251.234 102.844 250.811 102.834 250.326C102.647 241.963 103.411 222.891 104.024 203.491C104.052 202.62 103.155 202.012 102.326 202.282C99.7751 203.111 97.0609 203.406 95.0052 203.167C94.2156 203.075 93.4238 203.632 93.402 204.427C93.0821 216.079 92.0699 239.801 92.5766 251.382C92.6015 251.95 92.2286 252.455 91.6734 252.578C80.5866 255.046 51.7492 257.781 36.5077 255.067C35.9701 254.971 35.5867 254.499 35.5664 253.953C34.0033 211.987 38.9702 186.206 43.5601 173.376C44.027 172.07 44.6042 172.363 44.0707 173.642C42.2085 178.108 40.1054 182.855 38.5422 185.631C38.4076 185.87 38.1912 186.05 37.9321 186.14C25.3066 190.529 10.4418 183.157 3.78752 178.387C3.32419 178.055 3.18658 177.437 3.44366 176.928L41.3903 101.822C41.5847 101.437 41.9564 101.189 42.3872 101.174C68.3554 100.272 121.97 99.0482 135.256 101.159C135.427 101.186 135.562 101.242 135.704 101.343C148.928 110.751 174.136 152.586 183.587 167.826C183.843 168.239 183.814 168.747 183.502 169.121C176.989 176.927 159.058 183.321 151.967 186.087C151.256 186.364 150.451 185.926 150.259 185.187C148.983 180.283 144.647 168.197 140.637 159.176Z" stroke="black" stroke-width="4.72791"/>
<circle cx="87.8002" cy="63.7768" r="57.0593" fill="#D9D9D9" stroke="black" stroke-width="4.72791"/>
<circle cx="100.41" cy="47.3925" r="44.2209" fill="#313131" stroke="black" stroke-width="4.72791"/>
<path d="M120.376 31.9587C118.084 29.0121 121.331 25.0015 123.241 23.3645C129.379 19.6814 137.974 35.6419 139.61 41.7805C142.475 49.5561 132.244 61.4243 131.016 47.9192C129.789 38.5066 123.241 34.4141 120.376 31.9587Z" fill="white" stroke="black" stroke-width="4.72791"/>
</svg>
