<svg width="360" height="241" viewBox="0 0 360 241" fill="none" xmlns="http://www.w3.org/2000/svg">
<path d="M2.40954 171.626L34.5139 108.083C34.6784 107.758 34.9929 107.548 35.3573 107.535C57.3275 106.772 102.687 105.736 113.928 107.522C114.073 107.545 114.187 107.593 114.307 107.678C125.495 115.637 146.822 151.032 154.818 163.925C155.035 164.275 155.01 164.705 154.746 165.021C149.236 171.625 134.066 177.035 128.066 179.375C127.465 179.609 126.784 179.238 126.621 178.614C126.035 176.361 124.685 172.316 123.031 167.868C130.677 190.879 133.986 223.69 134.993 233.688C135.034 234.09 134.829 234.454 134.468 234.636C120.557 241.651 96.3826 237.723 87.1493 234.622C86.7606 234.492 86.5067 234.134 86.4975 233.724C86.3398 226.649 86.9858 210.512 87.5049 194.1C87.5282 193.363 86.769 192.848 86.068 193.076C83.9098 193.778 81.6135 194.027 79.8743 193.825C79.2063 193.747 78.5364 194.219 78.518 194.891C78.2473 204.749 77.3909 224.819 77.8196 234.617C77.8407 235.097 77.5252 235.524 77.0555 235.629C67.6756 237.717 43.278 240.03 30.3831 237.734C29.9283 237.653 29.6039 237.254 29.5867 236.792C28.433 205.82 31.4836 185.268 34.859 173.319C33.8711 175.538 32.9042 177.568 32.1043 178.989C31.9905 179.191 31.8074 179.344 31.5882 179.42C20.9064 183.133 8.33026 176.896 2.70046 172.86C2.30846 172.579 2.19204 172.056 2.40954 171.626Z" fill="#D9D9D9" stroke="black" stroke-width="4"/>
<circle cx="73.7769" cy="75.8961" r="48.2745" fill="#D9D9D9" stroke="black" stroke-width="4"/>
<circle cx="84.4127" cy="76.4127" r="37.4127" fill="#313131" stroke="black" stroke-width="4"/>
<path d="M101.307 63.3548C99.3681 60.8619 102.115 57.4688 103.731 56.0838C108.924 52.9678 116.195 66.4709 117.58 71.6644C120.004 78.2429 111.348 88.2839 110.309 76.858C109.27 68.8946 103.731 65.4322 101.307 63.3548Z" fill="white" stroke="black" stroke-width="4"/>
<path d="M176.913 146.004L209.017 82.4615C209.182 82.1361 209.496 81.9264 209.861 81.9137C231.967 81.1454 277.753 80.1021 288.636 81.9339C324.63 87.9923 333.177 93.6901 357.076 101.504C357.572 101.666 357.873 102.184 357.741 102.689C355.453 111.438 348.609 128.134 343.788 130.809C343.559 130.936 343.294 130.931 343.049 130.838C336.703 128.42 320.997 126.093 303.209 123.458C302.546 123.36 301.971 123.911 302.065 124.575C305.388 148.153 308.379 196.288 309.499 208.07C309.537 208.473 309.333 208.832 308.972 209.014C295.061 216.03 270.886 212.101 261.653 209.001C261.264 208.87 261.01 208.512 261.001 208.102C260.843 201.027 261.489 184.891 262.008 168.478C262.032 167.741 261.272 167.227 260.571 167.455C258.413 168.156 256.117 168.406 254.378 168.204C253.71 168.126 253.04 168.597 253.021 169.269C252.751 179.127 251.894 199.197 252.323 208.995C252.344 209.476 252.029 209.903 251.559 210.007C242.179 212.095 217.781 214.409 204.886 212.113C204.432 212.032 204.107 211.633 204.09 211.171C202.936 180.198 205.987 159.646 209.362 147.698C208.375 149.916 207.408 151.947 206.608 153.368C206.494 153.57 206.311 153.722 206.092 153.798C195.41 157.512 182.834 151.274 177.204 147.239C176.812 146.958 176.695 146.435 176.913 146.004Z" fill="#D9D9D9" stroke="black" stroke-width="4"/>
<circle cx="248.28" cy="50.2745" r="48.2745" fill="#D9D9D9" stroke="black" stroke-width="4"/>
<circle cx="256.114" cy="50.4923" r="37.4127" fill="#313131" stroke="black" stroke-width="4"/>
<path d="M273.008 37.4344C271.069 34.9415 273.816 31.5483 275.431 30.1634C280.625 27.0474 287.896 40.5505 289.281 45.744C291.704 52.3225 283.048 62.3635 282.01 50.9376C280.971 42.9742 275.431 39.5118 273.008 37.4344Z" fill="white" stroke="black" stroke-width="4"/>
</svg>
