<svg width="551" height="366" viewBox="0 0 551 366" fill="none" xmlns="http://www.w3.org/2000/svg">
<path d="M2.38029 262.116L52.0576 164.547C52.2226 164.223 52.5345 164.015 52.8979 164.002C86.6153 162.834 156.936 161.232 174.072 163.989C174.216 164.012 174.328 164.058 174.448 164.142C191.703 176.21 224.824 230.839 236.986 250.284C237.206 250.635 237.179 251.059 236.918 251.381C228.451 261.822 203.852 270.345 195.045 273.797C194.445 274.032 193.783 273.662 193.631 273.036C192.84 269.77 190.661 263.234 187.95 255.999C199.709 291.121 204.794 341.212 206.337 356.413L206.368 356.721C206.409 357.125 206.203 357.477 205.842 357.662C184.339 368.668 146.449 362.452 132.459 357.684C132.07 357.551 131.824 357.206 131.813 356.796C131.536 346.087 132.568 320.767 133.379 295.163C133.402 294.427 132.647 293.915 131.955 294.165C128.108 295.555 123.847 295.993 120.904 295.481C120.243 295.365 119.578 295.835 119.56 296.506C119.164 311.413 117.772 343.227 118.488 358.232C118.511 358.714 118.208 359.129 117.738 359.236C103.566 362.468 65.0606 366.135 45.1519 362.472C44.6971 362.388 44.3764 361.989 44.3588 361.527C42.5425 314.061 47.2429 282.588 52.4456 264.312C50.8879 267.784 49.3641 270.953 48.1168 273.126C48.0014 273.327 47.8199 273.476 47.6013 273.553C30.9191 279.43 11.1701 269.522 2.67008 263.359C2.27755 263.074 2.16029 262.548 2.38029 262.116Z" fill="#D9D9D9"/>
<path d="M180.956 238.826C197.868 272.214 204.595 339.259 206.368 356.721C206.409 357.125 206.203 357.477 205.842 357.662C184.339 368.668 146.449 362.452 132.459 357.684C132.07 357.551 131.824 357.206 131.813 356.796C131.536 346.087 132.568 320.767 133.379 295.163C133.402 294.427 132.647 293.915 131.955 294.165C128.108 295.555 123.847 295.993 120.904 295.481C120.243 295.365 119.578 295.835 119.56 296.506C119.164 311.413 117.772 343.227 118.488 358.232C118.511 358.714 118.208 359.129 117.738 359.236C103.566 362.468 65.0606 366.135 45.1519 362.472C44.6971 362.388 44.3765 361.989 44.3588 361.527C42.1018 302.543 49.9076 268.256 56.2356 253.3C56.6924 252.221 57.4235 252.595 56.9799 253.68C54.214 260.444 50.6122 268.779 48.1168 273.126C48.0014 273.327 47.8199 273.476 47.6013 273.553C30.9191 279.43 11.1701 269.522 2.67008 263.359C2.27755 263.074 2.16029 262.548 2.38029 262.116L52.0576 164.547C52.2226 164.223 52.5345 164.015 52.8979 164.002C86.6153 162.834 156.936 161.232 174.072 163.989C174.216 164.012 174.328 164.058 174.448 164.142C191.703 176.21 224.824 230.839 236.986 250.284C237.206 250.635 237.179 251.059 236.918 251.381C228.451 261.822 203.852 270.345 195.045 273.797C194.445 274.032 193.783 273.662 193.631 273.036C192.216 267.192 186.358 250.887 180.956 238.826Z" stroke="black" stroke-width="4"/>
<path d="M187.517 115.742C187.517 156.966 153.836 190.411 112.255 190.411C70.6742 190.411 36.9927 156.966 36.9927 115.742C36.9927 74.5173 70.6742 41.0723 112.255 41.0723C153.836 41.0723 187.517 74.5173 187.517 115.742Z" fill="#D9D9D9" stroke="black" stroke-width="4"/>
<path d="M187.171 116.53C187.171 148.606 160.962 174.635 128.601 174.635C96.2388 174.635 70.0308 148.606 70.0308 116.53C70.0308 84.4538 96.2388 58.4248 128.601 58.4248C160.962 58.4248 187.171 84.4538 187.171 116.53Z" fill="#313131" stroke="black" stroke-width="4"/>
<path d="M154.563 96.616C151.584 92.8143 155.805 87.6397 158.288 85.5276C166.27 80.7756 177.444 101.368 179.572 109.288C183.297 119.321 169.994 134.633 168.398 117.209C166.802 105.064 158.288 99.7841 154.563 96.616Z" fill="white" stroke="black" stroke-width="4"/>
<path d="M270.559 223.044L320.236 125.475C320.401 125.151 320.713 124.942 321.077 124.93C354.928 123.757 425.676 122.147 442.453 124.95C498.005 134.228 511.015 142.952 548.103 154.947C548.601 155.108 548.908 155.621 548.777 156.128C545.36 169.448 534.519 195.819 527.012 199.589C526.779 199.706 526.526 199.702 526.283 199.609C516.66 195.889 492.335 192.314 464.768 188.263L464.134 188.169C463.471 188.072 462.895 188.614 462.99 189.278C468.171 225.205 472.844 300.191 474.548 317.655C474.588 318.059 474.381 318.404 474.02 318.589C452.518 329.596 414.628 323.379 400.638 318.611C400.249 318.479 400.002 318.134 399.992 317.723C399.715 307.014 400.747 281.695 401.558 256.09C401.581 255.355 400.826 254.843 400.134 255.093C396.287 256.482 392.025 256.921 389.083 256.408C388.421 256.293 387.757 256.763 387.739 257.434C387.342 272.341 385.951 304.155 386.667 319.16C386.69 319.641 386.387 320.057 385.917 320.164C371.745 323.396 333.239 327.063 313.331 323.399C312.876 323.316 312.555 322.917 312.537 322.455C310.721 274.989 315.422 243.515 320.624 225.24C319.067 228.712 317.543 231.881 316.296 234.054C316.18 234.255 315.999 234.403 315.78 234.48C299.098 240.357 279.349 230.45 270.849 224.286C270.456 224.002 270.339 223.476 270.559 223.044Z" fill="#D9D9D9"/>
<path d="M442.453 124.95C498.005 134.228 511.015 142.952 548.103 154.947C548.601 155.108 548.908 155.621 548.777 156.128C545.36 169.448 534.519 195.819 527.012 199.589C526.779 199.706 526.526 199.702 526.283 199.609C516.586 195.86 491.962 192.259 464.134 188.169C463.471 188.072 462.895 188.614 462.99 189.278C468.171 225.205 472.844 300.191 474.548 317.655C474.588 318.059 474.381 318.404 474.02 318.589C452.518 329.596 414.628 323.379 400.638 318.611C400.249 318.479 400.002 318.134 399.992 317.723C399.715 307.014 400.747 281.695 401.558 256.09C401.581 255.355 400.826 254.843 400.134 255.093C396.287 256.482 392.025 256.921 389.083 256.408C388.421 256.293 387.757 256.763 387.739 257.434C387.342 272.341 385.95 304.155 386.667 319.16C386.69 319.641 386.387 320.057 385.917 320.164C371.745 323.396 333.239 327.063 313.331 323.399C312.876 323.316 312.555 322.917 312.537 322.455C310.281 263.471 318.086 229.183 324.414 214.228C324.871 213.149 325.602 213.522 325.159 214.607C322.393 221.372 318.791 229.707 316.296 234.054C316.18 234.255 315.999 234.403 315.78 234.48C299.098 240.357 279.349 230.45 270.849 224.286C270.456 224.002 270.339 223.476 270.559 223.044L320.236 125.475C320.401 125.151 320.713 124.942 321.077 124.93C354.928 123.757 425.676 122.147 442.453 124.95Z" stroke="black" stroke-width="4"/>
<path d="M455.696 76.6693C455.696 117.893 422.015 151.339 380.434 151.339C338.853 151.339 305.171 117.893 305.171 76.6693C305.171 35.4451 338.853 2 380.434 2C422.015 2 455.696 35.4451 455.696 76.6693Z" fill="#D9D9D9" stroke="black" stroke-width="4"/>
<path d="M451.042 77.0014C451.042 109.077 424.834 135.106 392.472 135.106C360.11 135.106 333.902 109.077 333.902 77.0014C333.902 44.9254 360.11 18.8965 392.472 18.8965C424.834 18.8965 451.042 44.9254 451.042 77.0014Z" fill="#313131" stroke="black" stroke-width="4"/>
<path d="M418.436 57.0886C415.456 53.2869 419.677 48.1124 422.16 46.0003C430.142 41.2483 441.316 61.8408 443.444 69.761C447.169 79.7933 433.866 95.1058 432.27 77.6813C430.674 65.5369 422.16 60.2567 418.436 57.0886Z" fill="white" stroke="black" stroke-width="4"/>
</svg>
