<svg width="387" height="885" viewBox="0 0 387 885" fill="none" xmlns="http://www.w3.org/2000/svg">
<rect x="76.0671" y="169.312" width="240.471" height="240.471" stroke="#FF5732" stroke-width="4.90758" stroke-dasharray="9.82 9.82"/>
<rect x="138.23" y="220.024" width="111.238" height="111.238" stroke="#FF5732" stroke-width="4.90758" stroke-dasharray="9.82 9.82"/>
<rect x="193.849" y="221.66" width="1.63586" height="109.603" stroke="#FF5732" stroke-width="1.63586" stroke-dasharray="9.82 9.82"/>
<rect x="249.468" y="275.642" width="1.63586" height="109.603" transform="rotate(90 249.468 275.642)" stroke="#FF5732" stroke-width="1.63586" stroke-dasharray="9.82 9.82"/>
<path d="M269.917 82.6109V76.8854V55.6192V13.0869H235.563V47.44" stroke="#FF5732" stroke-width="3.27172" stroke-dasharray="9.82 9.82"/>
<path d="M182.583 10.7353L189.549 3.57844L191.307 5.28985L193.031 3.5182L194.756 5.28985L196.514 3.57844L203.479 10.7353L201.721 12.4467L208.686 19.6036L210.445 17.8922L217.41 25.0491L215.652 26.7605L222.617 33.9174L224.376 32.206L231.341 39.3628L229.583 41.0743L236.548 48.2311L238.307 46.5197L245.272 53.6766L243.514 55.388L250.479 62.5449L252.237 60.8335L259.203 67.9904L257.444 69.7018L264.41 76.8587L266.168 75.1472L273.134 82.3041L271.375 84.0156L278.341 91.1724L280.099 89.461L287.065 96.6179L285.306 98.3293L292.271 105.486L294.03 103.775L300.995 110.932L299.237 112.643L306.202 119.8L307.961 118.089L314.926 125.245L313.168 126.957L320.133 134.114L321.892 132.402L328.857 139.559L327.099 141.271L334.064 148.427L335.822 146.716L342.788 153.873L341.029 155.584L347.995 162.741L349.753 161.03L356.719 168.187L355.563 169.311H355.285V169.583L354.96 169.898L355.285 170.231V171.765H345.451V169.311H335.617V171.765H325.784V169.311H315.95V171.765H306.117V169.311H296.283V171.765H286.45V169.311H276.616V171.765H266.783V169.311H256.949V171.765H247.116V169.311H237.282V171.765H227.449V169.311H217.615V171.765H207.782V169.311H197.948V171.765H188.115V169.311H178.281V171.765H168.448V169.311H158.614V171.765H148.78V169.311H138.947V171.765H129.113V169.311H119.28V171.765H109.446V169.311H99.6128V171.765H89.7793V169.311H79.9457V171.765H70.1122V169.311H60.2787V171.765H50.4451V169.311H40.6116V171.765H30.7781V170.231L31.1025 169.898L30.7781 169.582V169.311H30.4996L29.344 168.187L36.3094 161.03L38.0679 162.741L45.0333 155.584L43.2748 153.873L50.2403 146.716L51.9987 148.427L58.9641 141.271L57.2057 139.559L64.1711 132.402L65.9296 134.114L72.895 126.957L71.1365 125.245L78.1019 118.089L79.8604 119.8L86.8258 112.643L85.0674 110.932L92.0328 103.775L93.7912 105.486L100.757 98.3293L98.9982 96.6179L105.964 89.461L107.722 91.1724L114.687 84.0155L112.929 82.3041L119.894 75.1473L121.653 76.8587L128.618 69.7018L126.86 67.9904L133.825 60.8335L135.584 62.5449L142.549 55.388L140.791 53.6766L147.756 46.5197L149.515 48.2311L156.48 41.0743L154.722 39.3629L161.687 32.206L163.445 33.9174L170.411 26.7605L168.652 25.0491L175.618 17.8922L177.376 19.6036L184.342 12.4467L182.583 10.7353Z" stroke="#FF5732" stroke-width="4.90758" stroke-dasharray="9.82 9.82"/>
<rect x="76.0676" y="642.075" width="240.471" height="240.471" stroke="#FF5732" stroke-width="4.90758" stroke-dasharray="9.82 9.82"/>
<rect x="148.045" y="704.238" width="96.5157" height="176.673" stroke="#FF5732" stroke-width="4.90758" stroke-dasharray="9.82 9.82"/>
<circle cx="233.928" cy="788.484" r="4.90758" fill="#FF5732"/>
<rect x="76.0671" y="409.782" width="240.471" height="232.292" stroke="#FF5732" stroke-width="4.90758" stroke-dasharray="9.82 9.82"/>
<rect x="115.328" y="465.401" width="163.586" height="114.51" stroke="#FF5732" stroke-width="4.90758" stroke-dasharray="9.82 9.82"/>
<rect x="197.53" y="465.81" width="2.45379" height="115.328" stroke="#FF5732" stroke-width="2.45379" stroke-dasharray="9.82 9.82"/>
</svg>
