<svg width="355" height="486" viewBox="0 0 355 486" fill="none" xmlns="http://www.w3.org/2000/svg">
<path d="M3.90033 331.217L77.4997 186.663C77.7441 186.183 78.2063 185.875 78.7447 185.856C128.699 184.125 232.883 181.753 258.27 185.836C258.484 185.871 258.649 185.94 258.827 186.064C284.391 203.943 333.461 284.879 351.48 313.687C351.805 314.207 351.766 314.835 351.379 315.312C338.835 330.78 302.39 343.409 289.342 348.523C288.454 348.871 287.472 348.323 287.248 347.396C286.076 342.556 282.848 332.874 278.83 322.154C296.252 374.189 303.786 448.402 306.072 470.922L306.118 471.379C306.179 471.977 305.873 472.498 305.338 472.772C273.481 489.079 217.345 479.869 196.618 472.805C196.042 472.609 195.677 472.097 195.661 471.489C195.251 455.623 196.779 418.111 197.981 380.177C198.016 379.087 196.897 378.328 195.872 378.699C190.172 380.757 183.859 381.407 179.499 380.648C178.519 380.477 177.535 381.173 177.508 382.168C176.92 404.252 174.858 451.387 175.92 473.617C175.954 474.331 175.505 474.946 174.808 475.105C153.812 479.893 96.7642 485.326 67.2685 479.898C66.5948 479.774 66.1197 479.183 66.0935 478.499C63.4026 408.175 70.3665 361.546 78.0745 334.471C75.7668 339.614 73.5092 344.31 71.6612 347.529C71.4902 347.827 71.2213 348.046 70.8974 348.16C46.1819 356.868 16.9228 342.189 4.32967 333.058C3.74812 332.636 3.57439 331.857 3.90033 331.217Z" fill="#D9D9D9"/>
<path d="M268.47 296.712C293.525 346.177 303.491 445.508 306.118 471.379C306.179 471.977 305.873 472.498 305.338 472.772C273.481 489.079 217.345 479.869 196.618 472.805C196.042 472.609 195.677 472.097 195.661 471.489C195.251 455.623 196.779 418.111 197.981 380.177C198.016 379.087 196.897 378.328 195.872 378.699C190.172 380.757 183.859 381.407 179.499 380.648C178.519 380.477 177.535 381.173 177.508 382.168C176.92 404.252 174.858 451.387 175.92 473.617C175.954 474.331 175.505 474.946 174.808 475.105C153.812 479.893 96.7642 485.326 67.2685 479.898C66.5948 479.774 66.1197 479.183 66.0935 478.499C62.7497 391.112 74.3144 340.313 83.6896 318.156C84.3663 316.557 85.4495 317.11 84.7923 318.718C80.6945 328.74 75.3582 341.089 71.6612 347.529C71.4902 347.827 71.2213 348.046 70.8974 348.16C46.1819 356.868 16.9228 342.189 4.32967 333.058C3.74812 332.636 3.57439 331.857 3.90033 331.217L77.4997 186.663C77.7441 186.183 78.2063 185.875 78.7447 185.856C128.699 184.125 232.883 181.753 258.27 185.836C258.484 185.871 258.649 185.94 258.827 186.064C284.391 203.943 333.461 284.879 351.48 313.687C351.805 314.207 351.766 314.835 351.379 315.312C338.835 330.78 302.39 343.409 289.342 348.523C288.454 348.871 287.472 348.323 287.248 347.396C285.152 338.737 276.472 314.58 268.47 296.712Z" stroke="black" stroke-width="5.92619"/>
<path d="M278.189 114.356C278.189 175.431 228.288 224.982 166.684 224.982C105.08 224.982 55.1789 175.431 55.1789 114.356C55.1789 53.2802 105.08 3.7297 166.684 3.7297C228.288 3.7297 278.189 53.2802 278.189 114.356Z" fill="#D9D9D9" stroke="black" stroke-width="5.92619"/>
<path d="M277.674 115.524C277.674 163.046 238.846 201.609 190.9 201.609C142.955 201.609 104.126 163.046 104.126 115.524C104.126 68.0019 142.955 29.4387 190.9 29.4387C238.846 29.4387 277.674 68.0019 277.674 115.524Z" fill="#313131" stroke="black" stroke-width="5.92619"/>
<path d="M229.368 86.0199C224.953 80.3874 231.207 72.7211 234.886 69.5919C246.711 62.5516 263.266 93.0605 266.419 104.795C271.938 119.658 252.229 142.344 249.864 116.529C247.499 98.5364 234.886 90.7136 229.368 86.0199Z" fill="white" stroke="black" stroke-width="5.92619"/>
</svg>
