<svg width="358" height="241" viewBox="0 0 358 241" fill="none" xmlns="http://www.w3.org/2000/svg">
<path d="M0.375355 171.626L32.4798 108.083C32.6442 107.758 32.9587 107.548 33.3231 107.535C55.2934 106.772 100.653 105.736 111.894 107.522C112.039 107.545 112.153 107.593 112.273 107.678C123.461 115.637 144.788 151.032 152.784 163.925C153.001 164.275 152.976 164.705 152.712 165.021C147.202 171.625 132.031 177.035 126.032 179.375C125.43 179.609 124.75 179.238 124.587 178.614C124.001 176.361 122.651 172.316 120.997 167.868C128.642 190.879 131.952 223.69 132.959 233.688C132.999 234.09 132.795 234.454 132.434 234.636C118.523 241.651 94.3484 237.723 85.1151 234.622C84.7264 234.492 84.4725 234.134 84.4634 233.724C84.3056 226.649 84.9516 210.512 85.4707 194.1C85.494 193.363 84.7348 192.848 84.0338 193.076C81.8757 193.778 79.5793 194.027 77.8402 193.825C77.1721 193.747 76.5022 194.219 76.4838 194.891C76.2131 204.749 75.3567 224.819 75.7855 234.617C75.8065 235.097 75.491 235.524 75.0213 235.629C65.6414 237.717 41.2438 240.03 28.3489 237.734C27.8941 237.653 27.5697 237.254 27.5525 236.792C26.3989 205.82 29.4494 185.268 32.8248 173.319C31.837 175.538 30.87 177.568 30.0702 178.989C29.9563 179.191 29.7732 179.344 29.554 179.42C18.8723 183.133 6.29608 176.896 0.666277 172.86C0.274278 172.579 0.157862 172.056 0.375355 171.626Z" fill="#D9D9D9"/>
<path d="M116.447 156.607C127.379 178.359 131.771 221.895 132.959 233.688C132.999 234.09 132.795 234.454 132.434 234.636C118.523 241.651 94.3484 237.723 85.1151 234.622C84.7265 234.492 84.4725 234.134 84.4634 233.724C84.3056 226.649 84.9516 210.512 85.4707 194.1C85.494 193.363 84.7348 192.848 84.0338 193.076C81.8757 193.778 79.5793 194.027 77.8402 193.825C77.1721 193.748 76.5022 194.219 76.4838 194.891C76.2131 204.749 75.3567 224.819 75.7855 234.617C75.8065 235.097 75.491 235.524 75.0213 235.629C65.6415 237.717 41.2438 240.03 28.3489 237.734C27.8941 237.653 27.5697 237.254 27.5525 236.792C26.23 201.287 30.4323 179.475 34.3155 168.62C34.7105 167.516 35.1988 167.764 34.7474 168.846C33.172 172.624 31.3927 176.64 30.0702 178.989C29.9563 179.191 29.7732 179.344 29.554 179.42C18.8723 183.133 6.29608 176.896 0.666277 172.86C0.274278 172.579 0.157862 172.056 0.375355 171.626L32.4798 108.083C32.6442 107.758 32.9587 107.548 33.3231 107.535C55.2934 106.772 100.653 105.736 111.894 107.522C112.039 107.545 112.153 107.593 112.273 107.678C123.461 115.637 144.788 151.032 152.784 163.925C153.001 164.275 152.976 164.705 152.712 165.021C147.202 171.625 132.031 177.035 126.032 179.375C125.43 179.609 124.75 179.238 124.587 178.614C123.508 174.464 119.839 164.239 116.447 156.607Z" stroke="black" stroke-width="4"/>
<circle cx="71.7432" cy="75.8961" r="48.2745" fill="#D9D9D9" stroke="black" stroke-width="4"/>
<circle cx="82.3795" cy="76.4127" r="37.4127" fill="#313131" stroke="black" stroke-width="4"/>
<path d="M99.2724 63.3548C97.3334 60.8619 100.08 57.4688 101.696 56.0838C106.889 52.9678 114.16 66.4709 115.545 71.6644C117.969 78.2429 109.313 88.2839 108.274 76.858C107.236 68.8946 101.696 65.4322 99.2724 63.3548Z" fill="white" stroke="black" stroke-width="4"/>
<path d="M174.879 146.004L206.984 82.4615C207.148 82.1361 207.463 81.9264 207.827 81.9137C229.933 81.1454 275.719 80.1021 286.602 81.9339C322.596 87.9923 331.143 93.6901 355.042 101.504C355.539 101.666 355.839 102.184 355.707 102.689C353.419 111.438 346.576 128.134 341.755 130.809C341.525 130.936 341.26 130.931 341.015 130.838C334.669 128.42 318.964 126.093 301.175 123.458C300.512 123.36 299.938 123.911 300.031 124.575C303.354 148.153 306.346 196.288 307.465 208.07C307.503 208.473 307.299 208.832 306.938 209.014C293.027 216.03 268.852 212.101 259.619 209.001C259.23 208.87 258.976 208.512 258.967 208.102C258.81 201.027 259.455 184.891 259.975 168.478C259.998 167.741 259.239 167.227 258.538 167.455C256.38 168.156 254.083 168.406 252.344 168.204C251.676 168.126 251.006 168.597 250.988 169.269C250.717 179.127 249.861 199.197 250.289 208.995C250.31 209.476 249.995 209.903 249.525 210.007C240.145 212.095 215.748 214.409 202.853 212.113C202.398 212.032 202.074 211.633 202.056 211.171C200.903 180.198 203.953 159.646 207.329 147.698C206.341 149.916 205.374 151.947 204.574 153.368C204.46 153.57 204.277 153.722 204.058 153.798C193.376 157.512 180.8 151.274 175.17 147.239C174.778 146.958 174.662 146.435 174.879 146.004Z" fill="#D9D9D9"/>
<path d="M286.602 81.9339C322.596 87.9923 331.143 93.6901 355.042 101.504C355.539 101.666 355.839 102.184 355.707 102.689C353.419 111.438 346.576 128.134 341.755 130.809C341.525 130.936 341.26 130.931 341.015 130.838C334.669 128.42 318.964 126.093 301.175 123.458C300.512 123.36 299.938 123.911 300.031 124.575C303.354 148.153 306.346 196.288 307.465 208.07C307.503 208.473 307.299 208.832 306.938 209.014C293.027 216.03 268.852 212.101 259.619 209.001C259.23 208.87 258.976 208.512 258.967 208.102C258.81 201.027 259.455 184.891 259.975 168.478C259.998 167.741 259.239 167.227 258.538 167.455C256.38 168.156 254.083 168.406 252.344 168.204C251.676 168.126 251.006 168.597 250.988 169.269C250.717 179.127 249.861 199.197 250.289 208.995C250.31 209.476 249.995 209.903 249.525 210.007C240.145 212.095 215.748 214.409 202.853 212.113C202.398 212.032 202.074 211.633 202.056 211.171C200.734 175.666 204.936 153.854 208.819 142.999C209.214 141.895 209.703 142.142 209.251 143.225C207.676 147.002 205.897 151.018 204.574 153.368C204.46 153.57 204.277 153.722 204.058 153.798C193.376 157.512 180.8 151.274 175.17 147.239C174.778 146.958 174.662 146.435 174.879 146.004L206.984 82.4615C207.148 82.1361 207.463 81.9264 207.827 81.9137C229.933 81.1454 275.719 80.1021 286.602 81.9339Z" stroke="black" stroke-width="4"/>
<circle cx="246.247" cy="50.2745" r="48.2745" fill="#D9D9D9" stroke="black" stroke-width="4"/>
<circle cx="254.081" cy="50.4923" r="37.4127" fill="#313131" stroke="black" stroke-width="4"/>
<path d="M270.975 37.4344C269.036 34.9415 271.782 31.5483 273.398 30.1634C278.592 27.0474 285.863 40.5505 287.248 45.744C289.671 52.3225 281.015 62.3635 279.977 50.9376C278.938 42.9742 273.398 39.5118 270.975 37.4344Z" fill="white" stroke="black" stroke-width="4"/>
</svg>
