<svg width="330" height="244" viewBox="0 0 330 244" fill="none" xmlns="http://www.w3.org/2000/svg">
<path d="M0.375355 174.626L32.4798 111.083C32.6442 110.758 32.9587 110.548 33.3231 110.535C55.2934 109.772 100.653 108.736 111.894 110.522C112.039 110.545 112.153 110.593 112.273 110.678C123.461 118.637 144.788 154.032 152.784 166.925C153.001 167.275 152.976 167.705 152.712 168.021C147.202 174.625 132.031 180.035 126.032 182.375C125.43 182.609 124.75 182.238 124.587 181.614C124.001 179.361 122.651 175.316 120.997 170.868C128.642 193.879 131.952 226.69 132.959 236.688C132.999 237.09 132.795 237.454 132.434 237.636C118.523 244.651 94.3484 240.723 85.1151 237.622C84.7264 237.492 84.4725 237.134 84.4634 236.724C84.3056 229.649 84.9516 213.512 85.4707 197.1C85.494 196.363 84.7348 195.848 84.0338 196.076C81.8757 196.778 79.5793 197.027 77.8402 196.825C77.1721 196.747 76.5022 197.219 76.4838 197.891C76.2131 207.749 75.3567 227.819 75.7855 237.617C75.8065 238.097 75.491 238.524 75.0213 238.629C65.6414 240.717 41.2438 243.03 28.3489 240.734C27.8941 240.653 27.5697 240.254 27.5525 239.792C26.3989 208.82 29.4494 188.268 32.8248 176.319C31.837 178.538 30.87 180.568 30.0702 181.989C29.9563 182.191 29.7732 182.344 29.554 182.42C18.8723 186.133 6.29608 179.896 0.666277 175.86C0.274278 175.579 0.157862 175.056 0.375355 174.626Z" fill="#D9D9D9"/>
<path d="M116.447 159.607C127.379 181.359 131.771 224.895 132.959 236.688C132.999 237.09 132.795 237.454 132.434 237.636C118.523 244.651 94.3484 240.723 85.1151 237.622C84.7265 237.492 84.4725 237.134 84.4634 236.724C84.3056 229.649 84.9516 213.512 85.4707 197.1C85.494 196.363 84.7348 195.848 84.0338 196.076C81.8757 196.778 79.5793 197.027 77.8402 196.825C77.1721 196.748 76.5022 197.219 76.4838 197.891C76.2131 207.749 75.3567 227.819 75.7855 237.617C75.8065 238.097 75.491 238.524 75.0213 238.629C65.6415 240.717 41.2438 243.03 28.3489 240.734C27.8941 240.653 27.5697 240.254 27.5525 239.792C26.23 204.287 30.4323 182.475 34.3155 171.62C34.7105 170.516 35.1988 170.764 34.7474 171.846C33.172 175.624 31.3927 179.64 30.0702 181.989C29.9563 182.191 29.7732 182.344 29.554 182.42C18.8723 186.133 6.29608 179.896 0.666277 175.86C0.274278 175.579 0.157862 175.056 0.375355 174.626L32.4798 111.083C32.6442 110.758 32.9587 110.548 33.3231 110.535C55.2934 109.772 100.653 108.736 111.894 110.522C112.039 110.545 112.153 110.593 112.273 110.678C123.461 118.637 144.788 154.032 152.784 166.925C153.001 167.275 152.976 167.705 152.712 168.021C147.202 174.625 132.031 180.035 126.032 182.375C125.43 182.609 124.75 182.238 124.587 181.614C123.508 177.464 119.839 167.239 116.447 159.607Z" stroke="black" stroke-width="4"/>
<circle cx="71.7432" cy="78.8961" r="48.2745" fill="#D9D9D9" stroke="black" stroke-width="4"/>
<circle cx="84.3785" cy="68.4127" r="37.4127" fill="#313131" stroke="black" stroke-width="4"/>
<path d="M101.273 55.3548C99.3344 52.8619 102.081 49.4688 103.697 48.0838C108.89 44.9678 116.161 58.4709 117.546 63.6644C119.97 70.2429 111.314 80.2839 110.275 68.858C109.237 60.8946 103.697 57.4322 101.273 55.3548Z" fill="white" stroke="black" stroke-width="4"/>
<path d="M175.341 149.004L207.446 85.4615C207.61 85.1361 207.925 84.9264 208.289 84.9137C230.259 84.1501 275.619 83.1149 286.86 84.9005C287.005 84.9235 287.119 84.9711 287.239 85.0563C298.427 93.0158 319.754 128.41 327.75 141.303C327.967 141.653 327.942 142.083 327.678 142.399C322.168 149.004 306.997 154.413 300.998 156.753C300.396 156.988 299.716 156.617 299.553 155.992C298.967 153.739 297.617 149.694 295.963 145.246C303.608 168.258 306.918 201.069 307.925 211.066C307.965 211.468 307.761 211.832 307.4 212.014C293.489 219.03 269.314 215.101 260.081 212.001C259.692 211.87 259.438 211.512 259.429 211.102C259.271 204.027 259.917 187.891 260.437 171.478C260.46 170.741 259.701 170.227 259 170.455C256.841 171.156 254.545 171.406 252.806 171.204C252.138 171.126 251.468 171.597 251.45 172.269C251.179 182.127 250.323 202.197 250.751 211.995C250.772 212.476 250.457 212.903 249.987 213.007C240.607 215.095 216.21 217.409 203.315 215.113C202.86 215.032 202.536 214.633 202.518 214.171C201.365 183.198 204.415 162.646 207.791 150.698C206.803 152.916 205.836 154.947 205.036 156.368C204.922 156.57 204.739 156.722 204.52 156.798C193.838 160.512 181.262 154.274 175.632 150.239C175.24 149.958 175.124 149.435 175.341 149.004Z" fill="#D9D9D9"/>
<path d="M291.412 133.985C302.345 155.737 306.737 199.273 307.925 211.066C307.965 211.468 307.761 211.832 307.4 212.014C293.489 219.03 269.314 215.101 260.081 212.001C259.692 211.87 259.438 211.512 259.429 211.102C259.271 204.027 259.917 187.891 260.437 171.478C260.46 170.741 259.701 170.227 259 170.455C256.841 171.156 254.545 171.406 252.806 171.204C252.138 171.126 251.468 171.597 251.45 172.269C251.179 182.127 250.323 202.197 250.751 211.995C250.772 212.476 250.457 212.903 249.987 213.007C240.607 215.095 216.21 217.409 203.315 215.113C202.86 215.032 202.536 214.633 202.518 214.171C201.196 178.666 205.398 156.854 209.281 145.999C209.676 144.895 210.165 145.142 209.713 146.225C208.138 150.002 206.358 154.018 205.036 156.368C204.922 156.57 204.739 156.722 204.52 156.798C193.838 160.512 181.262 154.274 175.632 150.239C175.24 149.958 175.124 149.435 175.341 149.004L207.446 85.4615C207.61 85.1361 207.925 84.9264 208.289 84.9137C230.259 84.1501 275.619 83.1149 286.86 84.9005C287.005 84.9235 287.119 84.9711 287.239 85.0563C298.427 93.0158 319.754 128.41 327.75 141.303C327.967 141.653 327.942 142.083 327.678 142.399C322.168 149.004 306.997 154.413 300.998 156.753C300.396 156.988 299.716 156.617 299.553 155.992C298.473 151.843 294.805 141.618 291.412 133.985Z" stroke="black" stroke-width="4"/>
<circle cx="246.709" cy="53.2745" r="48.2745" fill="#D9D9D9" stroke="black" stroke-width="4"/>
<circle cx="257.379" cy="39.4127" r="37.4127" fill="#313131" stroke="black" stroke-width="4"/>
<path d="M274.271 26.3548C272.332 23.8619 275.079 20.4688 276.695 19.0838C281.888 15.9678 289.159 29.4709 290.544 34.6644C292.968 41.2429 284.312 51.2839 283.273 39.858C282.235 31.8946 276.695 28.4322 274.271 26.3548Z" fill="white" stroke="black" stroke-width="4"/>
</svg>
