<svg width="686" height="447" viewBox="0 0 686 447" fill="none" xmlns="http://www.w3.org/2000/svg">
<rect x="50.5889" width="574.182" height="446.999" fill="black"/>
<ellipse cx="630.058" cy="55.8749" rx="55.8751" ry="55.8749" fill="#FF5732"/>
<ellipse cx="55.8751" cy="55.8749" rx="55.8751" ry="55.8749" fill="#FF5732"/>
<ellipse cx="630.058" cy="167.624" rx="55.8751" ry="55.8749" fill="#FF5732"/>
<ellipse cx="55.8751" cy="167.624" rx="55.8751" ry="55.8749" fill="#FF5732"/>
<ellipse cx="630.058" cy="279.374" rx="55.8751" ry="55.8749" fill="#FF5732"/>
<ellipse cx="55.8751" cy="279.374" rx="55.8751" ry="55.8749" fill="#FF5732"/>
<ellipse cx="630.058" cy="391.126" rx="55.8751" ry="55.8749" fill="#FF5732"/>
<ellipse cx="55.8751" cy="391.126" rx="55.8751" ry="55.8749" fill="#FF5732"/>
<path d="M301.817 173.426L291.059 159.061H287.208V173.426H283.418V142.129H287.208V155.699H288.858L301.389 142.129H305.912L293.259 155.883L306.34 173.426H301.817ZM311.349 182.228C310.737 182.228 310.192 182.177 309.714 182.075C309.235 181.983 308.904 181.892 308.72 181.8L309.637 178.621C310.513 178.846 311.288 178.927 311.96 178.866C312.632 178.805 313.228 178.504 313.748 177.964C314.278 177.435 314.762 176.574 315.2 175.382L315.872 173.548L307.192 149.953H311.104L317.583 168.658H317.828L324.307 149.953H328.219L318.256 176.849C317.808 178.061 317.252 179.065 316.59 179.859C315.928 180.664 315.159 181.26 314.283 181.647C313.417 182.034 312.439 182.228 311.349 182.228ZM332.98 173.426V149.953H351.44V173.426H347.833V153.315H336.586V173.426H332.98ZM367.561 173.915C365.442 173.915 363.583 173.41 361.984 172.402C360.394 171.393 359.152 169.982 358.255 168.169C357.369 166.356 356.926 164.237 356.926 161.812C356.926 159.367 357.369 157.233 358.255 155.409C359.152 153.585 360.394 152.169 361.984 151.161C363.583 150.152 365.442 149.648 367.561 149.648C369.681 149.648 371.535 150.152 373.124 151.161C374.723 152.169 375.966 153.585 376.853 155.409C377.749 157.233 378.197 159.367 378.197 161.812C378.197 164.237 377.749 166.356 376.853 168.169C375.966 169.982 374.723 171.393 373.124 172.402C371.535 173.41 369.681 173.915 367.561 173.915ZM367.561 170.675C369.171 170.675 370.496 170.263 371.535 169.437C372.574 168.612 373.343 167.527 373.842 166.182C374.341 164.838 374.591 163.381 374.591 161.812C374.591 160.243 374.341 158.781 373.842 157.426C373.343 156.071 372.574 154.976 371.535 154.141C370.496 153.305 369.171 152.888 367.561 152.888C365.952 152.888 364.627 153.305 363.588 154.141C362.549 154.976 361.78 156.071 361.281 157.426C360.782 158.781 360.532 160.243 360.532 161.812C360.532 163.381 360.782 164.838 361.281 166.182C361.78 167.527 362.549 168.612 363.588 169.437C364.627 170.263 365.952 170.675 367.561 170.675ZM399.412 160.039V163.401H386.453V160.039H399.412ZM387.309 149.953V173.426H383.702V149.953H387.309ZM402.162 149.953V173.426H398.556V149.953H402.162ZM210.493 212.039V215.401H197.534V212.039H210.493ZM198.39 201.953V225.426H194.784V201.953H198.39ZM213.244 201.953V225.426H209.637V201.953H213.244ZM226.737 225.976C225.25 225.976 223.9 225.696 222.688 225.135C221.475 224.565 220.513 223.745 219.799 222.675C219.086 221.595 218.73 220.291 218.73 218.763C218.73 217.418 218.995 216.328 219.524 215.493C220.054 214.647 220.762 213.985 221.649 213.506C222.535 213.027 223.513 212.671 224.583 212.437C225.662 212.192 226.747 211.998 227.837 211.856C229.264 211.672 230.42 211.535 231.306 211.443C232.203 211.341 232.855 211.173 233.262 210.939C233.68 210.705 233.889 210.297 233.889 209.716V209.594C233.889 208.086 233.476 206.915 232.651 206.079C231.836 205.244 230.598 204.826 228.938 204.826C227.216 204.826 225.866 205.203 224.888 205.957C223.91 206.711 223.223 207.516 222.825 208.372L219.402 207.149C220.013 205.723 220.828 204.612 221.847 203.818C222.876 203.013 223.997 202.453 225.209 202.137C226.432 201.811 227.634 201.648 228.816 201.648C229.569 201.648 230.435 201.74 231.413 201.923C232.402 202.096 233.354 202.458 234.271 203.008C235.198 203.558 235.967 204.388 236.578 205.499C237.19 206.609 237.495 208.097 237.495 209.961V225.426H233.889V222.247H233.706C233.461 222.757 233.054 223.302 232.483 223.882C231.913 224.463 231.154 224.957 230.206 225.365C229.259 225.772 228.102 225.976 226.737 225.976ZM227.287 222.736C228.714 222.736 229.916 222.456 230.894 221.896C231.882 221.335 232.626 220.612 233.125 219.726C233.634 218.839 233.889 217.907 233.889 216.929V213.629C233.736 213.812 233.4 213.98 232.88 214.133C232.371 214.275 231.78 214.403 231.108 214.515C230.446 214.617 229.799 214.708 229.167 214.79C228.546 214.861 228.041 214.922 227.654 214.973C226.717 215.096 225.841 215.294 225.026 215.569C224.221 215.834 223.569 216.237 223.07 216.776C222.581 217.306 222.336 218.03 222.336 218.946C222.336 220.2 222.8 221.147 223.727 221.789C224.664 222.42 225.851 222.736 227.287 222.736ZM265.716 225.915C263.516 225.915 261.621 225.395 260.032 224.356C258.442 223.317 257.22 221.886 256.364 220.062C255.508 218.238 255.08 216.155 255.08 213.812C255.08 211.428 255.519 209.324 256.395 207.501C257.281 205.667 258.514 204.236 260.093 203.207C261.682 202.167 263.536 201.648 265.655 201.648C267.306 201.648 268.793 201.953 270.117 202.565C271.442 203.176 272.527 204.032 273.372 205.132C274.218 206.232 274.743 207.516 274.946 208.983H271.34C271.065 207.913 270.454 206.966 269.506 206.141C268.569 205.305 267.306 204.888 265.716 204.888C264.31 204.888 263.078 205.254 262.018 205.988C260.969 206.711 260.149 207.735 259.558 209.059C258.977 210.374 258.687 211.917 258.687 213.69C258.687 215.503 258.972 217.082 259.543 218.427C260.123 219.772 260.938 220.816 261.988 221.56C263.047 222.303 264.29 222.675 265.716 222.675C266.654 222.675 267.504 222.512 268.268 222.186C269.032 221.86 269.679 221.391 270.209 220.78C270.739 220.169 271.116 219.435 271.34 218.58H274.946C274.743 219.965 274.238 221.213 273.434 222.324C272.639 223.424 271.584 224.3 270.27 224.952C268.966 225.594 267.448 225.915 265.716 225.915ZM280.218 225.426V201.953H283.825V212.161H286.209L294.644 201.953H299.29L289.815 213.262L299.412 225.426H294.766L287.065 215.523H283.825V225.426H280.218ZM306.938 220.108L318.246 201.953H322.403V225.426H318.796V207.271L307.549 225.426H303.332V201.953H306.938V220.108ZM326.502 232.15V222.064H328.458C328.937 221.565 329.35 221.025 329.696 220.444C330.042 219.863 330.343 219.176 330.598 218.381C330.862 217.576 331.087 216.598 331.27 215.447C331.453 214.286 331.616 212.885 331.759 211.245L332.554 201.953H347.468V222.064H351.075V232.15H347.468V225.426H330.109V232.15H326.502ZM332.554 222.064H343.862V205.315H335.916L335.304 211.245C335.05 213.7 334.734 215.844 334.357 217.678C333.98 219.512 333.379 220.974 332.554 222.064ZM355.862 225.426V201.953H359.468V212.161H361.852L370.287 201.953H374.933L365.458 213.262L375.055 225.426H370.41L362.708 215.523H359.468V225.426H355.862ZM381.298 234.228C380.686 234.228 380.141 234.177 379.662 234.075C379.184 233.983 378.853 233.892 378.669 233.8L379.586 230.621C380.462 230.846 381.236 230.927 381.909 230.866C382.581 230.805 383.177 230.504 383.697 229.964C384.227 229.435 384.71 228.574 385.149 227.382L385.821 225.548L377.141 201.953H381.053L387.532 220.658H387.777L394.256 201.953H398.168L388.205 228.849C387.757 230.061 387.201 231.065 386.539 231.859C385.877 232.664 385.108 233.26 384.232 233.647C383.366 234.034 382.388 234.228 381.298 234.228ZM425.973 194.129V225.426H422.183V198.103H422L414.359 203.176V199.325L422.183 194.129H425.973ZM445.182 225.854C442.879 225.854 440.918 225.227 439.298 223.974C437.678 222.711 436.441 220.882 435.585 218.488C434.729 216.084 434.301 213.18 434.301 209.778C434.301 206.395 434.729 203.507 435.585 201.113C436.451 198.709 437.694 196.875 439.314 195.612C440.944 194.338 442.9 193.702 445.182 193.702C447.464 193.702 449.415 194.338 451.034 195.612C452.664 196.875 453.907 198.709 454.763 201.113C455.629 203.507 456.062 206.395 456.062 209.778C456.062 213.18 455.634 216.084 454.778 218.488C453.923 220.882 452.685 222.711 451.065 223.974C449.445 225.227 447.484 225.854 445.182 225.854ZM445.182 222.492C447.464 222.492 449.236 221.391 450.5 219.191C451.763 216.99 452.394 213.853 452.394 209.778C452.394 207.068 452.104 204.76 451.523 202.855C450.953 200.95 450.128 199.498 449.048 198.5C447.978 197.501 446.689 197.002 445.182 197.002C442.92 197.002 441.152 198.118 439.879 200.349C438.606 202.57 437.969 205.713 437.969 209.778C437.969 212.487 438.254 214.79 438.825 216.685C439.395 218.58 440.215 220.021 441.285 221.009C442.365 221.998 443.664 222.492 445.182 222.492ZM477.823 219.558V217.907C477.823 216.766 478.057 215.722 478.526 214.775C479.005 213.817 479.697 213.053 480.604 212.482C481.521 211.902 482.631 211.611 483.935 211.611C485.26 211.611 486.37 211.902 487.267 212.482C488.163 213.053 488.841 213.817 489.299 214.775C489.758 215.722 489.987 216.766 489.987 217.907V219.558C489.987 220.699 489.753 221.748 489.284 222.706C488.825 223.653 488.143 224.417 487.236 224.998C486.34 225.568 485.239 225.854 483.935 225.854C482.611 225.854 481.495 225.568 480.589 224.998C479.682 224.417 478.994 223.653 478.526 222.706C478.057 221.748 477.823 220.699 477.823 219.558ZM480.94 217.907V219.558C480.94 220.505 481.164 221.356 481.613 222.11C482.061 222.853 482.835 223.225 483.935 223.225C485.005 223.225 485.759 222.853 486.197 222.11C486.645 221.356 486.869 220.505 486.869 219.558V217.907C486.869 216.96 486.656 216.114 486.228 215.371C485.8 214.617 485.036 214.24 483.935 214.24C482.866 214.24 482.097 214.617 481.628 215.371C481.169 216.114 480.94 216.96 480.94 217.907ZM462.236 201.648V199.997C462.236 198.856 462.47 197.812 462.939 196.865C463.418 195.907 464.11 195.143 465.017 194.573C465.934 193.992 467.044 193.702 468.348 193.702C469.673 193.702 470.783 193.992 471.68 194.573C472.576 195.143 473.254 195.907 473.712 196.865C474.171 197.812 474.4 198.856 474.4 199.997V201.648C474.4 202.789 474.165 203.838 473.697 204.796C473.238 205.743 472.556 206.507 471.649 207.088C470.753 207.659 469.652 207.944 468.348 207.944C467.024 207.944 465.908 207.659 465.002 207.088C464.095 206.507 463.407 205.743 462.939 204.796C462.47 203.838 462.236 202.789 462.236 201.648ZM465.353 199.997V201.648C465.353 202.595 465.577 203.446 466.026 204.2C466.474 204.944 467.248 205.315 468.348 205.315C469.418 205.315 470.172 204.944 470.61 204.2C471.058 203.446 471.282 202.595 471.282 201.648V199.997C471.282 199.05 471.068 198.204 470.641 197.461C470.213 196.707 469.449 196.33 468.348 196.33C467.279 196.33 466.509 196.707 466.041 197.461C465.582 198.204 465.353 199.05 465.353 199.997ZM463.397 225.426L484.913 194.129H488.398L466.881 225.426H463.397ZM251.635 264.039V267.401H238.676V264.039H251.635ZM239.532 253.953V277.426H235.925V253.953H239.532ZM254.385 253.953V277.426H250.779V253.953H254.385ZM267.879 277.976C266.391 277.976 265.041 277.696 263.829 277.135C262.617 276.565 261.654 275.745 260.941 274.675C260.228 273.595 259.871 272.291 259.871 270.763C259.871 269.418 260.136 268.328 260.666 267.493C261.196 266.647 261.904 265.985 262.79 265.506C263.676 265.027 264.654 264.671 265.724 264.437C266.804 264.192 267.889 263.998 268.979 263.856C270.405 263.672 271.562 263.535 272.448 263.443C273.344 263.341 273.996 263.173 274.404 262.939C274.822 262.705 275.03 262.297 275.03 261.716V261.594C275.03 260.086 274.618 258.915 273.793 258.079C272.978 257.244 271.74 256.826 270.079 256.826C268.358 256.826 267.008 257.203 266.03 257.957C265.052 258.711 264.364 259.516 263.967 260.372L260.544 259.149C261.155 257.723 261.97 256.612 262.989 255.818C264.018 255.013 265.138 254.453 266.351 254.137C267.573 253.811 268.775 253.648 269.957 253.648C270.711 253.648 271.577 253.74 272.555 253.923C273.543 254.096 274.496 254.458 275.412 255.008C276.34 255.558 277.109 256.388 277.72 257.499C278.331 258.609 278.637 260.097 278.637 261.961V277.426H275.03V274.247H274.847C274.603 274.757 274.195 275.302 273.625 275.882C273.054 276.463 272.295 276.957 271.348 277.365C270.4 277.772 269.244 277.976 267.879 277.976ZM268.429 274.736C269.855 274.736 271.057 274.456 272.035 273.896C273.023 273.335 273.767 272.612 274.266 271.726C274.776 270.839 275.03 269.907 275.03 268.929V265.629C274.878 265.812 274.541 265.98 274.022 266.133C273.512 266.275 272.922 266.403 272.249 266.515C271.587 266.617 270.94 266.708 270.308 266.79C269.687 266.861 269.183 266.922 268.796 266.973C267.858 267.096 266.982 267.294 266.167 267.569C265.362 267.834 264.71 268.237 264.211 268.776C263.722 269.306 263.478 270.03 263.478 270.946C263.478 272.2 263.941 273.147 264.868 273.789C265.806 274.42 266.992 274.736 268.429 274.736ZM297.322 277.426V253.953H315.782V277.426H312.176V257.315H300.929V277.426H297.322ZM332.21 277.915C329.948 277.915 327.997 277.416 326.357 276.417C324.727 275.409 323.469 274.003 322.582 272.2C321.706 270.386 321.268 268.277 321.268 265.873C321.268 263.469 321.706 261.35 322.582 259.516C323.469 257.672 324.701 256.236 326.281 255.207C327.87 254.167 329.724 253.648 331.843 253.648C333.066 253.648 334.273 253.852 335.465 254.259C336.657 254.667 337.742 255.329 338.72 256.246C339.698 257.152 340.477 258.355 341.058 259.852C341.638 261.35 341.929 263.194 341.929 265.384V266.912H323.836V263.795H338.261C338.261 262.47 337.996 261.289 337.467 260.249C336.947 259.21 336.203 258.39 335.235 257.789C334.278 257.188 333.147 256.888 331.843 256.888C330.407 256.888 329.164 257.244 328.114 257.957C327.075 258.66 326.275 259.577 325.715 260.708C325.155 261.839 324.875 263.051 324.875 264.345V266.423C324.875 268.196 325.18 269.698 325.792 270.931C326.413 272.154 327.274 273.086 328.374 273.728C329.474 274.359 330.753 274.675 332.21 274.675C333.157 274.675 334.013 274.543 334.777 274.278C335.551 274.003 336.219 273.595 336.779 273.055C337.339 272.505 337.772 271.823 338.078 271.008L341.562 271.986C341.195 273.167 340.579 274.206 339.713 275.103C338.847 275.989 337.777 276.682 336.504 277.181C335.23 277.67 333.799 277.915 332.21 277.915ZM347.415 286.228V253.953H350.899V257.682H351.327C351.592 257.275 351.958 256.755 352.427 256.123C352.906 255.482 353.588 254.911 354.475 254.412C355.371 253.903 356.584 253.648 358.112 253.648C360.088 253.648 361.83 254.142 363.338 255.13C364.846 256.118 366.022 257.519 366.868 259.333C367.714 261.146 368.136 263.285 368.136 265.751C368.136 268.237 367.714 270.391 366.868 272.215C366.022 274.028 364.851 275.434 363.353 276.432C361.856 277.421 360.129 277.915 358.173 277.915C356.665 277.915 355.458 277.665 354.551 277.166C353.645 276.657 352.947 276.081 352.458 275.439C351.969 274.787 351.592 274.247 351.327 273.819H351.021V286.228H347.415ZM350.96 265.69C350.96 267.462 351.22 269.026 351.739 270.381C352.259 271.726 353.018 272.78 354.016 273.544C355.015 274.298 356.237 274.675 357.684 274.675C359.192 274.675 360.45 274.278 361.458 273.483C362.477 272.678 363.241 271.598 363.751 270.244C364.27 268.878 364.53 267.36 364.53 265.69C364.53 264.039 364.275 262.552 363.766 261.227C363.267 259.893 362.508 258.838 361.489 258.064C360.48 257.28 359.212 256.888 357.684 256.888C356.217 256.888 354.984 257.259 353.986 258.003C352.987 258.737 352.234 259.766 351.724 261.09C351.215 262.404 350.96 263.937 350.96 265.69ZM373.638 277.426V253.953H383.234C385.761 253.953 387.768 254.524 389.255 255.665C390.743 256.806 391.486 258.314 391.486 260.188C391.486 261.615 391.064 262.72 390.218 263.504C389.373 264.279 388.288 264.803 386.963 265.078C387.829 265.201 388.67 265.506 389.485 265.995C390.31 266.484 390.992 267.157 391.532 268.012C392.072 268.858 392.342 269.897 392.342 271.13C392.342 272.332 392.037 273.407 391.425 274.354C390.814 275.302 389.938 276.05 388.797 276.601C387.656 277.151 386.291 277.426 384.702 277.426H373.638ZM377.061 274.125H384.702C385.944 274.125 386.917 273.83 387.62 273.239C388.323 272.648 388.675 271.843 388.675 270.824C388.675 269.612 388.323 268.659 387.62 267.967C386.917 267.264 385.944 266.912 384.702 266.912H377.061V274.125ZM377.061 263.795H383.234C384.202 263.795 385.033 263.662 385.725 263.397C386.418 263.122 386.948 262.735 387.315 262.236C387.692 261.727 387.88 261.126 387.88 260.433C387.88 259.445 387.467 258.67 386.642 258.11C385.817 257.54 384.681 257.254 383.234 257.254H377.061V263.795ZM400.919 262.45H407.643C410.393 262.45 412.497 263.148 413.954 264.544C415.411 265.939 416.139 267.707 416.139 269.846C416.139 271.252 415.813 272.531 415.161 273.682C414.509 274.823 413.552 275.735 412.288 276.417C411.025 277.09 409.477 277.426 407.643 277.426H397.802V253.953H401.408V274.064H407.643C409.069 274.064 410.241 273.687 411.158 272.933C412.074 272.179 412.533 271.211 412.533 270.03C412.533 268.787 412.074 267.773 411.158 266.989C410.241 266.204 409.069 265.812 407.643 265.812H400.919V262.45ZM419.868 277.426V253.953H423.474V277.426H419.868ZM433.682 272.108L444.991 253.953H449.147V277.426H445.541V259.271L434.294 277.426H430.076V253.953H433.682V272.108ZM442.607 246.129H445.969C445.969 247.78 445.398 249.13 444.257 250.179C443.116 251.228 441.568 251.753 439.612 251.753C437.686 251.753 436.153 251.228 435.012 250.179C433.881 249.13 433.316 247.78 433.316 246.129H436.678C436.678 246.924 436.897 247.622 437.335 248.223C437.783 248.824 438.542 249.125 439.612 249.125C440.681 249.125 441.445 248.824 441.904 248.223C442.372 247.622 442.607 246.924 442.607 246.129ZM284.19 329.426V305.953H302.65V329.426H299.043V309.315H287.796V329.426H284.19ZM318.772 329.915C316.653 329.915 314.793 329.41 313.194 328.402C311.605 327.393 310.362 325.982 309.465 324.169C308.579 322.356 308.136 320.237 308.136 317.812C308.136 315.367 308.579 313.233 309.465 311.409C310.362 309.585 311.605 308.169 313.194 307.161C314.793 306.152 316.653 305.648 318.772 305.648C320.891 305.648 322.745 306.152 324.334 307.161C325.934 308.169 327.176 309.585 328.063 311.409C328.959 313.233 329.408 315.367 329.408 317.812C329.408 320.237 328.959 322.356 328.063 324.169C327.176 325.982 325.934 327.393 324.334 328.402C322.745 329.41 320.891 329.915 318.772 329.915ZM318.772 326.675C320.381 326.675 321.706 326.263 322.745 325.437C323.784 324.612 324.553 323.527 325.052 322.182C325.551 320.838 325.801 319.381 325.801 317.812C325.801 316.243 325.551 314.781 325.052 313.426C324.553 312.071 323.784 310.976 322.745 310.141C321.706 309.305 320.381 308.888 318.772 308.888C317.162 308.888 315.838 309.305 314.798 310.141C313.759 310.976 312.99 312.071 312.491 313.426C311.992 314.781 311.742 316.243 311.742 317.812C311.742 319.381 311.992 320.838 312.491 322.182C312.99 323.527 313.759 324.612 314.798 325.437C315.838 326.263 317.162 326.675 318.772 326.675ZM332.834 329.426V326.064H333.69C334.393 326.064 334.979 325.926 335.448 325.651C335.916 325.366 336.293 324.872 336.578 324.169C336.874 323.456 337.098 322.468 337.251 321.204C337.414 319.931 337.531 318.311 337.602 316.345L338.03 305.953H353.678V329.426H350.072V309.315H341.453L341.086 317.69C341.005 319.615 340.832 321.311 340.567 322.778C340.312 324.235 339.92 325.458 339.39 326.446C338.871 327.434 338.178 328.178 337.312 328.677C336.446 329.176 335.361 329.426 334.057 329.426H332.834ZM370.136 329.915C367.875 329.915 365.924 329.416 364.284 328.417C362.654 327.409 361.395 326.003 360.509 324.2C359.633 322.386 359.195 320.277 359.195 317.873C359.195 315.469 359.633 313.35 360.509 311.516C361.395 309.672 362.628 308.236 364.207 307.207C365.796 306.167 367.651 305.648 369.77 305.648C370.992 305.648 372.199 305.852 373.391 306.259C374.583 306.667 375.668 307.329 376.646 308.246C377.624 309.152 378.404 310.355 378.984 311.852C379.565 313.35 379.855 315.194 379.855 317.384V318.912H361.762V315.795H376.188C376.188 314.47 375.923 313.289 375.393 312.249C374.874 311.21 374.13 310.39 373.162 309.789C372.204 309.188 371.074 308.888 369.77 308.888C368.333 308.888 367.09 309.244 366.041 309.957C365.002 310.66 364.202 311.577 363.642 312.708C363.081 313.839 362.801 315.051 362.801 316.345V318.423C362.801 320.196 363.107 321.698 363.718 322.931C364.34 324.154 365.2 325.086 366.301 325.728C367.401 326.359 368.68 326.675 370.136 326.675C371.084 326.675 371.94 326.543 372.704 326.278C373.478 326.003 374.145 325.595 374.706 325.055C375.266 324.505 375.699 323.823 376.004 323.008L379.489 323.986C379.122 325.167 378.506 326.206 377.64 327.103C376.774 327.989 375.704 328.682 374.43 329.181C373.157 329.67 371.726 329.915 370.136 329.915ZM383.156 309.315V305.953H402.227V309.315H394.526V329.426H390.919V309.315H383.156Z" fill="white"/>
</svg>
