<svg width="240" height="186" viewBox="0 0 240 186" fill="none" xmlns="http://www.w3.org/2000/svg">
<ellipse cx="120" cy="90.6437" rx="120" ry="90.6437" fill="#484848"/>
<path d="M16.4252 178.143L17.4749 137.923L45.9245 150.784L16.4252 178.143Z" fill="#484848"/>
<path d="M97.3251 80.254V99.1631H95.0353V80.254H97.3251ZM84.5467 99.1631L90.6774 89.3023L85.0637 80.254H87.8336L92.7456 88.6375H99.6518L104.564 80.254H107.334L101.683 89.3392L107.814 99.1631H105.192L100.058 90.7796H92.3024L87.1319 99.1631H84.5467ZM115.729 99.4585C114.362 99.4585 113.183 99.1569 112.192 98.5537C111.208 97.9443 110.447 97.0949 109.912 96.0054C109.383 94.9098 109.118 93.6356 109.118 92.183C109.118 90.7303 109.383 89.45 109.912 88.3421C110.447 87.228 111.192 86.3601 112.146 85.7384C113.107 85.1105 114.227 84.7966 115.507 84.7966C116.246 84.7966 116.975 84.9197 117.695 85.1659C118.415 85.4121 119.071 85.8122 119.662 86.3662C120.253 86.914 120.724 87.6404 121.075 88.5452C121.425 89.45 121.601 90.5641 121.601 91.8875V92.8108H110.669V90.9273H119.385C119.385 90.1271 119.225 89.4131 118.905 88.7852C118.591 88.1574 118.142 87.6619 117.557 87.2987C116.978 86.9356 116.295 86.754 115.507 86.754C114.639 86.754 113.888 86.9694 113.254 87.4003C112.626 87.825 112.143 88.379 111.805 89.0622C111.466 89.7455 111.297 90.478 111.297 91.2597V92.5154C111.297 93.5864 111.482 94.4943 111.851 95.2391C112.226 95.9777 112.746 96.5409 113.411 96.9287C114.076 97.3103 114.848 97.5012 115.729 97.5012C116.301 97.5012 116.818 97.4211 117.28 97.2611C117.748 97.0949 118.151 96.8487 118.489 96.5225C118.828 96.1901 119.089 95.7777 119.274 95.2852L121.379 95.8762C121.158 96.5902 120.785 97.218 120.262 97.7597C119.739 98.2952 119.093 98.7137 118.323 99.0154C117.554 99.3108 116.689 99.4585 115.729 99.4585ZM130.677 99.4585C129.347 99.4585 128.202 99.1446 127.242 98.5168C126.282 97.8889 125.543 97.0241 125.026 95.9223C124.509 94.8205 124.251 93.5618 124.251 92.146C124.251 90.7057 124.515 89.4346 125.045 88.3328C125.58 87.2249 126.325 86.3601 127.279 85.7384C128.239 85.1105 129.36 84.7966 130.64 84.7966C131.637 84.7966 132.536 84.9813 133.336 85.3506C134.136 85.7199 134.792 86.2369 135.303 86.9017C135.813 87.5665 136.13 88.3421 136.254 89.2284H134.075C133.908 88.5821 133.539 88.0097 132.967 87.5111C132.4 87.0064 131.637 86.754 130.677 86.754C129.827 86.754 129.083 86.9756 128.442 87.4188C127.808 87.8558 127.313 88.4744 126.956 89.2746C126.605 90.0686 126.43 91.0012 126.43 92.0722C126.43 93.1678 126.602 94.1219 126.947 94.9344C127.298 95.7469 127.79 96.3778 128.424 96.8271C129.064 97.2765 129.815 97.5012 130.677 97.5012C131.243 97.5012 131.757 97.4027 132.219 97.2057C132.68 97.0087 133.071 96.7256 133.391 96.3563C133.711 95.9869 133.939 95.5438 134.075 95.0267H136.254C136.13 95.8638 135.826 96.6179 135.339 97.2888C134.859 97.9536 134.222 98.4829 133.428 98.8769C132.64 99.2646 131.723 99.4585 130.677 99.4585ZM138.322 87.0125V84.9813H149.844V87.0125H145.191V99.1631H143.012V87.0125H138.322ZM154.906 90.1148H158.969C160.631 90.1148 161.902 90.5364 162.782 91.3797C163.662 92.223 164.102 93.2909 164.102 94.5835C164.102 95.433 163.905 96.2055 163.512 96.901C163.118 97.5904 162.539 98.1413 161.776 98.5537C161.012 98.96 160.077 99.1631 158.969 99.1631H153.023V84.9813H155.202V97.1318H158.969C159.831 97.1318 160.539 96.9041 161.093 96.4486C161.646 95.9931 161.923 95.4084 161.923 94.6943C161.923 93.9434 161.646 93.3309 161.093 92.857C160.539 92.383 159.831 92.146 158.969 92.146H154.906V90.1148Z" fill="white"/>
</svg>
