<svg width="233" height="181" viewBox="0 0 233 181" fill="none" xmlns="http://www.w3.org/2000/svg">
<ellipse cx="116.5" cy="88" rx="116.5" ry="88" fill="#484848"/>
<path d="M15.9463 172.947L16.9654 133.9L44.5853 146.386L15.9463 172.947Z" fill="#484848"/>
<path d="M93.6901 78.0909V97H91.4003V78.0909H93.6901ZM80.9117 97L87.0423 87.1392L81.4287 78.0909H84.1986L89.1105 86.4744H96.0168L100.929 78.0909H103.699L98.048 87.1761L104.179 97H101.557L96.423 88.6165H88.6673L83.4969 97H80.9117ZM112.094 97.2955C110.727 97.2955 109.548 96.9938 108.557 96.3906C107.573 95.7812 106.812 94.9318 106.277 93.8423C105.748 92.7467 105.483 91.4725 105.483 90.0199C105.483 88.5672 105.748 87.2869 106.277 86.179C106.812 85.0649 107.557 84.197 108.511 83.5753C109.472 82.9474 110.592 82.6335 111.872 82.6335C112.611 82.6335 113.34 82.7566 114.06 83.0028C114.78 83.2491 115.436 83.6491 116.027 84.2031C116.618 84.7509 117.089 85.4773 117.44 86.3821C117.79 87.2869 117.966 88.401 117.966 89.7244V90.6477H107.034V88.7642H115.75C115.75 87.964 115.59 87.25 115.27 86.6222C114.956 85.9943 114.507 85.4988 113.922 85.1357C113.343 84.7725 112.66 84.5909 111.872 84.5909C111.004 84.5909 110.253 84.8063 109.619 85.2372C108.991 85.6619 108.508 86.2159 108.17 86.8991C107.831 87.5824 107.662 88.3149 107.662 89.0966V90.3523C107.662 91.4233 107.847 92.3312 108.216 93.076C108.591 93.8146 109.111 94.3778 109.776 94.7656C110.441 95.1473 111.213 95.3381 112.094 95.3381C112.666 95.3381 113.183 95.258 113.645 95.098C114.113 94.9318 114.516 94.6856 114.854 94.3594C115.193 94.027 115.454 93.6146 115.639 93.1222L117.744 93.7131C117.523 94.4271 117.15 95.0549 116.627 95.5966C116.104 96.1321 115.458 96.5507 114.688 96.8523C113.919 97.1477 113.054 97.2955 112.094 97.2955ZM127.042 97.2955C125.712 97.2955 124.567 96.9815 123.607 96.3537C122.647 95.7259 121.908 94.861 121.391 93.7592C120.874 92.6574 120.616 91.3987 120.616 89.983C120.616 88.5426 120.88 87.2715 121.41 86.1697C121.945 85.0618 122.69 84.197 123.644 83.5753C124.604 82.9474 125.725 82.6335 127.005 82.6335C128.002 82.6335 128.901 82.8182 129.701 83.1875C130.501 83.5568 131.157 84.0739 131.668 84.7386C132.178 85.4034 132.495 86.179 132.619 87.0653H130.44C130.273 86.419 129.904 85.8466 129.332 85.348C128.765 84.8433 128.002 84.5909 127.042 84.5909C126.192 84.5909 125.448 84.8125 124.807 85.2557C124.173 85.6927 123.678 86.3113 123.321 87.1115C122.97 87.9055 122.795 88.8381 122.795 89.9091C122.795 91.0047 122.967 91.9588 123.312 92.7713C123.663 93.5838 124.155 94.2147 124.789 94.6641C125.429 95.1134 126.18 95.3381 127.042 95.3381C127.608 95.3381 128.122 95.2396 128.584 95.0426C129.045 94.8456 129.436 94.5625 129.756 94.1932C130.076 93.8239 130.304 93.3807 130.44 92.8636H132.619C132.495 93.7008 132.191 94.4548 131.704 95.1257C131.224 95.7905 130.587 96.3198 129.793 96.7138C129.005 97.1016 128.088 97.2955 127.042 97.2955ZM134.687 84.8494V82.8182H146.209V84.8494H141.556V97H139.377V84.8494H134.687ZM151.271 87.9517H155.334C156.996 87.9517 158.267 88.3733 159.147 89.2166C160.027 90.0599 160.467 91.1278 160.467 92.4205C160.467 93.2699 160.27 94.0424 159.877 94.7379C159.483 95.4273 158.904 95.9782 158.141 96.3906C157.377 96.7969 156.442 97 155.334 97H149.388V82.8182H151.567V94.9688H155.334C156.196 94.9688 156.903 94.741 157.457 94.2855C158.011 93.83 158.288 93.2453 158.288 92.5312C158.288 91.7803 158.011 91.1679 157.457 90.6939C156.903 90.2199 156.196 89.983 155.334 89.983H151.271V87.9517Z" fill="white"/>
</svg>
