<svg width="238" height="101" viewBox="0 0 238 101" fill="none" xmlns="http://www.w3.org/2000/svg">
<ellipse cx="121.5" cy="39.5" rx="116.5" ry="39.5" fill="#484848"/>
<path d="M15.9462 92.9472L16.9653 53.9004L44.5852 66.386L15.9462 92.9472Z" fill="#484848"/>
<path d="M84.4801 30.0909V49H82.1903V30.0909H84.4801ZM71.7017 49L77.8324 39.1392L72.2188 30.0909H74.9886L79.9006 38.4744H86.8068L91.7188 30.0909H94.4886L88.8381 39.1761L94.9688 49H92.3466L87.2131 40.6165H79.4574L74.2869 49H71.7017ZM103.62 49.2955C102.254 49.2955 101.075 48.9938 100.084 48.3906C99.099 47.7812 98.3388 46.9318 97.8033 45.8423C97.2739 44.7467 97.0092 43.4725 97.0092 42.0199C97.0092 40.5672 97.2739 39.2869 97.8033 38.179C98.3388 37.0649 99.0836 36.197 100.038 35.5753C100.998 34.9474 102.118 34.6335 103.398 34.6335C104.137 34.6335 104.866 34.7566 105.587 35.0028C106.307 35.2491 106.962 35.6491 107.553 36.2031C108.144 36.7509 108.615 37.4773 108.966 38.3821C109.317 39.2869 109.492 40.401 109.492 41.7244V42.6477H98.5604V40.7642H107.276C107.276 39.964 107.116 39.25 106.796 38.6222C106.482 37.9943 106.033 37.4988 105.448 37.1357C104.87 36.7725 104.186 36.5909 103.398 36.5909C102.531 36.5909 101.78 36.8063 101.146 37.2372C100.518 37.6619 100.035 38.2159 99.696 38.8991C99.3575 39.5824 99.1882 40.3149 99.1882 41.0966V42.3523C99.1882 43.4233 99.3729 44.3312 99.7422 45.076C100.118 45.8146 100.638 46.3778 101.303 46.7656C101.967 47.1473 102.74 47.3381 103.62 47.3381C104.192 47.3381 104.71 47.258 105.171 47.098C105.639 46.9318 106.042 46.6856 106.381 46.3594C106.719 46.027 106.981 45.6146 107.165 45.1222L109.271 45.7131C109.049 46.4271 108.677 47.0549 108.153 47.5966C107.63 48.1321 106.984 48.5507 106.214 48.8523C105.445 49.1477 104.58 49.2955 103.62 49.2955ZM118.568 49.2955C117.239 49.2955 116.094 48.9815 115.134 48.3537C114.173 47.7259 113.435 46.861 112.918 45.7592C112.401 44.6574 112.142 43.3987 112.142 41.983C112.142 40.5426 112.407 39.2715 112.936 38.1697C113.472 37.0618 114.216 36.197 115.17 35.5753C116.131 34.9474 117.251 34.6335 118.531 34.6335C119.528 34.6335 120.427 34.8182 121.227 35.1875C122.027 35.5568 122.683 36.0739 123.194 36.7386C123.705 37.4034 124.022 38.179 124.145 39.0653H121.966C121.8 38.419 121.43 37.8466 120.858 37.348C120.292 36.8433 119.528 36.5909 118.568 36.5909C117.719 36.5909 116.974 36.8125 116.334 37.2557C115.7 37.6927 115.204 38.3113 114.847 39.1115C114.496 39.9055 114.321 40.8381 114.321 41.9091C114.321 43.0047 114.493 43.9588 114.838 44.7713C115.189 45.5838 115.681 46.2147 116.315 46.6641C116.955 47.1134 117.706 47.3381 118.568 47.3381C119.134 47.3381 119.648 47.2396 120.11 47.0426C120.572 46.8456 120.963 46.5625 121.283 46.1932C121.603 45.8239 121.83 45.3807 121.966 44.8636H124.145C124.022 45.7008 123.717 46.4548 123.231 47.1257C122.751 47.7905 122.114 48.3198 121.32 48.7138C120.532 49.1016 119.615 49.2955 118.568 49.2955ZM126.213 36.8494V34.8182H137.736V36.8494H133.082V49H130.903V36.8494H126.213ZM142.798 39.9517H146.86C148.522 39.9517 149.793 40.3733 150.673 41.2166C151.554 42.0599 151.994 43.1278 151.994 44.4205C151.994 45.2699 151.797 46.0424 151.403 46.7379C151.009 47.4273 150.43 47.9782 149.667 48.3906C148.904 48.7969 147.968 49 146.86 49H140.914V34.8182H143.093V46.9688H146.86C147.722 46.9688 148.43 46.741 148.984 46.2855C149.538 45.83 149.815 45.2453 149.815 44.5312C149.815 43.7803 149.538 43.1679 148.984 42.6939C148.43 42.2199 147.722 41.983 146.86 41.983H142.798V39.9517ZM156.899 49.1477C156.443 49.1477 156.052 48.9846 155.726 48.6584C155.4 48.3321 155.237 47.9413 155.237 47.4858C155.237 47.0303 155.4 46.6394 155.726 46.3132C156.052 45.987 156.443 45.8239 156.899 45.8239C157.354 45.8239 157.745 45.987 158.071 46.3132C158.398 46.6394 158.561 47.0303 158.561 47.4858C158.561 47.7874 158.484 48.0644 158.33 48.3168C158.182 48.5691 157.982 48.7723 157.73 48.9261C157.484 49.0739 157.207 49.1477 156.899 49.1477ZM164.059 49.1477C163.603 49.1477 163.213 48.9846 162.886 48.6584C162.56 48.3321 162.397 47.9413 162.397 47.4858C162.397 47.0303 162.56 46.6394 162.886 46.3132C163.213 45.987 163.603 45.8239 164.059 45.8239C164.514 45.8239 164.905 45.987 165.232 46.3132C165.558 46.6394 165.721 47.0303 165.721 47.4858C165.721 47.7874 165.644 48.0644 165.49 48.3168C165.342 48.5691 165.142 48.7723 164.89 48.9261C164.644 49.0739 164.367 49.1477 164.059 49.1477ZM171.219 49.1477C170.764 49.1477 170.373 48.9846 170.047 48.6584C169.72 48.3321 169.557 47.9413 169.557 47.4858C169.557 47.0303 169.72 46.6394 170.047 46.3132C170.373 45.987 170.764 45.8239 171.219 45.8239C171.675 45.8239 172.065 45.987 172.392 46.3132C172.718 46.6394 172.881 47.0303 172.881 47.4858C172.881 47.7874 172.804 48.0644 172.65 48.3168C172.502 48.5691 172.302 48.7723 172.05 48.9261C171.804 49.0739 171.527 49.1477 171.219 49.1477Z" fill="white"/>
</svg>
