<svg width="733" height="562" viewBox="0 0 733 562" fill="none" xmlns="http://www.w3.org/2000/svg">
<path d="M388.557 458.656C453.623 427.113 505.179 353.039 519.114 326.715L421.098 352.023C417.378 366.991 390.794 428.368 388.557 458.656Z" fill="#FF5732" stroke="black" stroke-width="5"/>
<path d="M481.115 231.921C596.986 186.049 626.914 199.17 666.913 205.005C748.138 226.32 639.549 317.363 517.48 356.502C382.437 406.901 198.658 343.345 160.401 316.326C120.362 321.813 45.1978 337.111 35.4069 326.461C48.7863 322.97 91.1382 272.283 108.377 273.938C97.7146 264.261 56.9283 234.74 50.271 219.709C76.5624 226.025 159.972 254.703 178.644 264.977C197.316 275.252 374.137 270.503 481.115 231.921Z" fill="#FF5732" stroke="black" stroke-width="5"/>
<path d="M389.58 457.074C453.136 426.26 503.485 353.877 517.093 328.154L421.348 352.867C417.717 367.496 391.759 427.474 389.58 457.074Z" fill="#FF5732"/>
<path d="M495.329 363.621C503.927 355.192 520.801 335.023 522.28 321.623" stroke="black" stroke-width="5"/>
<ellipse cx="6.13246" cy="5.91345" rx="6.13246" ry="5.91345" transform="matrix(-0.929789 0.368093 0.368093 0.929789 561.248 297.481)" fill="black"/>
</svg>
