<svg width="543" height="413" viewBox="0 0 543 413" fill="none" xmlns="http://www.w3.org/2000/svg">
<path d="M287.843 336.329C335.994 312.986 374.147 258.168 384.459 238.688L311.924 257.416C309.171 268.494 289.498 313.914 287.843 336.329Z" fill="#FF5732" stroke="black" stroke-width="5"/>
<path d="M356.339 168.537C442.087 134.59 464.234 144.3 493.835 148.619C553.944 164.393 473.585 231.767 383.25 260.731C283.314 298.029 147.311 250.995 119 231C89.3696 235.06 33.7456 246.381 26.5 238.5C36.4012 235.917 67.743 198.406 80.5 199.631C72.6098 192.47 42.4265 170.624 37.4999 159.5C56.9565 164.174 118.682 185.396 132.5 193C146.318 200.604 277.171 197.09 356.339 168.537Z" fill="#FF5732" stroke="black" stroke-width="5"/>
<path d="M288.6 335.158C335.633 312.354 372.893 258.788 382.963 239.752L312.109 258.041C309.422 268.866 290.212 313.252 288.6 335.158Z" fill="#FF5732"/>
<path d="M366.858 266C373.221 259.762 385.708 244.836 386.803 234.92" stroke="black" stroke-width="5"/>
<ellipse cx="4.53822" cy="4.37614" rx="4.53822" ry="4.37614" transform="matrix(-0.929789 0.368093 0.368093 0.929789 415.64 217.054)" fill="black"/>
</svg>
