<svg width="305" height="234" viewBox="0 0 305 234" fill="none" xmlns="http://www.w3.org/2000/svg">
<path d="M161.249 190.773C188.312 177.653 209.757 146.843 215.553 135.894L174.784 146.42C173.237 152.646 162.179 178.175 161.249 190.773Z" fill="#FF5732" stroke="black" stroke-width="5"/>
<path d="M199.747 96.4651C247.942 77.3852 260.39 82.8426 277.028 85.27C310.812 94.1358 265.646 132.004 214.873 148.283C158.703 169.247 82.2616 142.811 66.3492 131.573C49.6953 133.855 18.4314 140.218 14.359 135.788C19.924 134.336 37.5399 113.253 44.7101 113.942C40.2753 109.917 23.3106 97.6378 20.5416 91.3858C31.4773 94.0128 66.1706 105.941 73.937 110.215C81.7034 114.488 155.25 112.513 199.747 96.4651Z" fill="#FF5732" stroke="black" stroke-width="5"/>
<path d="M161.674 190.116C188.109 177.299 209.051 147.192 214.711 136.492L174.887 146.772C173.377 152.856 162.58 177.804 161.674 190.116Z" fill="#FF5732"/>
<path d="M205.66 151.245C209.236 147.739 216.254 139.35 216.87 133.776" stroke="black" stroke-width="5"/>
<ellipse cx="2.55074" cy="2.45964" rx="2.55074" ry="2.45964" transform="matrix(-0.929789 0.368093 0.368093 0.929789 233.077 123.734)" fill="black"/>
</svg>
