<svg width="339" height="260" viewBox="0 0 339 260" fill="none" xmlns="http://www.w3.org/2000/svg">
<path d="M179.369 211.687C209.399 197.129 233.195 162.941 239.626 150.791L194.388 162.471C192.671 169.38 180.401 197.708 179.369 211.687Z" fill="#FF5732" stroke="black" stroke-width="5"/>
<path d="M222.087 107.04C275.566 85.8686 289.378 91.9244 307.84 94.6179C345.328 104.456 295.21 146.475 238.871 164.539C176.543 187.801 91.7219 158.467 74.065 145.997C55.5853 148.529 20.8942 155.59 16.3753 150.674C22.5504 149.063 42.0974 125.669 50.0536 126.433C45.1327 121.967 26.3082 108.342 23.2356 101.404C35.3702 104.319 73.8668 117.555 82.4846 122.297C91.1025 127.039 172.712 124.848 222.087 107.04Z" fill="#FF5732" stroke="black" stroke-width="5"/>
<path d="M179.839 210.957C209.172 196.736 232.411 163.328 238.691 151.456L194.501 162.862C192.825 169.613 180.845 197.296 179.839 210.957Z" fill="#FF5732"/>
<path d="M228.647 167.825C232.615 163.935 240.403 154.626 241.086 148.441" stroke="black" stroke-width="5"/>
<ellipse cx="2.83037" cy="2.72928" rx="2.83037" ry="2.72928" transform="matrix(-0.929789 0.368093 0.368093 0.929789 259.07 137.299)" fill="black"/>
</svg>
