<svg width="729" height="272" viewBox="0 0 729 272" fill="none" xmlns="http://www.w3.org/2000/svg">
<rect x="34" width="661" height="272" fill="black"/>
<path d="M140.642 124L128.142 107.31H123.667V124H119.264V87.6364H123.667V103.403H125.585L140.144 87.6364H145.4L130.698 103.616L145.897 124H140.642ZM151.717 134.227C151.006 134.227 150.373 134.168 149.817 134.05C149.261 133.943 148.876 133.837 148.663 133.73L149.728 130.037C150.746 130.297 151.646 130.392 152.427 130.321C153.208 130.25 153.901 129.901 154.504 129.273C155.12 128.658 155.682 127.658 156.191 126.273L156.972 124.142L146.887 96.7273H151.433L158.961 118.46H159.245L166.774 96.7273H171.319L159.742 127.977C159.221 129.386 158.576 130.552 157.807 131.475C157.037 132.41 156.144 133.103 155.126 133.553C154.12 134.002 152.983 134.227 151.717 134.227ZM176.85 124V96.7273H198.299V124H194.108V100.634H181.04V124H176.85ZM217.031 124.568C214.569 124.568 212.409 123.982 210.55 122.81C208.704 121.638 207.259 119.999 206.218 117.892C205.188 115.785 204.673 113.323 204.673 110.506C204.673 107.665 205.188 105.185 206.218 103.066C207.259 100.947 208.704 99.3018 210.55 98.13C212.409 96.9581 214.569 96.3722 217.031 96.3722C219.493 96.3722 221.647 96.9581 223.494 98.13C225.352 99.3018 226.797 100.947 227.826 103.066C228.868 105.185 229.389 107.665 229.389 110.506C229.389 113.323 228.868 115.785 227.826 117.892C226.797 119.999 225.352 121.638 223.494 122.81C221.647 123.982 219.493 124.568 217.031 124.568ZM217.031 120.804C218.901 120.804 220.44 120.325 221.647 119.366C222.855 118.407 223.749 117.146 224.329 115.584C224.909 114.021 225.199 112.329 225.199 110.506C225.199 108.683 224.909 106.984 224.329 105.41C223.749 103.835 222.855 102.563 221.647 101.592C220.44 100.622 218.901 100.136 217.031 100.136C215.161 100.136 213.622 100.622 212.415 101.592C211.207 102.563 210.313 103.835 209.733 105.41C209.153 106.984 208.863 108.683 208.863 110.506C208.863 112.329 209.153 114.021 209.733 115.584C210.313 117.146 211.207 118.407 212.415 119.366C213.622 120.325 215.161 120.804 217.031 120.804ZM254.038 108.446V112.352H238.981V108.446H254.038ZM239.976 96.7273V124H235.785V96.7273H239.976ZM257.234 96.7273V124H253.044V96.7273H257.234ZM297.202 108.446V112.352H282.146V108.446H297.202ZM283.14 96.7273V124H278.949V96.7273H283.14ZM300.398 96.7273V124H296.208V96.7273H300.398ZM316.077 124.639C314.348 124.639 312.78 124.314 311.371 123.663C309.963 123 308.844 122.047 308.016 120.804C307.187 119.549 306.773 118.034 306.773 116.259C306.773 114.696 307.08 113.429 307.696 112.459C308.311 111.476 309.134 110.707 310.164 110.151C311.194 109.594 312.33 109.18 313.573 108.908C314.828 108.624 316.088 108.399 317.355 108.233C319.012 108.02 320.356 107.86 321.386 107.754C322.427 107.635 323.185 107.44 323.658 107.168C324.144 106.895 324.386 106.422 324.386 105.747V105.605C324.386 103.853 323.907 102.492 322.948 101.521C322.001 100.551 320.563 100.065 318.633 100.065C316.633 100.065 315.065 100.503 313.928 101.379C312.792 102.255 311.993 103.19 311.531 104.185L307.554 102.764C308.264 101.107 309.211 99.8168 310.395 98.8935C311.59 97.9583 312.892 97.3073 314.301 96.9403C315.722 96.5616 317.118 96.3722 318.491 96.3722C319.367 96.3722 320.373 96.4787 321.51 96.6918C322.658 96.893 323.765 97.3132 324.83 97.9524C325.907 98.5916 326.801 99.5563 327.511 100.847C328.222 102.137 328.577 103.865 328.577 106.031V124H324.386V120.307H324.173C323.889 120.899 323.416 121.532 322.753 122.207C322.09 122.881 321.208 123.455 320.107 123.929C319.006 124.402 317.663 124.639 316.077 124.639ZM316.716 120.875C318.373 120.875 319.77 120.549 320.906 119.898C322.054 119.247 322.918 118.407 323.498 117.377C324.09 116.347 324.386 115.264 324.386 114.128V110.293C324.209 110.506 323.818 110.701 323.214 110.879C322.623 111.044 321.936 111.192 321.155 111.322C320.385 111.441 319.634 111.547 318.9 111.642C318.178 111.725 317.592 111.796 317.142 111.855C316.053 111.997 315.035 112.228 314.088 112.548C313.153 112.855 312.395 113.323 311.815 113.95C311.247 114.566 310.963 115.406 310.963 116.472C310.963 117.928 311.502 119.028 312.579 119.774C313.668 120.508 315.047 120.875 316.716 120.875ZM361.367 124.568C358.81 124.568 356.608 123.964 354.762 122.757C352.915 121.55 351.495 119.887 350.5 117.768C349.506 115.649 349.009 113.228 349.009 110.506C349.009 107.736 349.518 105.291 350.536 103.173C351.566 101.042 352.998 99.3788 354.833 98.1832C356.679 96.9759 358.834 96.3722 361.296 96.3722C363.214 96.3722 364.942 96.7273 366.481 97.4375C368.019 98.1477 369.28 99.142 370.263 100.42C371.245 101.699 371.855 103.19 372.091 104.895H367.901C367.581 103.652 366.871 102.551 365.77 101.592C364.681 100.622 363.214 100.136 361.367 100.136C359.733 100.136 358.301 100.562 357.07 101.415C355.851 102.255 354.898 103.445 354.211 104.984C353.537 106.511 353.199 108.304 353.199 110.364C353.199 112.471 353.531 114.305 354.194 115.868C354.868 117.43 355.815 118.644 357.035 119.508C358.266 120.372 359.71 120.804 361.367 120.804C362.456 120.804 363.444 120.615 364.332 120.236C365.22 119.857 365.972 119.312 366.587 118.602C367.203 117.892 367.641 117.04 367.901 116.045H372.091C371.855 117.655 371.269 119.105 370.334 120.396C369.41 121.674 368.185 122.692 366.658 123.45C365.143 124.195 363.379 124.568 361.367 124.568ZM378.217 124V96.7273H382.407V108.588H385.177L394.978 96.7273H400.376L389.368 109.866L400.518 124H395.12L386.172 112.494H382.407V124H378.217ZM409.263 117.821L422.402 96.7273H427.232V124H423.041V102.906L409.973 124H405.073V96.7273H409.263V117.821ZM431.995 131.812V120.094H434.267C434.824 119.514 435.303 118.886 435.706 118.212C436.108 117.537 436.457 116.738 436.753 115.815C437.061 114.879 437.321 113.743 437.534 112.406C437.747 111.056 437.937 109.429 438.103 107.523L439.026 96.7273H456.355V120.094H460.546V131.812H456.355V124H436.185V131.812H431.995ZM439.026 120.094H452.165V100.634H442.932L442.222 107.523C441.926 110.375 441.559 112.867 441.121 114.998C440.683 117.129 439.985 118.827 439.026 120.094ZM466.108 124V96.7273H470.298V108.588H473.068L482.869 96.7273H488.267L477.258 109.866L488.409 124H483.011L474.062 112.494H470.298V124H466.108ZM495.662 134.227C494.952 134.227 494.319 134.168 493.762 134.05C493.206 133.943 492.821 133.837 492.608 133.73L493.673 130.037C494.691 130.297 495.591 130.392 496.372 130.321C497.153 130.25 497.846 129.901 498.45 129.273C499.065 128.658 499.627 127.658 500.136 126.273L500.918 124.142L490.832 96.7273H495.378L502.906 118.46H503.19L510.719 96.7273H515.264L503.688 127.977C503.167 129.386 502.522 130.552 501.752 131.475C500.983 132.41 500.089 133.103 499.071 133.553C498.065 134.002 496.929 134.227 495.662 134.227ZM547.571 87.6364V124H543.167V92.2528H542.954L534.076 98.1477V93.6733L543.167 87.6364H547.571ZM569.89 124.497C567.214 124.497 564.936 123.769 563.054 122.313C561.172 120.845 559.733 118.721 558.739 115.939C557.745 113.145 557.248 109.772 557.248 105.818C557.248 101.888 557.745 98.5324 558.739 95.7507C559.745 92.9571 561.189 90.8265 563.071 89.3587C564.965 87.879 567.238 87.1392 569.89 87.1392C572.541 87.1392 574.808 87.879 576.69 89.3587C578.584 90.8265 580.028 92.9571 581.022 95.7507C582.029 98.5324 582.532 101.888 582.532 105.818C582.532 109.772 582.035 113.145 581.04 115.939C580.046 118.721 578.608 120.845 576.726 122.313C574.843 123.769 572.565 124.497 569.89 124.497ZM569.89 120.591C572.541 120.591 574.601 119.312 576.069 116.756C577.536 114.199 578.27 110.553 578.27 105.818C578.27 102.67 577.933 99.9884 577.258 97.7749C576.595 95.5613 575.637 93.8745 574.382 92.7145C573.139 91.5545 571.642 90.9744 569.89 90.9744C567.262 90.9744 565.208 92.2706 563.728 94.8629C562.249 97.4434 561.509 101.095 561.509 105.818C561.509 108.967 561.84 111.642 562.503 113.844C563.166 116.045 564.119 117.72 565.362 118.869C566.617 120.017 568.126 120.591 569.89 120.591ZM607.816 117.182V115.264C607.816 113.938 608.088 112.725 608.633 111.624C609.189 110.512 609.994 109.624 611.047 108.961C612.113 108.286 613.403 107.949 614.918 107.949C616.457 107.949 617.747 108.286 618.789 108.961C619.83 109.624 620.618 110.512 621.15 111.624C621.683 112.725 621.949 113.938 621.949 115.264V117.182C621.949 118.508 621.677 119.727 621.133 120.839C620.6 121.94 619.807 122.828 618.753 123.503C617.712 124.166 616.433 124.497 614.918 124.497C613.379 124.497 612.083 124.166 611.03 123.503C609.976 122.828 609.177 121.94 608.633 120.839C608.088 119.727 607.816 118.508 607.816 117.182ZM611.438 115.264V117.182C611.438 118.283 611.698 119.271 612.219 120.147C612.74 121.011 613.64 121.443 614.918 121.443C616.161 121.443 617.037 121.011 617.546 120.147C618.067 119.271 618.327 118.283 618.327 117.182V115.264C618.327 114.163 618.079 113.181 617.581 112.317C617.084 111.441 616.196 111.003 614.918 111.003C613.675 111.003 612.781 111.441 612.237 112.317C611.704 113.181 611.438 114.163 611.438 115.264ZM589.705 96.3722V94.4545C589.705 93.1288 589.977 91.9155 590.522 90.8146C591.078 89.7019 591.883 88.8142 592.937 88.1513C594.002 87.4766 595.292 87.1392 596.807 87.1392C598.346 87.1392 599.636 87.4766 600.678 88.1513C601.72 88.8142 602.507 89.7019 603.04 90.8146C603.572 91.9155 603.839 93.1288 603.839 94.4545V96.3722C603.839 97.6979 603.566 98.9171 603.022 100.03C602.489 101.131 601.696 102.018 600.642 102.693C599.601 103.356 598.322 103.688 596.807 103.688C595.268 103.688 593.972 103.356 592.919 102.693C591.865 102.018 591.066 101.131 590.522 100.03C589.977 98.9171 589.705 97.6979 589.705 96.3722ZM593.327 94.4545V96.3722C593.327 97.473 593.588 98.4614 594.108 99.3374C594.629 100.201 595.529 100.634 596.807 100.634C598.05 100.634 598.926 100.201 599.435 99.3374C599.956 98.4614 600.216 97.473 600.216 96.3722V94.4545C600.216 93.3537 599.968 92.3712 599.471 91.5071C598.973 90.6312 598.086 90.1932 596.807 90.1932C595.564 90.1932 594.671 90.6312 594.126 91.5071C593.593 92.3712 593.327 93.3537 593.327 94.4545ZM591.054 124L616.054 87.6364H620.103L595.103 124H591.054ZM186.216 169.446V173.352H171.159V169.446H186.216ZM172.153 157.727V185H167.963V157.727H172.153ZM189.412 157.727V185H185.222V157.727H189.412ZM205.09 185.639C203.362 185.639 201.794 185.314 200.385 184.663C198.976 184 197.858 183.047 197.029 181.804C196.201 180.549 195.786 179.034 195.786 177.259C195.786 175.696 196.094 174.429 196.71 173.459C197.325 172.476 198.148 171.707 199.178 171.151C200.207 170.594 201.344 170.18 202.587 169.908C203.841 169.624 205.102 169.399 206.369 169.233C208.026 169.02 209.369 168.86 210.399 168.754C211.441 168.635 212.198 168.44 212.672 168.168C213.157 167.895 213.4 167.422 213.4 166.747V166.605C213.4 164.853 212.921 163.492 211.962 162.521C211.015 161.551 209.577 161.065 207.647 161.065C205.647 161.065 204.078 161.503 202.942 162.379C201.805 163.255 201.006 164.19 200.545 165.185L196.568 163.764C197.278 162.107 198.225 160.817 199.408 159.893C200.604 158.958 201.906 158.307 203.315 157.94C204.735 157.562 206.132 157.372 207.505 157.372C208.381 157.372 209.387 157.479 210.524 157.692C211.672 157.893 212.778 158.313 213.844 158.952C214.921 159.592 215.815 160.556 216.525 161.847C217.235 163.137 217.59 164.865 217.59 167.031V185H213.4V181.307H213.187C212.903 181.899 212.429 182.532 211.766 183.207C211.104 183.881 210.222 184.455 209.121 184.929C208.02 185.402 206.676 185.639 205.09 185.639ZM205.729 181.875C207.387 181.875 208.783 181.549 209.92 180.898C211.068 180.247 211.932 179.407 212.512 178.377C213.104 177.347 213.4 176.264 213.4 175.128V171.293C213.222 171.506 212.832 171.701 212.228 171.879C211.636 172.044 210.95 172.192 210.168 172.322C209.399 172.441 208.647 172.547 207.913 172.642C207.191 172.725 206.605 172.796 206.156 172.855C205.067 172.997 204.049 173.228 203.102 173.548C202.167 173.855 201.409 174.323 200.829 174.95C200.261 175.566 199.977 176.406 199.977 177.472C199.977 178.928 200.515 180.028 201.592 180.774C202.681 181.508 204.06 181.875 205.729 181.875ZM239.301 185V157.727H260.75V185H256.56V161.634H243.491V185H239.301ZM279.837 185.568C277.209 185.568 274.943 184.988 273.037 183.828C271.143 182.656 269.681 181.023 268.651 178.928C267.633 176.821 267.124 174.37 267.124 171.577C267.124 168.783 267.633 166.321 268.651 164.19C269.681 162.048 271.113 160.379 272.948 159.183C274.795 157.976 276.949 157.372 279.411 157.372C280.832 157.372 282.234 157.609 283.619 158.082C285.004 158.556 286.265 159.325 287.401 160.391C288.538 161.444 289.443 162.841 290.118 164.581C290.793 166.321 291.13 168.464 291.13 171.009V172.784H270.107V169.162H286.869C286.869 167.623 286.561 166.25 285.945 165.043C285.342 163.835 284.477 162.882 283.353 162.184C282.24 161.486 280.926 161.136 279.411 161.136C277.742 161.136 276.298 161.551 275.079 162.379C273.871 163.196 272.942 164.261 272.291 165.575C271.64 166.889 271.315 168.298 271.315 169.801V172.216C271.315 174.276 271.67 176.022 272.38 177.454C273.102 178.874 274.102 179.957 275.381 180.703C276.659 181.437 278.145 181.804 279.837 181.804C280.938 181.804 281.932 181.65 282.82 181.342C283.72 181.023 284.495 180.549 285.146 179.922C285.797 179.283 286.3 178.49 286.655 177.543L290.704 178.679C290.278 180.052 289.561 181.259 288.555 182.301C287.549 183.331 286.306 184.136 284.827 184.716C283.347 185.284 281.684 185.568 279.837 185.568ZM297.504 195.227V157.727H301.552V162.06H302.05C302.357 161.586 302.784 160.982 303.328 160.249C303.884 159.503 304.677 158.84 305.707 158.26C306.749 157.668 308.158 157.372 309.933 157.372C312.23 157.372 314.254 157.946 316.006 159.094C317.757 160.243 319.125 161.87 320.107 163.977C321.09 166.084 321.581 168.57 321.581 171.435C321.581 174.323 321.09 176.826 320.107 178.945C319.125 181.052 317.763 182.686 316.023 183.846C314.283 184.994 312.277 185.568 310.004 185.568C308.252 185.568 306.85 185.278 305.796 184.698C304.743 184.106 303.932 183.437 303.364 182.692C302.795 181.934 302.357 181.307 302.05 180.81H301.695V195.227H297.504ZM301.623 171.364C301.623 173.423 301.925 175.24 302.529 176.815C303.133 178.377 304.015 179.602 305.175 180.49C306.335 181.366 307.755 181.804 309.436 181.804C311.188 181.804 312.65 181.342 313.822 180.419C315.005 179.484 315.893 178.229 316.485 176.655C317.089 175.069 317.391 173.305 317.391 171.364C317.391 169.446 317.095 167.718 316.503 166.179C315.923 164.628 315.041 163.403 313.857 162.504C312.685 161.592 311.212 161.136 309.436 161.136C307.731 161.136 306.299 161.568 305.139 162.433C303.979 163.285 303.103 164.48 302.511 166.019C301.919 167.546 301.623 169.328 301.623 171.364ZM327.973 185V157.727H339.123C342.059 157.727 344.391 158.39 346.119 159.716C347.847 161.042 348.712 162.794 348.712 164.972C348.712 166.629 348.22 167.913 347.238 168.825C346.255 169.724 344.995 170.334 343.456 170.653C344.462 170.795 345.439 171.151 346.386 171.719C347.344 172.287 348.137 173.068 348.765 174.062C349.392 175.045 349.706 176.252 349.706 177.685C349.706 179.081 349.351 180.33 348.641 181.431C347.93 182.532 346.912 183.402 345.587 184.041C344.261 184.68 342.675 185 340.828 185H327.973ZM331.95 181.165H340.828C342.272 181.165 343.403 180.821 344.219 180.135C345.036 179.448 345.445 178.513 345.445 177.33C345.445 175.921 345.036 174.814 344.219 174.009C343.403 173.192 342.272 172.784 340.828 172.784H331.95V181.165ZM331.95 169.162H339.123C340.248 169.162 341.213 169.008 342.018 168.7C342.823 168.381 343.438 167.931 343.864 167.351C344.302 166.759 344.521 166.061 344.521 165.256C344.521 164.107 344.042 163.208 343.083 162.557C342.124 161.894 340.804 161.562 339.123 161.562H331.95V169.162ZM359.671 167.599H367.484C370.68 167.599 373.124 168.41 374.817 170.032C376.51 171.654 377.356 173.707 377.356 176.193C377.356 177.827 376.977 179.312 376.22 180.65C375.462 181.976 374.349 183.035 372.881 183.828C371.414 184.609 369.614 185 367.484 185H356.049V157.727H360.239V181.094H367.484C369.141 181.094 370.502 180.656 371.568 179.78C372.633 178.904 373.166 177.779 373.166 176.406C373.166 174.962 372.633 173.784 371.568 172.873C370.502 171.961 369.141 171.506 367.484 171.506H359.671V167.599ZM381.688 185V157.727H385.879V185H381.688ZM397.739 178.821L410.879 157.727H415.708V185H411.518V163.906L398.45 185H393.549V157.727H397.739V178.821ZM408.109 148.636H412.015C412.015 150.554 411.352 152.122 410.026 153.342C408.701 154.561 406.901 155.17 404.629 155.17C402.391 155.17 400.61 154.561 399.284 153.342C397.97 152.122 397.313 150.554 397.313 148.636H401.22C401.22 149.56 401.474 150.371 401.983 151.069C402.504 151.767 403.386 152.116 404.629 152.116C405.872 152.116 406.759 151.767 407.292 151.069C407.837 150.371 408.109 149.56 408.109 148.636ZM437.446 185V157.727H458.894V185H454.704V161.634H441.636V185H437.446ZM477.627 185.568C475.165 185.568 473.004 184.982 471.146 183.81C469.299 182.638 467.855 180.999 466.813 178.892C465.784 176.785 465.269 174.323 465.269 171.506C465.269 168.665 465.784 166.185 466.813 164.066C467.855 161.947 469.299 160.302 471.146 159.13C473.004 157.958 475.165 157.372 477.627 157.372C480.089 157.372 482.243 157.958 484.09 159.13C485.948 160.302 487.392 161.947 488.422 164.066C489.464 166.185 489.985 168.665 489.985 171.506C489.985 174.323 489.464 176.785 488.422 178.892C487.392 180.999 485.948 182.638 484.09 183.81C482.243 184.982 480.089 185.568 477.627 185.568ZM477.627 181.804C479.497 181.804 481.036 181.325 482.243 180.366C483.451 179.407 484.344 178.146 484.924 176.584C485.504 175.021 485.794 173.329 485.794 171.506C485.794 169.683 485.504 167.984 484.924 166.41C484.344 164.835 483.451 163.563 482.243 162.592C481.036 161.622 479.497 161.136 477.627 161.136C475.756 161.136 474.218 161.622 473.01 162.592C471.803 163.563 470.909 164.835 470.329 166.41C469.749 167.984 469.459 169.683 469.459 171.506C469.459 173.329 469.749 175.021 470.329 176.584C470.909 178.146 471.803 179.407 473.01 180.366C474.218 181.325 475.756 181.804 477.627 181.804ZM493.966 185V181.094H494.961C495.777 181.094 496.458 180.934 497.003 180.614C497.547 180.283 497.985 179.709 498.316 178.892C498.66 178.063 498.92 176.915 499.098 175.447C499.287 173.968 499.423 172.086 499.506 169.801L500.003 157.727H518.185V185H513.995V161.634H503.981L503.554 171.364C503.46 173.601 503.258 175.572 502.951 177.276C502.655 178.969 502.199 180.389 501.584 181.538C500.98 182.686 500.175 183.55 499.169 184.13C498.163 184.71 496.902 185 495.387 185H493.966ZM537.308 185.568C534.68 185.568 532.413 184.988 530.508 183.828C528.614 182.656 527.152 181.023 526.122 178.928C525.104 176.821 524.595 174.37 524.595 171.577C524.595 168.783 525.104 166.321 526.122 164.19C527.152 162.048 528.584 160.379 530.419 159.183C532.265 157.976 534.42 157.372 536.882 157.372C538.302 157.372 539.705 157.609 541.09 158.082C542.475 158.556 543.736 159.325 544.872 160.391C546.008 161.444 546.914 162.841 547.589 164.581C548.263 166.321 548.601 168.464 548.601 171.009V172.784H527.578V169.162H544.339C544.339 167.623 544.031 166.25 543.416 165.043C542.812 163.835 541.948 162.882 540.824 162.184C539.711 161.486 538.397 161.136 536.882 161.136C535.213 161.136 533.769 161.551 532.549 162.379C531.342 163.196 530.413 164.261 529.762 165.575C529.111 166.889 528.785 168.298 528.785 169.801V172.216C528.785 174.276 529.14 176.022 529.851 177.454C530.573 178.874 531.573 179.957 532.851 180.703C534.13 181.437 535.615 181.804 537.308 181.804C538.409 181.804 539.403 181.65 540.291 181.342C541.191 181.023 541.966 180.549 542.617 179.922C543.268 179.283 543.771 178.49 544.126 177.543L548.174 178.679C547.748 180.052 547.032 181.259 546.026 182.301C545.02 183.331 543.777 184.136 542.297 184.716C540.818 185.284 539.155 185.568 537.308 185.568ZM552.436 161.634V157.727H574.595V161.634H565.646V185H561.456V161.634H552.436Z" fill="white"/>
<circle cx="695" cy="34" r="34" fill="#FF5732"/>
<circle cx="34" cy="34" r="34" fill="#FF5732"/>
<circle cx="695" cy="102" r="34" fill="#FF5732"/>
<circle cx="34" cy="102" r="34" fill="#FF5732"/>
<circle cx="695" cy="170" r="34" fill="#FF5732"/>
<circle cx="34" cy="170" r="34" fill="#FF5732"/>
<circle cx="695" cy="238" r="34" fill="#FF5732"/>
<circle cx="34" cy="238" r="34" fill="#FF5732"/>
</svg>
