<svg width="1000" height="374" viewBox="0 0 1000 374" fill="none" xmlns="http://www.w3.org/2000/svg">
<rect x="46.6406" width="906.722" height="373.114" fill="black"/>
<path d="M278.37 151.881L265.87 135.191H261.395V151.881H256.992V115.517H261.395V131.284H263.313L277.873 115.517H283.128L268.426 131.497L283.625 151.881H278.37ZM289.445 162.108C288.735 162.108 288.101 162.049 287.545 161.931C286.989 161.824 286.604 161.718 286.391 161.611L287.456 157.918C288.474 158.178 289.374 158.273 290.155 158.202C290.936 158.131 291.629 157.782 292.232 157.154C292.848 156.539 293.41 155.539 293.919 154.154L294.7 152.023L284.615 124.608H289.161L296.689 146.341H296.973L304.502 124.608H309.047L297.47 155.858C296.95 157.267 296.304 158.433 295.535 159.356C294.766 160.291 293.872 160.984 292.854 161.433C291.848 161.883 290.711 162.108 289.445 162.108ZM314.578 151.881V124.608H336.027V151.881H331.836V128.514H318.768V151.881H314.578ZM354.759 152.449C352.297 152.449 350.137 151.863 348.278 150.691C346.432 149.519 344.987 147.88 343.946 145.773C342.916 143.666 342.401 141.204 342.401 138.387C342.401 135.546 342.916 133.066 343.946 130.947C344.987 128.828 346.432 127.183 348.278 126.011C350.137 124.839 352.297 124.253 354.759 124.253C357.221 124.253 359.376 124.839 361.222 126.011C363.081 127.183 364.525 128.828 365.554 130.947C366.596 133.066 367.117 135.546 367.117 138.387C367.117 141.204 366.596 143.666 365.554 145.773C364.525 147.88 363.081 149.519 361.222 150.691C359.376 151.863 357.221 152.449 354.759 152.449ZM354.759 148.685C356.629 148.685 358.168 148.205 359.376 147.247C360.583 146.288 361.477 145.027 362.057 143.465C362.637 141.902 362.927 140.209 362.927 138.387C362.927 136.564 362.637 134.865 362.057 133.291C361.477 131.716 360.583 130.444 359.376 129.473C358.168 128.503 356.629 128.017 354.759 128.017C352.889 128.017 351.35 128.503 350.143 129.473C348.935 130.444 348.041 131.716 347.461 133.291C346.881 134.865 346.591 136.564 346.591 138.387C346.591 140.209 346.881 141.902 347.461 143.465C348.041 145.027 348.935 146.288 350.143 147.247C351.35 148.205 352.889 148.685 354.759 148.685ZM391.766 136.327V140.233H376.71V136.327H391.766ZM377.704 124.608V151.881H373.513V124.608H377.704ZM394.962 124.608V151.881H390.772V124.608H394.962ZM434.93 136.327V140.233H419.874V136.327H434.93ZM420.868 124.608V151.881H416.678V124.608H420.868ZM438.126 124.608V151.881H433.936V124.608H438.126ZM453.805 152.52C452.076 152.52 450.508 152.195 449.099 151.544C447.691 150.881 446.572 149.928 445.744 148.685C444.915 147.43 444.501 145.915 444.501 144.139C444.501 142.577 444.808 141.31 445.424 140.34C446.04 139.357 446.862 138.588 447.892 138.031C448.922 137.475 450.058 137.061 451.301 136.789C452.556 136.504 453.817 136.28 455.083 136.114C456.74 135.901 458.084 135.741 459.114 135.634C460.155 135.516 460.913 135.321 461.386 135.048C461.872 134.776 462.114 134.303 462.114 133.628V133.486C462.114 131.734 461.635 130.373 460.676 129.402C459.729 128.432 458.291 127.946 456.361 127.946C454.361 127.946 452.793 128.384 451.656 129.26C450.52 130.136 449.721 131.071 449.259 132.066L445.282 130.645C445.992 128.988 446.939 127.698 448.123 126.774C449.318 125.839 450.62 125.188 452.029 124.821C453.45 124.442 454.846 124.253 456.219 124.253C457.095 124.253 458.102 124.36 459.238 124.573C460.386 124.774 461.493 125.194 462.558 125.833C463.635 126.472 464.529 127.437 465.239 128.727C465.95 130.018 466.305 131.746 466.305 133.912V151.881H462.114V148.188H461.901C461.617 148.78 461.144 149.413 460.481 150.088C459.818 150.762 458.936 151.336 457.835 151.81C456.734 152.283 455.391 152.52 453.805 152.52ZM454.444 148.756C456.101 148.756 457.498 148.43 458.634 147.779C459.782 147.128 460.647 146.288 461.227 145.258C461.818 144.228 462.114 143.145 462.114 142.009V138.173C461.937 138.387 461.546 138.582 460.942 138.759C460.351 138.925 459.664 139.073 458.883 139.203C458.113 139.322 457.362 139.428 456.628 139.523C455.906 139.606 455.32 139.677 454.87 139.736C453.781 139.878 452.763 140.109 451.816 140.428C450.881 140.736 450.123 141.204 449.543 141.831C448.975 142.447 448.691 143.287 448.691 144.352C448.691 145.808 449.23 146.909 450.307 147.655C451.396 148.389 452.775 148.756 454.444 148.756ZM499.095 152.449C496.538 152.449 494.336 151.845 492.49 150.638C490.643 149.431 489.223 147.767 488.229 145.649C487.234 143.53 486.737 141.109 486.737 138.387C486.737 135.617 487.246 133.172 488.264 131.053C489.294 128.923 490.726 127.26 492.561 126.064C494.407 124.857 496.562 124.253 499.024 124.253C500.942 124.253 502.67 124.608 504.209 125.318C505.747 126.029 507.008 127.023 507.991 128.301C508.973 129.58 509.583 131.071 509.819 132.776H505.629C505.309 131.533 504.599 130.432 503.498 129.473C502.409 128.503 500.942 128.017 499.095 128.017C497.461 128.017 496.029 128.443 494.798 129.296C493.579 130.136 492.626 131.326 491.939 132.865C491.265 134.392 490.927 136.185 490.927 138.244C490.927 140.352 491.259 142.186 491.922 143.749C492.596 145.311 493.543 146.525 494.763 147.389C495.994 148.253 497.438 148.685 499.095 148.685C500.184 148.685 501.172 148.495 502.06 148.117C502.948 147.738 503.7 147.193 504.315 146.483C504.931 145.773 505.369 144.921 505.629 143.926H509.819C509.583 145.536 508.997 146.986 508.062 148.276C507.138 149.555 505.913 150.573 504.386 151.33C502.871 152.076 501.107 152.449 499.095 152.449ZM515.945 151.881V124.608H520.135V136.469H522.905L532.706 124.608H538.104L527.096 137.747L538.246 151.881H532.849L523.9 140.375H520.135V151.881H515.945ZM546.991 145.702L560.13 124.608H564.96V151.881H560.769V130.787L547.701 151.881H542.801V124.608H546.991V145.702ZM569.723 159.693V147.975H571.995C572.552 147.395 573.031 146.767 573.434 146.093C573.836 145.418 574.185 144.619 574.481 143.695C574.789 142.76 575.049 141.624 575.262 140.286C575.475 138.937 575.665 137.309 575.831 135.404L576.754 124.608H594.083V147.975H598.274V159.693H594.083V151.881H573.913V159.693H569.723ZM576.754 147.975H589.893V128.514H580.66L579.95 135.404C579.654 138.256 579.287 140.748 578.849 142.879C578.411 145.009 577.713 146.708 576.754 147.975ZM603.836 151.881V124.608H608.026V136.469H610.796L620.597 124.608H625.995L614.986 137.747L626.137 151.881H620.739L611.79 140.375H608.026V151.881H603.836ZM633.39 162.108C632.68 162.108 632.047 162.049 631.49 161.931C630.934 161.824 630.549 161.718 630.336 161.611L631.401 157.918C632.419 158.178 633.319 158.273 634.1 158.202C634.882 158.131 635.574 157.782 636.178 157.154C636.793 156.539 637.355 155.539 637.864 154.154L638.646 152.023L628.561 124.608H633.106L640.634 146.341H640.918L648.447 124.608H652.992L641.416 155.858C640.895 157.267 640.25 158.433 639.48 159.356C638.711 160.291 637.817 160.984 636.799 161.433C635.793 161.883 634.657 162.108 633.39 162.108ZM685.299 115.517V151.881H680.895V120.134H680.682L671.804 126.029V121.554L680.895 115.517H685.299ZM707.618 152.378C704.942 152.378 702.664 151.65 700.782 150.194C698.9 148.726 697.461 146.602 696.467 143.82C695.473 141.026 694.976 137.653 694.976 133.699C694.976 129.769 695.473 126.413 696.467 123.632C697.473 120.838 698.917 118.707 700.799 117.24C702.693 115.76 704.966 115.02 707.618 115.02C710.269 115.02 712.536 115.76 714.418 117.24C716.312 118.707 717.756 120.838 718.75 123.632C719.757 126.413 720.26 129.769 720.26 133.699C720.26 137.653 719.763 141.026 718.768 143.82C717.774 146.602 716.336 148.726 714.454 150.194C712.572 151.65 710.293 152.378 707.618 152.378ZM707.618 148.472C710.269 148.472 712.329 147.193 713.797 144.637C715.264 142.08 715.998 138.434 715.998 133.699C715.998 130.55 715.661 127.869 714.986 125.656C714.323 123.442 713.365 121.755 712.11 120.595C710.867 119.435 709.37 118.855 707.618 118.855C704.99 118.855 702.936 120.151 701.456 122.744C699.977 125.324 699.237 128.976 699.237 133.699C699.237 136.848 699.568 139.523 700.231 141.725C700.894 143.926 701.847 145.601 703.09 146.749C704.345 147.898 705.854 148.472 707.618 148.472ZM745.544 145.063V143.145C745.544 141.819 745.816 140.606 746.361 139.505C746.917 138.392 747.722 137.505 748.775 136.842C749.841 136.167 751.131 135.83 752.646 135.83C754.185 135.83 755.475 136.167 756.517 136.842C757.558 137.505 758.346 138.392 758.878 139.505C759.411 140.606 759.677 141.819 759.677 143.145V145.063C759.677 146.388 759.405 147.608 758.861 148.72C758.328 149.821 757.535 150.709 756.481 151.384C755.44 152.047 754.161 152.378 752.646 152.378C751.107 152.378 749.811 152.047 748.758 151.384C747.704 150.709 746.905 149.821 746.361 148.72C745.816 147.608 745.544 146.388 745.544 145.063ZM749.166 143.145V145.063C749.166 146.164 749.426 147.152 749.947 148.028C750.468 148.892 751.368 149.324 752.646 149.324C753.889 149.324 754.765 148.892 755.274 148.028C755.795 147.152 756.055 146.164 756.055 145.063V143.145C756.055 142.044 755.807 141.062 755.309 140.198C754.812 139.322 753.924 138.884 752.646 138.884C751.403 138.884 750.509 139.322 749.965 140.198C749.432 141.062 749.166 142.044 749.166 143.145ZM727.433 124.253V122.335C727.433 121.01 727.705 119.796 728.25 118.695C728.806 117.583 729.611 116.695 730.665 116.032C731.73 115.357 733.02 115.02 734.535 115.02C736.074 115.02 737.364 115.357 738.406 116.032C739.448 116.695 740.235 117.583 740.768 118.695C741.3 119.796 741.567 121.01 741.567 122.335V124.253C741.567 125.579 741.294 126.798 740.75 127.911C740.217 129.012 739.424 129.899 738.371 130.574C737.329 131.237 736.05 131.568 734.535 131.568C732.996 131.568 731.7 131.237 730.647 130.574C729.593 129.899 728.794 129.012 728.25 127.911C727.705 126.798 727.433 125.579 727.433 124.253ZM731.055 122.335V124.253C731.055 125.354 731.316 126.342 731.836 127.218C732.357 128.082 733.257 128.514 734.535 128.514C735.778 128.514 736.654 128.082 737.163 127.218C737.684 126.342 737.944 125.354 737.944 124.253V122.335C737.944 121.235 737.696 120.252 737.199 119.388C736.701 118.512 735.814 118.074 734.535 118.074C733.292 118.074 732.399 118.512 731.854 119.388C731.322 120.252 731.055 121.235 731.055 122.335ZM728.782 151.881L753.782 115.517H757.831L732.831 151.881H728.782ZM323.944 197.327V201.233H308.887V197.327H323.944ZM309.882 185.608V212.881H305.691V185.608H309.882ZM327.14 185.608V212.881H322.95V185.608H327.14ZM342.818 213.52C341.09 213.52 339.522 213.195 338.113 212.544C336.704 211.881 335.586 210.928 334.757 209.685C333.929 208.43 333.514 206.915 333.514 205.139C333.514 203.577 333.822 202.31 334.438 201.34C335.053 200.357 335.876 199.588 336.906 199.031C337.936 198.475 339.072 198.061 340.315 197.789C341.57 197.504 342.83 197.28 344.097 197.114C345.754 196.901 347.097 196.741 348.127 196.634C349.169 196.516 349.927 196.321 350.4 196.048C350.885 195.776 351.128 195.303 351.128 194.628V194.486C351.128 192.734 350.649 191.373 349.69 190.402C348.743 189.432 347.305 188.946 345.375 188.946C343.375 188.946 341.806 189.384 340.67 190.26C339.534 191.136 338.735 192.071 338.273 193.066L334.296 191.645C335.006 189.988 335.953 188.698 337.137 187.774C338.332 186.839 339.634 186.188 341.043 185.821C342.463 185.442 343.86 185.253 345.233 185.253C346.109 185.253 347.115 185.36 348.252 185.573C349.4 185.774 350.507 186.194 351.572 186.833C352.649 187.472 353.543 188.437 354.253 189.727C354.963 191.018 355.318 192.746 355.318 194.912V212.881H351.128V209.188H350.915C350.631 209.78 350.157 210.413 349.494 211.088C348.832 211.762 347.95 212.336 346.849 212.81C345.748 213.283 344.405 213.52 342.818 213.52ZM343.458 209.756C345.115 209.756 346.512 209.43 347.648 208.779C348.796 208.128 349.66 207.288 350.24 206.258C350.832 205.228 351.128 204.145 351.128 203.009V199.173C350.95 199.387 350.56 199.582 349.956 199.759C349.364 199.925 348.678 200.073 347.896 200.203C347.127 200.322 346.375 200.428 345.641 200.523C344.919 200.606 344.333 200.677 343.884 200.736C342.795 200.878 341.777 201.109 340.83 201.428C339.895 201.736 339.137 202.204 338.557 202.831C337.989 203.447 337.705 204.287 337.705 205.352C337.705 206.808 338.243 207.909 339.32 208.655C340.409 209.389 341.789 209.756 343.458 209.756ZM377.029 212.881V185.608H398.478V212.881H394.288V189.514H381.219V212.881H377.029ZM417.565 213.449C414.937 213.449 412.671 212.869 410.765 211.709C408.871 210.537 407.409 208.904 406.379 206.808C405.361 204.701 404.852 202.251 404.852 199.458C404.852 196.664 405.361 194.202 406.379 192.071C407.409 189.929 408.841 188.26 410.676 187.064C412.523 185.857 414.677 185.253 417.139 185.253C418.56 185.253 419.962 185.49 421.347 185.963C422.732 186.437 423.993 187.206 425.129 188.271C426.266 189.325 427.171 190.722 427.846 192.462C428.521 194.202 428.858 196.344 428.858 198.889V200.665H407.835V197.043H424.597C424.597 195.504 424.289 194.131 423.673 192.923C423.07 191.716 422.205 190.763 421.081 190.065C419.968 189.366 418.654 189.017 417.139 189.017C415.47 189.017 414.026 189.432 412.807 190.26C411.599 191.077 410.67 192.142 410.019 193.456C409.368 194.77 409.043 196.179 409.043 197.682V200.097C409.043 202.156 409.398 203.902 410.108 205.335C410.83 206.755 411.83 207.838 413.109 208.584C414.387 209.318 415.873 209.685 417.565 209.685C418.666 209.685 419.66 209.531 420.548 209.223C421.448 208.904 422.223 208.43 422.874 207.803C423.525 207.164 424.028 206.37 424.384 205.423L428.432 206.56C428.006 207.933 427.29 209.14 426.283 210.182C425.277 211.212 424.034 212.017 422.555 212.597C421.075 213.165 419.412 213.449 417.565 213.449ZM435.232 223.108V185.608H439.281V189.941H439.778C440.085 189.467 440.512 188.863 441.056 188.129C441.612 187.384 442.406 186.721 443.435 186.141C444.477 185.549 445.886 185.253 447.661 185.253C449.958 185.253 451.982 185.827 453.734 186.975C455.486 188.124 456.853 189.751 457.835 191.858C458.818 193.965 459.309 196.451 459.309 199.316C459.309 202.204 458.818 204.707 457.835 206.826C456.853 208.933 455.491 210.567 453.751 211.727C452.011 212.875 450.005 213.449 447.732 213.449C445.98 213.449 444.578 213.159 443.524 212.579C442.471 211.987 441.66 211.318 441.092 210.573C440.523 209.815 440.085 209.188 439.778 208.691H439.423V223.108H435.232ZM439.352 199.244C439.352 201.304 439.653 203.121 440.257 204.695C440.861 206.258 441.743 207.483 442.903 208.371C444.063 209.247 445.483 209.685 447.164 209.685C448.916 209.685 450.378 209.223 451.55 208.3C452.733 207.365 453.621 206.11 454.213 204.536C454.817 202.95 455.119 201.186 455.119 199.244C455.119 197.327 454.823 195.599 454.231 194.06C453.651 192.509 452.769 191.284 451.585 190.384C450.413 189.473 448.94 189.017 447.164 189.017C445.46 189.017 444.027 189.449 442.867 190.313C441.707 191.166 440.831 192.361 440.239 193.9C439.647 195.427 439.352 197.209 439.352 199.244ZM465.701 212.881V185.608H476.852C479.787 185.608 482.119 186.271 483.847 187.597C485.576 188.923 486.44 190.674 486.44 192.852C486.44 194.51 485.948 195.794 484.966 196.705C483.983 197.605 482.723 198.215 481.184 198.534C482.19 198.676 483.167 199.031 484.114 199.6C485.072 200.168 485.866 200.949 486.493 201.943C487.12 202.926 487.434 204.133 487.434 205.566C487.434 206.962 487.079 208.211 486.369 209.312C485.658 210.413 484.64 211.283 483.315 211.922C481.989 212.561 480.403 212.881 478.556 212.881H465.701ZM469.678 209.046H478.556C480 209.046 481.131 208.702 481.947 208.016C482.764 207.329 483.173 206.394 483.173 205.21C483.173 203.802 482.764 202.695 481.947 201.89C481.131 201.073 480 200.665 478.556 200.665H469.678V209.046ZM469.678 197.043H476.852C477.976 197.043 478.941 196.889 479.746 196.581C480.551 196.262 481.166 195.812 481.592 195.232C482.03 194.64 482.249 193.941 482.249 193.137C482.249 191.988 481.77 191.089 480.811 190.438C479.852 189.775 478.532 189.443 476.852 189.443H469.678V197.043ZM497.399 195.48H505.212C508.408 195.48 510.852 196.291 512.545 197.913C514.238 199.535 515.084 201.588 515.084 204.074C515.084 205.708 514.705 207.193 513.948 208.531C513.19 209.856 512.077 210.916 510.61 211.709C509.142 212.49 507.342 212.881 505.212 212.881H493.777V185.608H497.967V208.975H505.212C506.869 208.975 508.23 208.537 509.296 207.661C510.361 206.785 510.894 205.66 510.894 204.287C510.894 202.843 510.361 201.665 509.296 200.754C508.23 199.842 506.869 199.387 505.212 199.387H497.399V195.48ZM519.416 212.881V185.608H523.607V212.881H519.416ZM535.467 206.702L548.607 185.608H553.436V212.881H549.246V191.787L536.178 212.881H531.277V185.608H535.467V206.702ZM545.837 176.517H549.743C549.743 178.435 549.08 180.003 547.754 181.222C546.429 182.442 544.629 183.051 542.357 183.051C540.119 183.051 538.338 182.442 537.012 181.222C535.698 180.003 535.041 178.435 535.041 176.517H538.948C538.948 177.441 539.202 178.251 539.711 178.95C540.232 179.648 541.114 179.997 542.357 179.997C543.6 179.997 544.487 179.648 545.02 178.95C545.565 178.251 545.837 177.441 545.837 176.517ZM575.174 212.881V185.608H596.623V212.881H592.432V189.514H579.364V212.881H575.174ZM615.355 213.449C612.893 213.449 610.732 212.863 608.874 211.691C607.027 210.519 605.583 208.88 604.542 206.773C603.512 204.666 602.997 202.204 602.997 199.387C602.997 196.546 603.512 194.066 604.542 191.947C605.583 189.828 607.027 188.183 608.874 187.011C610.732 185.839 612.893 185.253 615.355 185.253C617.817 185.253 619.971 185.839 621.818 187.011C623.676 188.183 625.12 189.828 626.15 191.947C627.192 194.066 627.713 196.546 627.713 199.387C627.713 202.204 627.192 204.666 626.15 206.773C625.12 208.88 623.676 210.519 621.818 211.691C619.971 212.863 617.817 213.449 615.355 213.449ZM615.355 209.685C617.225 209.685 618.764 209.205 619.971 208.247C621.179 207.288 622.072 206.027 622.652 204.465C623.232 202.902 623.522 201.209 623.522 199.387C623.522 197.564 623.232 195.865 622.652 194.291C622.072 192.716 621.179 191.444 619.971 190.473C618.764 189.503 617.225 189.017 615.355 189.017C613.484 189.017 611.946 189.503 610.738 190.473C609.531 191.444 608.637 192.716 608.057 194.291C607.477 195.865 607.187 197.564 607.187 199.387C607.187 201.209 607.477 202.902 608.057 204.465C608.637 206.027 609.531 207.288 610.738 208.247C611.946 209.205 613.484 209.685 615.355 209.685ZM631.694 212.881V208.975H632.689C633.505 208.975 634.186 208.815 634.731 208.495C635.275 208.164 635.713 207.59 636.045 206.773C636.388 205.944 636.648 204.796 636.826 203.328C637.015 201.849 637.151 199.967 637.234 197.682L637.731 185.608H655.913V212.881H651.723V189.514H641.709L641.282 199.244C641.188 201.482 640.987 203.453 640.679 205.157C640.383 206.85 639.927 208.27 639.312 209.419C638.708 210.567 637.903 211.431 636.897 212.011C635.891 212.591 634.63 212.881 633.115 212.881H631.694ZM675.036 213.449C672.408 213.449 670.141 212.869 668.236 211.709C666.342 210.537 664.88 208.904 663.85 206.808C662.832 204.701 662.323 202.251 662.323 199.458C662.323 196.664 662.832 194.202 663.85 192.071C664.88 189.929 666.312 188.26 668.147 187.064C669.993 185.857 672.148 185.253 674.61 185.253C676.03 185.253 677.433 185.49 678.818 185.963C680.203 186.437 681.464 187.206 682.6 188.271C683.736 189.325 684.642 190.722 685.317 192.462C685.991 194.202 686.329 196.344 686.329 198.889V200.665H665.306V197.043H682.067C682.067 195.504 681.759 194.131 681.144 192.923C680.54 191.716 679.676 190.763 678.552 190.065C677.439 189.366 676.125 189.017 674.61 189.017C672.941 189.017 671.497 189.432 670.277 190.26C669.07 191.077 668.141 192.142 667.49 193.456C666.839 194.77 666.513 196.179 666.513 197.682V200.097C666.513 202.156 666.868 203.902 667.579 205.335C668.301 206.755 669.301 207.838 670.579 208.584C671.858 209.318 673.343 209.685 675.036 209.685C676.137 209.685 677.131 209.531 678.019 209.223C678.919 208.904 679.694 208.43 680.345 207.803C680.996 207.164 681.499 206.37 681.854 205.423L685.902 206.56C685.476 207.933 684.76 209.14 683.754 210.182C682.748 211.212 681.505 212.017 680.025 212.597C678.546 213.165 676.883 213.449 675.036 213.449ZM690.164 189.514V185.608H712.323V189.514H703.374V212.881H699.184V189.514H690.164Z" fill="white"/>
<circle cx="953.358" cy="46.6392" r="46.6392" fill="#FF5732"/>
<circle cx="46.6392" cy="46.6392" r="46.6392" fill="#FF5732"/>
<circle cx="953.358" cy="139.92" r="46.6392" fill="#FF5732"/>
<circle cx="46.6392" cy="139.92" r="46.6392" fill="#FF5732"/>
<circle cx="953.358" cy="233.192" r="46.6392" fill="#FF5732"/>
<circle cx="46.6392" cy="233.192" r="46.6392" fill="#FF5732"/>
<circle cx="953.358" cy="326.473" r="46.6392" fill="#FF5732"/>
<circle cx="46.6392" cy="326.473" r="46.6392" fill="#FF5732"/>
</svg>
